<?xml version="1.0" encoding="UTF-8"?>
<svg width="446px" height="157px" viewBox="0 0 446 157" version="1.1" xmlns="http://www.w3.org/2000/svg" xmlns:xlink="http://www.w3.org/1999/xlink">
    <!-- Generator: Sketch 49.1 (51147) - http://www.bohemiancoding.com/sketch -->
    <title>Group 3</title>
    <desc>Created with Sketch.</desc>
    <defs>
        <filter x="-1.6%" y="-3.4%" width="103.2%" height="109.4%" filterUnits="objectBoundingBox" id="filter-1">
            <feOffset dx="0" dy="2" in="SourceAlpha" result="shadowOffsetOuter1"></feOffset>
            <feGaussianBlur stdDeviation="2" in="shadowOffsetOuter1" result="shadowBlurOuter1"></feGaussianBlur>
            <feColorMatrix values="0 0 0 0 0.607892215   0 0 0 0 0.607803345   0 0 0 0 0.607922554  0 0 0 1 0" type="matrix" in="shadowBlurOuter1" result="shadowMatrixOuter1"></feColorMatrix>
            <feMerge>
                <feMergeNode in="shadowMatrixOuter1"></feMergeNode>
                <feMergeNode in="SourceGraphic"></feMergeNode>
            </feMerge>
        </filter>
    </defs>
    <g id="Page-1" stroke="none" stroke-width="1" fill="none" fill-rule="evenodd">
        <g id="Group-3" filter="url(#filter-1)" transform="translate(3.000000, 2.000000)" fill="#000000" fill-rule="nonzero">
            <g id="Group" transform="translate(0.000000, 10.000000)">
                <path d="M100.970533,56.0772857 C101.306,55.1967143 101.327378,54.372 101.021511,53.6179286 C100.391689,52.0621429 98.6568,51.5380714 98.494,51.4937143 C97.4284,51.1536429 96.2509778,51.1618571 95.1755111,51.3080714 L94.0803111,50.6164286 C94.0704444,50.5556429 94.0934667,50.4948571 94.0720889,50.4357143 L92.8042222,46.7688571 C92.7187111,46.5257143 92.5378222,46.3269286 92.2993778,46.2234286 L84.5918667,42.826 L69.5517778,29.6256429 L59.0273333,21.3785 C59.2444,20.9957143 59.4368,20.5915714 59.6111111,20.1693571 C59.6719556,20.171 59.7328,20.1825 59.792,20.1825 C61.3805333,20.1825 62.678,19.7323571 63.6531556,18.8435714 C64.1826667,18.3589286 64.6052889,17.9761429 61.4463111,13.432 L61.5778667,9.83085714 C61.5778667,4.65257143 56.6626222,0.437 50.6209333,0.437 C48.0753333,0.437 45.6053778,1.23542857 43.6665778,2.68442857 C42.6749778,3.42207143 41.8708444,4.40121429 41.2064889,5.67607143 C40.4648444,7.10042857 40.0192,8.65457143 39.5867111,10.1561429 L39.2907111,11.1714286 C39.2101333,11.4392143 39.1986222,11.7447857 39.22,12.0552857 C39.0407556,12.0043571 38.8483556,11.9895714 38.6608889,12.0585714 C37.9340444,12.3165 20.9124,18.7860714 26.2880889,53.82 L27.0872889,56.6128571 C26.2354667,57.9435714 23.6931556,62.4926429 24.6156889,68.1375 C25.3688444,72.7325714 28.2170222,76.8512143 33.0862222,80.3833571 L37.0855111,99.8085 L7.24871111,118.210143 C7.21253333,118.221643 7.178,118.2315 7.14182222,118.244643 C7.0152,118.206857 6.88035556,118.188786 6.73893333,118.2085 L4.18675556,118.561714 C3.76577778,118.619214 3.43688889,118.957643 3.3892,119.379857 L2.90902222,123.748214 L1.01133333,133.156857 C0.920888889,133.603714 1.16591111,134.047286 1.58853333,134.209929 L7.43453333,136.457357 C7.54142222,136.498429 7.65488889,136.519786 7.76835556,136.519786 C7.95582222,136.519786 8.14164444,136.463929 8.29951111,136.352214 C8.55275556,136.174786 8.7024,135.885643 8.69911111,135.578429 L8.64648889,131.252786 C8.64648889,131.2495 8.64977778,131.246214 8.65142222,131.244571 C8.658,131.233071 8.658,131.218286 8.66622222,131.210071 L12.0916,124.957357 C12.1146222,124.9245 12.1540889,124.908071 12.1705333,124.870286 C12.1902667,124.8325 12.1902667,124.791429 12.2034222,124.753643 L12.2988,124.5795 C12.3859556,124.420143 12.4040444,124.249286 12.3958222,124.081714 L49.7362222,110.866571 C50.0486667,110.7565 50.2788889,110.488714 50.3397333,110.161786 L53.5825778,93.0842857 L82.0479111,130.728714 C81.9508889,130.958714 81.9525333,131.205143 82.0396889,131.422 C82.0018667,131.5485 81.9804889,131.684857 82.0018667,131.826143 L82.3554222,134.375857 C82.4146222,134.798071 82.7500889,135.123357 83.1743556,135.171 L87.5485778,135.652357 L96.9646667,137.546571 C97.0271556,137.559714 97.0896444,137.566286 97.1521333,137.566286 C97.5287111,137.566286 97.8756889,137.334643 98.0154667,136.969929 L100.266711,131.131214 C100.375244,130.842071 100.337422,130.516786 100.161467,130.265429 C99.9888,130.017357 99.7043111,129.867857 99.4000889,129.867857 C99.3968,129.867857 99.3902222,129.867857 99.3869333,129.867857 L95.0587556,129.922071 C95.0571111,129.922071 95.0521778,129.917143 95.0505333,129.917143 C95.0373778,129.908929 95.0258667,129.908929 95.0143556,129.900714 L88.8082222,126.508214 C88.7638222,126.473714 88.726,126.429357 88.6717333,126.401429 C88.6355556,126.381714 88.5928,126.381714 88.5549778,126.368571 L88.3806667,126.273286 C88.2145778,126.181286 88.0336889,126.163214 87.8577333,126.179643 L58.1097333,69.2415 C58.1376889,69.0903571 58.1294667,68.9326429 58.0817778,68.7913571 C57.8597778,68.1128571 55.9884,62.56 53.3556444,60.1318571 L55.5016444,56.8642143 L57.1855556,57.2387857 C58.1311111,58.0273571 62.2586667,61.0502143 70.4036,61.41 C72.6433333,61.5052857 95.0390222,60.6641429 95.9105778,60.6263571 C96.8709333,60.6723571 98.3295556,60.49 99.1369778,59.6800714 C99.1369778,59.6800714 139.189067,85.2823571 139.389689,85.4565 C139.965244,85.9608571 140.713467,86.2680714 141.535689,86.2680714 C143.333067,86.2680714 144.796622,84.8042857 144.796622,83.0102857 C144.796622,82.0278571 144.355911,81.1489286 143.665244,80.5542143 C143.221244,80.178 100.970533,56.0772857 100.970533,56.0772857 Z M2.98795556,132.756 L3.16391111,131.878714 C4.02888889,132.501357 4.89057778,132.815143 5.73582222,132.815143 C5.86737778,132.815143 5.99893333,132.808571 6.13048889,132.7905 C6.38373333,132.760929 6.58435556,132.6755 6.79977778,132.599929 L6.81951111,134.226357 L2.98795556,132.756 Z M96.5930222,132.430714 C96.5634222,132.179357 96.4762667,131.978929 96.4022667,131.763714 L98.0302667,131.742357 L96.5568444,135.570214 L95.6672,135.394429 C96.3858222,134.397214 96.7081333,133.401643 96.5930222,132.430714 Z M52.0532444,17.7510714 C52.1897333,17.8332143 54.8093333,19.3462857 57.7019111,19.9344286 C56.462,22.5580714 54.2354222,24.0990714 51.5763556,24.0990714 C47.6839556,24.0990714 44.5200444,20.2761429 44.3769778,15.5151429 C48.3532444,16.3053571 51.1471556,17.1021429 52.0532444,17.7510714 Z M48.8778222,25.4708571 C48.9090667,25.6121429 48.9616889,25.7485 49.0587111,25.8667857 C49.4517333,26.3415714 49.5684889,26.6849286 49.4879111,26.7325714 C46.7811556,27.6328571 42.6503111,24.3537143 41.1884,21.7103571 C40.8792444,21.1353571 40.1787111,18.8698571 40.2543556,18.0763571 L42.6881333,17.4126429 C43.3705778,21.2388571 45.7665333,24.3225 48.8778222,25.4708571 Z M8.38666667,120.648143 C8.25017778,120.275214 8.23702222,119.974571 8.26168889,119.7725 L38.6148444,101.048857 C38.9470222,100.8435 39.1147556,100.4525 39.0358222,100.071357 L34.8342667,79.649 C34.7865778,79.4173571 34.6533778,79.2136429 34.4609778,79.0772857 C29.8384444,75.8030714 27.1448444,72.0261429 26.4541778,67.8565714 C25.9723556,64.9454286 26.5643556,62.3201429 27.2796889,60.4177143 C28.8188889,60.9253571 34.8227556,62.7801429 41.1045333,63.0232857 L42.6864889,105.343286 L8.38666667,120.648143 Z M86.5816444,127.769929 C86.6244,127.852071 86.7016889,127.898071 86.7625333,127.962143 C85.6311556,129.743 84.6099556,130.212857 83.9719111,130.293357 C83.9406667,130.201357 83.9061333,130.111 83.842,130.027214 L54.0463111,90.6183571 L57.5424,72.1887857 L86.5816444,127.769929 Z M56.2301333,69.1429286 L48.6081333,109.291071 L10.8434667,122.657357 C10.7004,122.708286 10.5852889,122.795357 10.4882667,122.898857 C10.1067556,122.650786 9.78937778,122.407643 9.52462222,122.174357 L44.0217778,106.780786 C44.3687556,106.628 44.5858222,106.276429 44.5710222,105.898571 L42.9660444,63.0265714 C46.0592444,62.9772857 49.0883111,62.4400714 51.6026667,61.1142857 C53.6088889,62.4236429 55.5493333,67.1501429 56.2301333,69.1429286 Z M66.4158222,51.1240714 L64.2204889,58.5842857 C60.1669333,57.4425 58.2774667,55.7322857 58.2544444,55.7092857 C58.2051111,55.6632857 58.1360444,55.6501429 58.0784889,55.6156429 C57.9995556,55.5121429 57.9008889,55.4250714 57.7775556,55.361 C57.6427111,55.292 44.2536444,48.2342857 35.4410667,34.5755714 C35.1631556,34.1418571 34.5876,34.017 34.1551111,34.2962857 C33.7226222,34.5755714 33.5992889,35.1505714 33.8772,35.5793571 C40.626,46.0427143 49.7345778,52.6125 54.2140444,55.4267143 L51.9463556,58.8816429 C51.8345333,58.8717857 51.7161333,58.8767143 51.6026667,58.9112143 C41.8790667,61.7073571 29.1658667,56.2218571 29.0392444,56.1676429 C28.9882667,56.1446429 28.9356444,56.1446429 28.8863111,56.1331429 L28.1035556,53.4224286 C23.0041333,20.1414286 39.1262667,13.8657143 39.2890667,13.8065714 C39.4452889,13.7507143 39.5636889,13.6472143 39.6656444,13.5305714 C39.6870222,13.5683571 39.7001778,13.6110714 39.7232,13.6488571 C40.1803556,14.3881429 40.8825333,14.8744286 41.6998222,15.0173571 C41.9760889,15.065 42.2293333,15.1142857 42.4973778,15.1619286 C42.4973778,15.1717857 42.4908,15.18 42.4908,15.1898571 C42.4908,15.3081429 42.5023111,15.4247857 42.5056,15.5414286 C41.8872889,15.7122857 39.7347111,16.2987857 39.6820889,16.3185 C39.2134222,16.3875 38.8335556,16.6684286 38.6164889,17.1087143 C37.8222222,18.7105 39.5423111,22.5777857 39.5620444,22.6139286 C40.9318667,25.0913571 44.8012444,28.7532857 48.4798667,28.7532857 C49.0176,28.7532857 49.5520444,28.6744286 50.0733333,28.5019286 C50.9218667,28.2226429 51.2392444,27.6821429 51.356,27.2763571 C51.4859111,26.8262143 51.4119111,26.3695 51.2507556,25.9407143 C51.3609333,25.944 51.4694667,25.9604286 51.5796444,25.9604286 C54.1005778,25.9604286 56.3452444,24.8334286 57.9716,22.9112857 L64.0050667,27.6377857 L62.5546667,36.961 L60.5813333,35.9506429 C60.2886222,35.7978571 59.9350667,35.8175714 59.6571556,35.9933571 C59.3792444,36.1691429 59.2148,36.4812857 59.2279556,36.8115 L59.3364889,39.6355714 L53.7832,33.5225 C53.4378667,33.1413571 52.8491556,33.1134286 52.4692889,33.4584286 C52.0894222,33.8034286 52.0598222,34.3899286 52.4051556,34.7710714 L59.5716444,42.6600714 C59.6045333,42.7307143 59.6028889,42.8145 59.6538667,42.8752857 L66.4700889,51.0320714 C66.452,51.0616429 66.4273333,51.0879286 66.4158222,51.1240714 Z M78.8675556,53.3419286 L68.3776444,50.416 L61.6370667,42.3479286 C61.6008889,42.2033571 61.5416889,42.0637143 61.4348,41.9454286 L61.2769333,41.7729286 L61.1437333,38.3262143 L81.1829333,48.599 L85.7068,53.5998571 L78.8675556,53.3419286 Z M87.7442667,53.0790714 L82.8931556,47.7151429 L84.4948444,44.8072857 L91.1795111,47.7562143 L91.7698667,49.4680714 C91.3932889,49.5009286 91.0594667,49.6290714 90.7634667,49.8508571 C89.8261333,50.5671429 89.8146222,51.9438571 89.8902667,52.7028571 L87.8363556,53.199 C87.8084,53.1562857 87.7788,53.1168571 87.7442667,53.0790714 Z M99.3293778,54.8254286 C98.8031556,54.5921429 98.2095111,54.5461429 97.606,54.7531429 C97.0485333,54.9453571 96.0503556,55.5039286 95.8365778,56.3861429 C95.7198222,56.8822857 95.8711111,57.3915714 96.2509778,57.7875 C96.5617778,58.1045714 96.9284889,58.3674286 97.3132889,58.6072857 C96.9284889,58.7206429 96.4055556,58.7863571 95.9138667,58.7699286 C95.8332889,58.7732143 92.9127556,58.8816429 89.0746222,59.018 C89.0976444,58.8865714 89.096,58.7485714 89.0532444,58.6122143 L87.9909333,55.0702143 L92.2878667,54.0187857 C93.2136889,53.6031429 96.0306222,52.6568571 97.9513333,53.2712857 C98.2456889,53.3567143 99.0580444,53.7132143 99.2981333,54.3210714 C99.3589778,54.4656429 99.3392444,54.6496429 99.3293778,54.8254286 Z" id="Shape"></path>
                <path d="M141.525822,61.1290714 C138.503333,61.1290714 136.043244,63.5884286 136.043244,66.6096429 C136.043244,68.1112143 136.641822,69.5142143 137.735378,70.5590714 C138.766444,71.5464286 140.108311,72.0869286 141.525822,72.0869286 C144.064844,72.0869286 146.255244,70.357 146.847244,67.8845 C146.955778,67.4310714 147.0084,67.0137857 147.0084,66.6096429 C147.0084,63.5884286 144.548311,61.1290714 141.525822,61.1290714 Z M141.525822,70.2288571 C140.780889,70.2288571 140.065556,69.9988571 139.458756,69.5766429 C139.462044,69.5700714 139.462044,69.5585714 139.466978,69.552 C139.591956,69.253 139.759689,68.9835714 139.952089,68.7355 C139.983333,68.6944286 140.011289,68.6500714 140.045822,68.6106429 C140.243156,68.379 140.468444,68.1736429 140.715111,67.9978571 C140.757867,67.9666429 140.8072,67.9370714 140.8516,67.9058571 C141.111422,67.7399286 141.387689,67.6019286 141.682044,67.5082857 C141.721511,67.4951429 141.767556,67.4869286 141.807022,67.4737857 C142.1244,67.3834286 142.454933,67.3259286 142.796978,67.3259286 C143.129156,67.3259286 143.453111,67.3883571 143.768844,67.4770714 C143.836267,67.4967857 143.9004,67.5115714 143.967822,67.5362143 C144.268756,67.6397143 144.556533,67.7760714 144.824578,67.9600714 C144.837733,67.9699286 144.850889,67.9830714 144.864044,67.9945714 C144.311511,69.3318571 143.0124,70.2288571 141.525822,70.2288571 Z M144.972578,65.9344286 C144.742356,65.8342143 144.500622,65.7619286 144.257244,65.6945714 C144.142133,65.6600714 144.031956,65.6157143 143.9152,65.5910714 C143.548489,65.5138571 143.1752,65.4695 142.795333,65.4695 C142.369422,65.4695 141.955022,65.5352143 141.553778,65.6288571 C141.453467,65.6518571 141.361378,65.6765 141.262711,65.7044286 C140.872978,65.8161429 140.493111,65.9574286 140.142844,66.1529286 C140.129689,66.1578571 140.123111,66.1660714 140.113244,66.1726429 C139.769556,66.3632143 139.4604,66.6014286 139.167689,66.8626429 C139.095333,66.9267143 139.024622,66.9924286 138.955556,67.0630714 C138.669422,67.344 138.406311,67.6495714 138.185956,67.9896429 C138.182667,67.9945714 138.179378,67.9978571 138.177733,68.0011429 C137.996844,67.5657857 137.899822,67.0942857 137.899822,66.6096429 C137.899822,64.6119286 139.524533,62.9871429 141.522533,62.9871429 C143.305111,62.9871429 144.790044,64.2800714 145.090978,65.9755 C145.056444,65.9557857 145.013689,65.9541429 144.972578,65.9344286 Z" id="Shape"></path>
            </g>
            <path d="M435.003227,22.1888505 C432.766774,19.9597128 430.214104,19.3594331 428.860763,19.1924131 C429.61444,17.7619946 430.012577,16.06699 429.960148,14.26119 C430.328794,14.4381319 430.66631,14.682874 430.964504,15.0152603 C431.252867,15.3360709 431.744395,15.3674905 432.070442,15.0880215 C432.398128,14.8068988 432.445642,14.3141072 432.178579,13.9751063 L430.276364,11.5524899 L429.663592,7.13224865 C429.647208,7.00822392 429.602971,6.89081385 429.532518,6.78828674 C428.03008,4.57899293 425.241477,3.20479895 422.24807,3.20479895 C417.606405,3.20479895 413.82983,6.43605651 413.82983,10.4048478 C413.82983,10.4594187 413.836384,10.5139895 413.847853,10.5669068 L414.734242,14.9044649 C414.748988,14.9755724 414.783395,15.0351043 414.814525,15.0979435 C414.80961,15.1607827 414.796502,15.2203145 414.804694,15.2848074 C415.032436,16.7764114 415.581309,18.1439908 416.341539,19.3395891 C416.333347,19.3809307 416.312048,19.418965 416.310409,19.4636139 L416.241595,22.4666659 L410.620151,22.7031397 L400.971452,12.5281511 L400.722411,11.7757344 C400.8584,11.7906174 400.996028,11.7806954 401.125464,11.7228172 C401.335183,11.6285584 401.497387,11.4466555 401.564563,11.2250646 C401.63993,10.9786689 403.389771,5.15777499 401.095972,1.97943465 C400.16043,0.679655505 398.721891,0.00992197818 396.664026,0 C396.446115,0.0413415758 391.311284,1.0781883 388.86675,5.46370265 C387.234876,8.39233988 387.211938,12.0585108 388.801213,16.366303 C388.904434,16.6424647 389.14856,16.842558 389.441838,16.8822459 C389.477884,16.8872069 389.513929,16.8888605 389.548336,16.8888605 C389.802292,16.8888605 390.043141,16.7664895 390.193876,16.5564743 C390.198792,16.5482059 390.297097,16.4159129 390.46094,16.2125123 L386.464816,35.4165011 C386.420578,35.6298236 386.463177,35.8514145 386.584421,36.0333174 C386.705664,36.2152204 386.894084,36.3375914 387.107079,36.3756257 L388.657031,36.6517874 L374.772998,48.2902678 C374.763167,48.3001898 374.758252,48.3117654 374.748421,48.3216874 L368.990987,47.0152936 C368.981157,47.0136399 368.972965,47.0070253 368.961496,47.0053716 C368.959857,47.0053716 368.95658,47.0053716 368.954942,47.0053716 L366.197469,44.4934575 C366.000857,44.3132082 365.728878,44.2470617 365.471645,44.3082472 C365.214412,44.3727401 365.006332,44.559604 364.91458,44.8109608 L363.05005,49.8959746 C362.91406,50.2647415 363.063157,50.6765036 363.400673,50.8732895 L370.478679,54.9892567 L373.627737,57.2167408 C373.765365,57.314307 373.925931,57.3622632 374.086497,57.3622632 C374.271639,57.3622632 374.45842,57.2961167 374.605878,57.167131 L376.278712,55.7119075 C376.380295,55.6242633 376.444194,55.5134679 376.49007,55.3960578 C376.547415,55.3629846 376.59329,55.331565 376.640805,55.2869161 C376.704704,55.2753404 376.768602,55.2687258 376.829224,55.2406135 L400.001503,44.1577639 L407.820078,59.5980156 C407.805332,59.6327425 407.784033,59.6625085 407.774202,59.7005427 L397.635614,102.115346 C397.601207,102.264175 397.60776,102.416312 397.655275,102.558527 L409.140651,137.333407 C409.106244,137.371442 409.088221,137.421051 409.062006,137.462393 L405.070797,142.084381 C405.065882,142.090996 405.056051,142.094303 405.051136,142.100918 C405.049498,142.104225 405.047859,142.107532 405.047859,142.107532 L401.54654,143.364316 C401.297499,143.451961 401.107441,143.661976 401.041904,143.919947 C400.976367,144.177919 401.040266,144.452427 401.213939,144.65252 L404.759496,148.725492 C404.916785,148.905741 405.134696,149 405.357522,149 C405.501704,149 405.647524,148.961966 405.776959,148.880936 L412.732084,144.5533 L416.171143,142.8153 C416.49719,142.649934 416.672502,142.282821 416.593857,141.923976 L416.120352,139.747755 C416.094137,139.625384 416.03843,139.521204 415.966339,139.428598 C415.967978,139.289691 415.925379,139.15409 415.853288,139.025105 L411.811287,103.678057 L421.027442,81.4180993 C434.929498,79.9298026 435.465264,65.5875831 435.457072,63.2459962 L437.351094,60.4579204 C437.433015,60.3355493 437.48053,60.1966416 437.49036,60.0494656 L438.997713,34.6095136 C439.06325,29.0713961 437.71974,24.8925896 435.003227,22.1888505 Z M423.468698,21.5422683 C421.908916,21.7853568 420.313087,21.2611456 418.984323,20.0672009 C417.696519,18.9112904 416.824875,17.259281 416.46606,15.3989101 L418.020927,15.1359777 L421.140493,16.959968 C421.265014,17.0327292 421.402642,17.0674561 421.538631,17.0674561 C421.723773,17.0674561 421.908916,17.0029633 422.056374,16.8756312 C422.090781,16.8458653 425.426619,14.0280235 428.347935,13.9486477 C428.610084,17.7371897 426.547304,21.0643597 423.468698,21.5422683 Z M417.922622,21.2710676 C418.928616,22.1723139 420.064046,22.7544033 421.245352,23.0289114 C419.708508,23.5382396 418.42398,23.0801749 417.829231,22.7808619 L417.865277,21.2115357 C417.888215,21.229726 417.902961,21.2528773 417.922622,21.2710676 Z M398.836581,28.3933942 C398.782513,28.3752039 398.73336,28.3487453 398.676015,28.3421307 L394.678252,27.893988 L395.798936,17.0724171 L395.934926,16.974851 L396.247866,17.2014028 L403.130899,26.5611356 C402.468974,26.7413849 400.909192,27.2474057 398.836581,28.3933942 Z M398.947994,11.2978258 C398.943079,11.3970456 398.951271,11.497919 398.984039,11.5987925 L399.326471,12.6372929 L395.95131,15.0036847 L393.4822,13.2144213 C394.866671,12.1445013 396.559167,11.228372 398.325392,11.228372 C398.536749,11.228372 398.739914,11.2730209 398.947994,11.2978258 Z M392.456545,14.4596295 C392.456545,14.4579759 392.456545,14.4563222 392.456545,14.4530149 L394.416104,15.8718578 L392.115752,16.0951023 L392.456545,14.4596295 Z M416.823237,24.0525288 C417.483523,24.4527152 418.479687,24.8330577 419.670824,24.866131 L419.292347,25.1885953 C419.233364,25.2382052 419.194041,25.302698 419.153081,25.3655372 L414.347573,26.6355504 L412.08982,24.2542757 L416.823237,24.0525288 Z M366.002496,46.4828141 L367.016682,47.4072117 C366.854478,47.5031242 366.693912,47.612266 366.538262,47.7528273 C365.914021,48.3200337 365.556844,49.1485189 365.453623,50.2085169 L364.780229,49.8165988 L366.002496,46.4828141 Z M405.514811,147.151205 L403.191521,144.480539 L404.479325,144.022474 C404.485879,144.209338 404.503901,144.406124 404.553054,144.612832 C404.749665,145.433049 405.301815,146.147431 406.175097,146.741096 L405.514811,147.151205 Z M414.250906,139.043295 C413.716779,139.233466 412.57971,139.288037 410.726649,137.698867 C410.731564,137.601301 410.71518,137.505388 410.684049,137.407822 C410.729925,137.255685 410.744671,137.09528 410.690603,136.929914 L399.242911,102.267483 L408.924378,61.7676215 L409.774722,63.4477431 C409.946757,65.1692064 411.529478,78.4200082 419.574157,80.7549804 L410.261335,103.244798 C410.208905,103.373783 410.187606,103.512691 410.20399,103.648291 L414.250906,139.043295 Z M422.851011,79.4866209 C422.819881,79.4833135 422.795305,79.4733916 422.762536,79.4733916 C412.92378,80.1993496 411.362358,63.3204111 411.345974,63.1484301 C411.337782,63.0442494 411.309929,62.9433759 411.262414,62.8524244 L401.069757,42.7273454 C400.873146,42.3403882 400.407833,42.1766756 400.017887,42.3651932 L376.146,53.7820827 C376.134531,53.7886974 376.126339,53.800273 376.11487,53.8068877 C375.933004,53.6762483 375.698709,53.4149695 375.521759,52.9486366 L402.924457,36.2499473 L423.136098,65.921623 C423.29011,66.1481749 423.540789,66.2705459 423.793107,66.2705459 C423.948758,66.2705459 424.106047,66.2242434 424.243675,66.1283309 C424.609044,65.8769741 424.699157,65.3759142 424.450116,65.008801 L403.815762,34.7136943 C403.576551,34.3631178 403.106323,34.2605907 402.745869,34.4805278 L375.334978,51.1825244 C375.357916,50.8187186 375.418538,50.4053028 375.515205,49.9422772 C375.715093,49.8380964 375.872382,49.6545398 375.926451,49.4164123 L391.553771,36.3078255 C397.9207,29.3690554 403.745309,28.0643153 403.802654,28.0527396 C403.92226,28.026281 404.027119,27.9717102 404.117232,27.9006026 L410.708626,36.8667636 C410.861,37.0734715 411.098572,37.1925352 411.349251,37.1925352 C411.401681,37.1925352 411.45411,37.1875742 411.50654,37.1759986 L412.122589,37.0519739 C417.472054,42.3966128 431.152923,56.072406 431.639536,56.6164612 C433.636779,58.8489063 433.769492,63.1070886 433.769492,63.1500838 C433.772768,63.2526109 433.828475,63.3352941 433.867797,63.4262455 C433.877628,65.7810617 433.392653,77.0921168 422.851011,79.4866209 Z M435.910916,59.7270013 L435.119556,60.8928338 C434.827916,59.2606683 434.197121,57.0679112 432.825757,55.5366192 C432.271969,54.9198029 417.753864,40.4105635 414.011695,36.6699777 L426.345777,34.1812148 L427.438608,37.2008035 C427.517253,37.419087 427.686011,37.591068 427.900645,37.6754048 C427.995673,37.7101317 428.092341,37.7299757 428.189008,37.7299757 C428.315167,37.7299757 428.442964,37.6985561 428.559292,37.6373706 L436.179618,33.6123547 C436.569564,33.4056469 436.720299,32.9194699 436.515496,32.5258981 C436.312331,32.1306727 435.827356,31.9785357 435.439049,32.1852436 L428.626468,35.7836143 L427.609004,32.9790018 C427.571321,32.86986 427.50906,32.7772549 427.433693,32.6995328 C427.433693,32.6978791 427.433693,32.6945718 427.430416,32.6929181 L420.898006,25.93109 L424.068363,23.2389266 C424.096216,23.2157753 424.120793,23.192624 424.148646,23.1694727 C424.215821,23.1115945 424.263336,23.0388333 424.307573,22.9660722 C425.700237,22.6105346 426.912673,21.828352 427.85313,20.7187441 C427.885899,20.7220514 427.913752,20.7352807 427.946521,20.7352807 C427.982566,20.7253588 431.228291,20.6840172 433.889097,23.334839 C436.284478,25.7194211 437.469061,29.5063094 437.408439,34.5499817 L435.910916,59.7270013 Z" id="Shape" transform="translate(401.000000, 74.500000) scale(-1, 1) translate(-401.000000, -74.500000) "></path>
        </g>
    </g>
</svg>