<?xml version="1.0" encoding="utf-8" standalone="no"?>
<!DOCTYPE svg PUBLIC "-//W3C//DTD SVG 1.1//EN"
  "http://www.w3.org/Graphics/SVG/1.1/DTD/svg11.dtd">
<!-- Created with matplotlib (http://matplotlib.org/) -->
<svg height="720pt" version="1.1" viewBox="0 0 1152 720" width="1152pt" xmlns="http://www.w3.org/2000/svg" xmlns:xlink="http://www.w3.org/1999/xlink">
 <defs>
  <style type="text/css">
*{stroke-linecap:butt;stroke-linejoin:round;}
  </style>
 </defs>
 <g id="figure_1">
  <g id="patch_1">
   <path d="M 0 720 
L 1152 720 
L 1152 0 
L 0 0 
z
" style="fill:none;"/>
  </g>
  <g id="axes_1">
   <g id="patch_2">
    <path d="M 144 630 
L 1036.8 630 
L 1036.8 86.4 
L 144 86.4 
z
" style="fill:none;"/>
   </g>
   <g id="patch_3">
    <path clip-path="url(#p4461904c4f)" d="M 144 630 
L 153.397895 630 
L 153.397895 630 
L 144 630 
z
" style="fill:#e53935;"/>
   </g>
   <g id="patch_4">
    <path clip-path="url(#p4461904c4f)" d="M 153.397895 630 
L 162.795789 630 
L 162.795789 630 
L 153.397895 630 
z
" style="fill:#e53935;"/>
   </g>
   <g id="patch_5">
    <path clip-path="url(#p4461904c4f)" d="M 162.795789 630 
L 172.193684 630 
L 172.193684 630 
L 162.795789 630 
z
" style="fill:#e53935;"/>
   </g>
   <g id="patch_6">
    <path clip-path="url(#p4461904c4f)" d="M 172.193684 630 
L 181.591579 630 
L 181.591579 630 
L 172.193684 630 
z
" style="fill:#e53935;"/>
   </g>
   <g id="patch_7">
    <path clip-path="url(#p4461904c4f)" d="M 181.591579 630 
L 190.989474 630 
L 190.989474 630 
L 181.591579 630 
z
" style="fill:#e53935;"/>
   </g>
   <g id="patch_8">
    <path clip-path="url(#p4461904c4f)" d="M 190.989474 630 
L 200.387368 630 
L 200.387368 630 
L 190.989474 630 
z
" style="fill:#e53935;"/>
   </g>
   <g id="patch_9">
    <path clip-path="url(#p4461904c4f)" d="M 200.387368 630 
L 209.785263 630 
L 209.785263 630 
L 200.387368 630 
z
" style="fill:#e53935;"/>
   </g>
   <g id="patch_10">
    <path clip-path="url(#p4461904c4f)" d="M 209.785263 630 
L 219.183158 630 
L 219.183158 630 
L 209.785263 630 
z
" style="fill:#e53935;"/>
   </g>
   <g id="patch_11">
    <path clip-path="url(#p4461904c4f)" d="M 219.183158 630 
L 228.581053 630 
L 228.581053 630 
L 219.183158 630 
z
" style="fill:#e53935;"/>
   </g>
   <g id="patch_12">
    <path clip-path="url(#p4461904c4f)" d="M 228.581053 630 
L 237.978947 630 
L 237.978947 630 
L 228.581053 630 
z
" style="fill:#e53935;"/>
   </g>
   <g id="patch_13">
    <path clip-path="url(#p4461904c4f)" d="M 237.978947 630 
L 247.376842 630 
L 247.376842 630 
L 237.978947 630 
z
" style="fill:#e53935;"/>
   </g>
   <g id="patch_14">
    <path clip-path="url(#p4461904c4f)" d="M 247.376842 630 
L 256.774737 630 
L 256.774737 630 
L 247.376842 630 
z
" style="fill:#e53935;"/>
   </g>
   <g id="patch_15">
    <path clip-path="url(#p4461904c4f)" d="M 256.774737 630 
L 266.172632 630 
L 266.172632 630 
L 256.774737 630 
z
" style="fill:#e53935;"/>
   </g>
   <g id="patch_16">
    <path clip-path="url(#p4461904c4f)" d="M 266.172632 630 
L 275.570526 630 
L 275.570526 630 
L 266.172632 630 
z
" style="fill:#e53935;"/>
   </g>
   <g id="patch_17">
    <path clip-path="url(#p4461904c4f)" d="M 275.570526 630 
L 284.968421 630 
L 284.968421 630 
L 275.570526 630 
z
" style="fill:#e53935;"/>
   </g>
   <g id="patch_18">
    <path clip-path="url(#p4461904c4f)" d="M 284.968421 630 
L 294.366316 630 
L 294.366316 630 
L 284.968421 630 
z
" style="fill:#e53935;"/>
   </g>
   <g id="patch_19">
    <path clip-path="url(#p4461904c4f)" d="M 294.366316 630 
L 303.764211 630 
L 303.764211 630 
L 294.366316 630 
z
" style="fill:#e53935;"/>
   </g>
   <g id="patch_20">
    <path clip-path="url(#p4461904c4f)" d="M 303.764211 630 
L 313.162105 630 
L 313.162105 630 
L 303.764211 630 
z
" style="fill:#e53935;"/>
   </g>
   <g id="patch_21">
    <path clip-path="url(#p4461904c4f)" d="M 313.162105 630 
L 322.56 630 
L 322.56 630 
L 313.162105 630 
z
" style="fill:#e53935;"/>
   </g>
   <g id="patch_22">
    <path clip-path="url(#p4461904c4f)" d="M 322.56 630 
L 331.957895 630 
L 331.957895 630 
L 322.56 630 
z
" style="fill:#e53935;"/>
   </g>
   <g id="patch_23">
    <path clip-path="url(#p4461904c4f)" d="M 331.957895 630 
L 341.355789 630 
L 341.355789 630 
L 331.957895 630 
z
" style="fill:#e53935;"/>
   </g>
   <g id="patch_24">
    <path clip-path="url(#p4461904c4f)" d="M 341.355789 630 
L 350.753684 630 
L 350.753684 630 
L 341.355789 630 
z
" style="fill:#e53935;"/>
   </g>
   <g id="patch_25">
    <path clip-path="url(#p4461904c4f)" d="M 350.753684 630 
L 360.151579 630 
L 360.151579 630 
L 350.753684 630 
z
" style="fill:#e53935;"/>
   </g>
   <g id="patch_26">
    <path clip-path="url(#p4461904c4f)" d="M 360.151579 630 
L 369.549474 630 
L 369.549474 630 
L 360.151579 630 
z
" style="fill:#e53935;"/>
   </g>
   <g id="patch_27">
    <path clip-path="url(#p4461904c4f)" d="M 369.549474 630 
L 378.947368 630 
L 378.947368 630 
L 369.549474 630 
z
" style="fill:#e53935;"/>
   </g>
   <g id="patch_28">
    <path clip-path="url(#p4461904c4f)" d="M 378.947368 630 
L 388.345263 630 
L 388.345263 630 
L 378.947368 630 
z
" style="fill:#e53935;"/>
   </g>
   <g id="patch_29">
    <path clip-path="url(#p4461904c4f)" d="M 388.345263 630 
L 397.743158 630 
L 397.743158 630 
L 388.345263 630 
z
" style="fill:#e53935;"/>
   </g>
   <g id="patch_30">
    <path clip-path="url(#p4461904c4f)" d="M 397.743158 630 
L 407.141053 630 
L 407.141053 630 
L 397.743158 630 
z
" style="fill:#e53935;"/>
   </g>
   <g id="patch_31">
    <path clip-path="url(#p4461904c4f)" d="M 407.141053 630 
L 416.538947 630 
L 416.538947 595.485714 
L 407.141053 595.485714 
z
" style="fill:#e53935;"/>
   </g>
   <g id="patch_32">
    <path clip-path="url(#p4461904c4f)" d="M 416.538947 630 
L 425.936842 630 
L 425.936842 630 
L 416.538947 630 
z
" style="fill:#e53935;"/>
   </g>
   <g id="patch_33">
    <path clip-path="url(#p4461904c4f)" d="M 425.936842 630 
L 435.334737 630 
L 435.334737 630 
L 425.936842 630 
z
" style="fill:#e53935;"/>
   </g>
   <g id="patch_34">
    <path clip-path="url(#p4461904c4f)" d="M 435.334737 630 
L 444.732632 630 
L 444.732632 630 
L 435.334737 630 
z
" style="fill:#e53935;"/>
   </g>
   <g id="patch_35">
    <path clip-path="url(#p4461904c4f)" d="M 444.732632 630 
L 454.130526 630 
L 454.130526 630 
L 444.732632 630 
z
" style="fill:#e53935;"/>
   </g>
   <g id="patch_36">
    <path clip-path="url(#p4461904c4f)" d="M 454.130526 630 
L 463.528421 630 
L 463.528421 630 
L 454.130526 630 
z
" style="fill:#e53935;"/>
   </g>
   <g id="patch_37">
    <path clip-path="url(#p4461904c4f)" d="M 463.528421 630 
L 472.926316 630 
L 472.926316 630 
L 463.528421 630 
z
" style="fill:#e53935;"/>
   </g>
   <g id="patch_38">
    <path clip-path="url(#p4461904c4f)" d="M 472.926316 630 
L 482.324211 630 
L 482.324211 595.485714 
L 472.926316 595.485714 
z
" style="fill:#e53935;"/>
   </g>
   <g id="patch_39">
    <path clip-path="url(#p4461904c4f)" d="M 482.324211 630 
L 491.722105 630 
L 491.722105 630 
L 482.324211 630 
z
" style="fill:#e53935;"/>
   </g>
   <g id="patch_40">
    <path clip-path="url(#p4461904c4f)" d="M 491.722105 630 
L 501.12 630 
L 501.12 630 
L 491.722105 630 
z
" style="fill:#e53935;"/>
   </g>
   <g id="patch_41">
    <path clip-path="url(#p4461904c4f)" d="M 501.12 630 
L 510.517895 630 
L 510.517895 595.485714 
L 501.12 595.485714 
z
" style="fill:#e53935;"/>
   </g>
   <g id="patch_42">
    <path clip-path="url(#p4461904c4f)" d="M 510.517895 630 
L 519.915789 630 
L 519.915789 595.485714 
L 510.517895 595.485714 
z
" style="fill:#e53935;"/>
   </g>
   <g id="patch_43">
    <path clip-path="url(#p4461904c4f)" d="M 519.915789 630 
L 529.313684 630 
L 529.313684 630 
L 519.915789 630 
z
" style="fill:#e53935;"/>
   </g>
   <g id="patch_44">
    <path clip-path="url(#p4461904c4f)" d="M 529.313684 630 
L 538.711579 630 
L 538.711579 630 
L 529.313684 630 
z
" style="fill:#e53935;"/>
   </g>
   <g id="patch_45">
    <path clip-path="url(#p4461904c4f)" d="M 538.711579 630 
L 548.109474 630 
L 548.109474 630 
L 538.711579 630 
z
" style="fill:#e53935;"/>
   </g>
   <g id="patch_46">
    <path clip-path="url(#p4461904c4f)" d="M 548.109474 630 
L 557.507368 630 
L 557.507368 630 
L 548.109474 630 
z
" style="fill:#e53935;"/>
   </g>
   <g id="patch_47">
    <path clip-path="url(#p4461904c4f)" d="M 557.507368 630 
L 566.905263 630 
L 566.905263 630 
L 557.507368 630 
z
" style="fill:#e53935;"/>
   </g>
   <g id="patch_48">
    <path clip-path="url(#p4461904c4f)" d="M 566.905263 630 
L 576.303158 630 
L 576.303158 630 
L 566.905263 630 
z
" style="fill:#e53935;"/>
   </g>
   <g id="patch_49">
    <path clip-path="url(#p4461904c4f)" d="M 576.303158 630 
L 585.701053 630 
L 585.701053 630 
L 576.303158 630 
z
" style="fill:#e53935;"/>
   </g>
   <g id="patch_50">
    <path clip-path="url(#p4461904c4f)" d="M 585.701053 630 
L 595.098947 630 
L 595.098947 595.485714 
L 585.701053 595.485714 
z
" style="fill:#e53935;"/>
   </g>
   <g id="patch_51">
    <path clip-path="url(#p4461904c4f)" d="M 595.098947 630 
L 604.496842 630 
L 604.496842 630 
L 595.098947 630 
z
" style="fill:#e53935;"/>
   </g>
   <g id="patch_52">
    <path clip-path="url(#p4461904c4f)" d="M 604.496842 630 
L 613.894737 630 
L 613.894737 630 
L 604.496842 630 
z
" style="fill:#e53935;"/>
   </g>
   <g id="patch_53">
    <path clip-path="url(#p4461904c4f)" d="M 613.894737 630 
L 623.292632 630 
L 623.292632 595.485714 
L 613.894737 595.485714 
z
" style="fill:#e53935;"/>
   </g>
   <g id="patch_54">
    <path clip-path="url(#p4461904c4f)" d="M 623.292632 630 
L 632.690526 630 
L 632.690526 595.485714 
L 623.292632 595.485714 
z
" style="fill:#e53935;"/>
   </g>
   <g id="patch_55">
    <path clip-path="url(#p4461904c4f)" d="M 632.690526 630 
L 642.088421 630 
L 642.088421 595.485714 
L 632.690526 595.485714 
z
" style="fill:#e53935;"/>
   </g>
   <g id="patch_56">
    <path clip-path="url(#p4461904c4f)" d="M 642.088421 630 
L 651.486316 630 
L 651.486316 630 
L 642.088421 630 
z
" style="fill:#e53935;"/>
   </g>
   <g id="patch_57">
    <path clip-path="url(#p4461904c4f)" d="M 651.486316 630 
L 660.884211 630 
L 660.884211 630 
L 651.486316 630 
z
" style="fill:#e53935;"/>
   </g>
   <g id="patch_58">
    <path clip-path="url(#p4461904c4f)" d="M 660.884211 630 
L 670.282105 630 
L 670.282105 595.485714 
L 660.884211 595.485714 
z
" style="fill:#e53935;"/>
   </g>
   <g id="patch_59">
    <path clip-path="url(#p4461904c4f)" d="M 670.282105 630 
L 679.68 630 
L 679.68 560.971429 
L 670.282105 560.971429 
z
" style="fill:#e53935;"/>
   </g>
   <g id="patch_60">
    <path clip-path="url(#p4461904c4f)" d="M 679.68 630 
L 689.077895 630 
L 689.077895 630 
L 679.68 630 
z
" style="fill:#e53935;"/>
   </g>
   <g id="patch_61">
    <path clip-path="url(#p4461904c4f)" d="M 689.077895 630 
L 698.475789 630 
L 698.475789 595.485714 
L 689.077895 595.485714 
z
" style="fill:#e53935;"/>
   </g>
   <g id="patch_62">
    <path clip-path="url(#p4461904c4f)" d="M 698.475789 630 
L 707.873684 630 
L 707.873684 630 
L 698.475789 630 
z
" style="fill:#e53935;"/>
   </g>
   <g id="patch_63">
    <path clip-path="url(#p4461904c4f)" d="M 707.873684 630 
L 717.271579 630 
L 717.271579 595.485714 
L 707.873684 595.485714 
z
" style="fill:#e53935;"/>
   </g>
   <g id="patch_64">
    <path clip-path="url(#p4461904c4f)" d="M 717.271579 630 
L 726.669474 630 
L 726.669474 630 
L 717.271579 630 
z
" style="fill:#e53935;"/>
   </g>
   <g id="patch_65">
    <path clip-path="url(#p4461904c4f)" d="M 726.669474 630 
L 736.067368 630 
L 736.067368 560.971429 
L 726.669474 560.971429 
z
" style="fill:#e53935;"/>
   </g>
   <g id="patch_66">
    <path clip-path="url(#p4461904c4f)" d="M 736.067368 630 
L 745.465263 630 
L 745.465263 595.485714 
L 736.067368 595.485714 
z
" style="fill:#e53935;"/>
   </g>
   <g id="patch_67">
    <path clip-path="url(#p4461904c4f)" d="M 745.465263 630 
L 754.863158 630 
L 754.863158 630 
L 745.465263 630 
z
" style="fill:#e53935;"/>
   </g>
   <g id="patch_68">
    <path clip-path="url(#p4461904c4f)" d="M 754.863158 630 
L 764.261053 630 
L 764.261053 630 
L 754.863158 630 
z
" style="fill:#e53935;"/>
   </g>
   <g id="patch_69">
    <path clip-path="url(#p4461904c4f)" d="M 764.261053 630 
L 773.658947 630 
L 773.658947 526.457143 
L 764.261053 526.457143 
z
" style="fill:#e53935;"/>
   </g>
   <g id="patch_70">
    <path clip-path="url(#p4461904c4f)" d="M 773.658947 630 
L 783.056842 630 
L 783.056842 630 
L 773.658947 630 
z
" style="fill:#e53935;"/>
   </g>
   <g id="patch_71">
    <path clip-path="url(#p4461904c4f)" d="M 783.056842 630 
L 792.454737 630 
L 792.454737 630 
L 783.056842 630 
z
" style="fill:#e53935;"/>
   </g>
   <g id="patch_72">
    <path clip-path="url(#p4461904c4f)" d="M 792.454737 630 
L 801.852632 630 
L 801.852632 595.485714 
L 792.454737 595.485714 
z
" style="fill:#e53935;"/>
   </g>
   <g id="patch_73">
    <path clip-path="url(#p4461904c4f)" d="M 801.852632 630 
L 811.250526 630 
L 811.250526 526.457143 
L 801.852632 526.457143 
z
" style="fill:#e53935;"/>
   </g>
   <g id="patch_74">
    <path clip-path="url(#p4461904c4f)" d="M 811.250526 630 
L 820.648421 630 
L 820.648421 630 
L 811.250526 630 
z
" style="fill:#e53935;"/>
   </g>
   <g id="patch_75">
    <path clip-path="url(#p4461904c4f)" d="M 820.648421 630 
L 830.046316 630 
L 830.046316 595.485714 
L 820.648421 595.485714 
z
" style="fill:#e53935;"/>
   </g>
   <g id="patch_76">
    <path clip-path="url(#p4461904c4f)" d="M 830.046316 630 
L 839.444211 630 
L 839.444211 630 
L 830.046316 630 
z
" style="fill:#e53935;"/>
   </g>
   <g id="patch_77">
    <path clip-path="url(#p4461904c4f)" d="M 839.444211 630 
L 848.842105 630 
L 848.842105 388.4 
L 839.444211 388.4 
z
" style="fill:#e53935;"/>
   </g>
   <g id="patch_78">
    <path clip-path="url(#p4461904c4f)" d="M 848.842105 630 
L 858.24 630 
L 858.24 526.457143 
L 848.842105 526.457143 
z
" style="fill:#e53935;"/>
   </g>
   <g id="patch_79">
    <path clip-path="url(#p4461904c4f)" d="M 858.24 630 
L 867.637895 630 
L 867.637895 595.485714 
L 858.24 595.485714 
z
" style="fill:#e53935;"/>
   </g>
   <g id="patch_80">
    <path clip-path="url(#p4461904c4f)" d="M 867.637895 630 
L 877.035789 630 
L 877.035789 630 
L 867.637895 630 
z
" style="fill:#e53935;"/>
   </g>
   <g id="patch_81">
    <path clip-path="url(#p4461904c4f)" d="M 877.035789 630 
L 886.433684 630 
L 886.433684 630 
L 877.035789 630 
z
" style="fill:#e53935;"/>
   </g>
   <g id="patch_82">
    <path clip-path="url(#p4461904c4f)" d="M 886.433684 630 
L 895.831579 630 
L 895.831579 630 
L 886.433684 630 
z
" style="fill:#e53935;"/>
   </g>
   <g id="patch_83">
    <path clip-path="url(#p4461904c4f)" d="M 895.831579 630 
L 905.229474 630 
L 905.229474 595.485714 
L 895.831579 595.485714 
z
" style="fill:#e53935;"/>
   </g>
   <g id="patch_84">
    <path clip-path="url(#p4461904c4f)" d="M 905.229474 630 
L 914.627368 630 
L 914.627368 595.485714 
L 905.229474 595.485714 
z
" style="fill:#e53935;"/>
   </g>
   <g id="patch_85">
    <path clip-path="url(#p4461904c4f)" d="M 914.627368 630 
L 924.025263 630 
L 924.025263 491.942857 
L 914.627368 491.942857 
z
" style="fill:#e53935;"/>
   </g>
   <g id="patch_86">
    <path clip-path="url(#p4461904c4f)" d="M 924.025263 630 
L 933.423158 630 
L 933.423158 526.457143 
L 924.025263 526.457143 
z
" style="fill:#e53935;"/>
   </g>
   <g id="patch_87">
    <path clip-path="url(#p4461904c4f)" d="M 933.423158 630 
L 942.821053 630 
L 942.821053 595.485714 
L 933.423158 595.485714 
z
" style="fill:#e53935;"/>
   </g>
   <g id="patch_88">
    <path clip-path="url(#p4461904c4f)" d="M 942.821053 630 
L 952.218947 630 
L 952.218947 319.371429 
L 942.821053 319.371429 
z
" style="fill:#e53935;"/>
   </g>
   <g id="patch_89">
    <path clip-path="url(#p4461904c4f)" d="M 952.218947 630 
L 961.616842 630 
L 961.616842 422.914286 
L 952.218947 422.914286 
z
" style="fill:#e53935;"/>
   </g>
   <g id="patch_90">
    <path clip-path="url(#p4461904c4f)" d="M 961.616842 630 
L 971.014737 630 
L 971.014737 353.885714 
L 961.616842 353.885714 
z
" style="fill:#e53935;"/>
   </g>
   <g id="patch_91">
    <path clip-path="url(#p4461904c4f)" d="M 971.014737 630 
L 980.412632 630 
L 980.412632 250.342857 
L 971.014737 250.342857 
z
" style="fill:#e53935;"/>
   </g>
   <g id="patch_92">
    <path clip-path="url(#p4461904c4f)" d="M 980.412632 630 
L 989.810526 630 
L 989.810526 457.428571 
L 980.412632 457.428571 
z
" style="fill:#e53935;"/>
   </g>
   <g id="patch_93">
    <path clip-path="url(#p4461904c4f)" d="M 989.810526 630 
L 999.208421 630 
L 999.208421 112.285714 
L 989.810526 112.285714 
z
" style="fill:#e53935;"/>
   </g>
   <g id="patch_94">
    <path clip-path="url(#p4461904c4f)" d="M 999.208421 630 
L 1008.606316 630 
L 1008.606316 595.485714 
L 999.208421 595.485714 
z
" style="fill:#e53935;"/>
   </g>
   <g id="patch_95">
    <path clip-path="url(#p4461904c4f)" d="M 1008.606316 630 
L 1018.004211 630 
L 1018.004211 630 
L 1008.606316 630 
z
" style="fill:#e53935;"/>
   </g>
   <g id="patch_96">
    <path clip-path="url(#p4461904c4f)" d="M 1018.004211 630 
L 1027.402105 630 
L 1027.402105 630 
L 1018.004211 630 
z
" style="fill:#e53935;"/>
   </g>
   <g id="patch_97">
    <path clip-path="url(#p4461904c4f)" d="M 1027.402105 630 
L 1036.8 630 
L 1036.8 630 
L 1027.402105 630 
z
" style="fill:#e53935;"/>
   </g>
   <g id="matplotlib.axis_1">
    <g id="xtick_1">
     <g id="line2d_1">
      <defs>
       <path d="M 0 0 
L 0 3.5 
" id="ma68445c3ec" style="stroke:#000000;stroke-width:0.8;"/>
      </defs>
      <g>
       <use style="stroke:#000000;stroke-width:0.8;" x="144" xlink:href="#ma68445c3ec" y="630"/>
      </g>
     </g>
     <g id="text_1">
      <!-- 0 -->
      <defs>
       <path d="M 31.78125 66.40625 
Q 24.171875 66.40625 20.328125 58.90625 
Q 16.5 51.421875 16.5 36.375 
Q 16.5 21.390625 20.328125 13.890625 
Q 24.171875 6.390625 31.78125 6.390625 
Q 39.453125 6.390625 43.28125 13.890625 
Q 47.125 21.390625 47.125 36.375 
Q 47.125 51.421875 43.28125 58.90625 
Q 39.453125 66.40625 31.78125 66.40625 
z
M 31.78125 74.21875 
Q 44.046875 74.21875 50.515625 64.515625 
Q 56.984375 54.828125 56.984375 36.375 
Q 56.984375 17.96875 50.515625 8.265625 
Q 44.046875 -1.421875 31.78125 -1.421875 
Q 19.53125 -1.421875 13.0625 8.265625 
Q 6.59375 17.96875 6.59375 36.375 
Q 6.59375 54.828125 13.0625 64.515625 
Q 19.53125 74.21875 31.78125 74.21875 
z
" id="DejaVuSans-30"/>
      </defs>
      <g transform="translate(137.6375 652.196875)scale(0.2 -0.2)">
       <use xlink:href="#DejaVuSans-30"/>
      </g>
     </g>
    </g>
    <g id="xtick_2">
     <g id="line2d_2">
      <g>
       <use style="stroke:#000000;stroke-width:0.8;" x="237.978947" xlink:href="#ma68445c3ec" y="630"/>
      </g>
     </g>
     <g id="text_2">
      <!-- 100 -->
      <defs>
       <path d="M 12.40625 8.296875 
L 28.515625 8.296875 
L 28.515625 63.921875 
L 10.984375 60.40625 
L 10.984375 69.390625 
L 28.421875 72.90625 
L 38.28125 72.90625 
L 38.28125 8.296875 
L 54.390625 8.296875 
L 54.390625 0 
L 12.40625 0 
z
" id="DejaVuSans-31"/>
      </defs>
      <g transform="translate(218.891447 652.196875)scale(0.2 -0.2)">
       <use xlink:href="#DejaVuSans-31"/>
       <use x="63.623047" xlink:href="#DejaVuSans-30"/>
       <use x="127.246094" xlink:href="#DejaVuSans-30"/>
      </g>
     </g>
    </g>
    <g id="xtick_3">
     <g id="line2d_3">
      <g>
       <use style="stroke:#000000;stroke-width:0.8;" x="331.957895" xlink:href="#ma68445c3ec" y="630"/>
      </g>
     </g>
     <g id="text_3">
      <!-- 200 -->
      <defs>
       <path d="M 19.1875 8.296875 
L 53.609375 8.296875 
L 53.609375 0 
L 7.328125 0 
L 7.328125 8.296875 
Q 12.9375 14.109375 22.625 23.890625 
Q 32.328125 33.6875 34.8125 36.53125 
Q 39.546875 41.84375 41.421875 45.53125 
Q 43.3125 49.21875 43.3125 52.78125 
Q 43.3125 58.59375 39.234375 62.25 
Q 35.15625 65.921875 28.609375 65.921875 
Q 23.96875 65.921875 18.8125 64.3125 
Q 13.671875 62.703125 7.8125 59.421875 
L 7.8125 69.390625 
Q 13.765625 71.78125 18.9375 73 
Q 24.125 74.21875 28.421875 74.21875 
Q 39.75 74.21875 46.484375 68.546875 
Q 53.21875 62.890625 53.21875 53.421875 
Q 53.21875 48.921875 51.53125 44.890625 
Q 49.859375 40.875 45.40625 35.40625 
Q 44.1875 33.984375 37.640625 27.21875 
Q 31.109375 20.453125 19.1875 8.296875 
z
" id="DejaVuSans-32"/>
      </defs>
      <g transform="translate(312.870395 652.196875)scale(0.2 -0.2)">
       <use xlink:href="#DejaVuSans-32"/>
       <use x="63.623047" xlink:href="#DejaVuSans-30"/>
       <use x="127.246094" xlink:href="#DejaVuSans-30"/>
      </g>
     </g>
    </g>
    <g id="xtick_4">
     <g id="line2d_4">
      <g>
       <use style="stroke:#000000;stroke-width:0.8;" x="425.936842" xlink:href="#ma68445c3ec" y="630"/>
      </g>
     </g>
     <g id="text_4">
      <!-- 300 -->
      <defs>
       <path d="M 40.578125 39.3125 
Q 47.65625 37.796875 51.625 33 
Q 55.609375 28.21875 55.609375 21.1875 
Q 55.609375 10.40625 48.1875 4.484375 
Q 40.765625 -1.421875 27.09375 -1.421875 
Q 22.515625 -1.421875 17.65625 -0.515625 
Q 12.796875 0.390625 7.625 2.203125 
L 7.625 11.71875 
Q 11.71875 9.328125 16.59375 8.109375 
Q 21.484375 6.890625 26.8125 6.890625 
Q 36.078125 6.890625 40.9375 10.546875 
Q 45.796875 14.203125 45.796875 21.1875 
Q 45.796875 27.640625 41.28125 31.265625 
Q 36.765625 34.90625 28.71875 34.90625 
L 20.21875 34.90625 
L 20.21875 43.015625 
L 29.109375 43.015625 
Q 36.375 43.015625 40.234375 45.921875 
Q 44.09375 48.828125 44.09375 54.296875 
Q 44.09375 59.90625 40.109375 62.90625 
Q 36.140625 65.921875 28.71875 65.921875 
Q 24.65625 65.921875 20.015625 65.03125 
Q 15.375 64.15625 9.8125 62.3125 
L 9.8125 71.09375 
Q 15.4375 72.65625 20.34375 73.4375 
Q 25.25 74.21875 29.59375 74.21875 
Q 40.828125 74.21875 47.359375 69.109375 
Q 53.90625 64.015625 53.90625 55.328125 
Q 53.90625 49.265625 50.4375 45.09375 
Q 46.96875 40.921875 40.578125 39.3125 
z
" id="DejaVuSans-33"/>
      </defs>
      <g transform="translate(406.849342 652.196875)scale(0.2 -0.2)">
       <use xlink:href="#DejaVuSans-33"/>
       <use x="63.623047" xlink:href="#DejaVuSans-30"/>
       <use x="127.246094" xlink:href="#DejaVuSans-30"/>
      </g>
     </g>
    </g>
    <g id="xtick_5">
     <g id="line2d_5">
      <g>
       <use style="stroke:#000000;stroke-width:0.8;" x="519.915789" xlink:href="#ma68445c3ec" y="630"/>
      </g>
     </g>
     <g id="text_5">
      <!-- 400 -->
      <defs>
       <path d="M 37.796875 64.3125 
L 12.890625 25.390625 
L 37.796875 25.390625 
z
M 35.203125 72.90625 
L 47.609375 72.90625 
L 47.609375 25.390625 
L 58.015625 25.390625 
L 58.015625 17.1875 
L 47.609375 17.1875 
L 47.609375 0 
L 37.796875 0 
L 37.796875 17.1875 
L 4.890625 17.1875 
L 4.890625 26.703125 
z
" id="DejaVuSans-34"/>
      </defs>
      <g transform="translate(500.828289 652.196875)scale(0.2 -0.2)">
       <use xlink:href="#DejaVuSans-34"/>
       <use x="63.623047" xlink:href="#DejaVuSans-30"/>
       <use x="127.246094" xlink:href="#DejaVuSans-30"/>
      </g>
     </g>
    </g>
    <g id="xtick_6">
     <g id="line2d_6">
      <g>
       <use style="stroke:#000000;stroke-width:0.8;" x="613.894737" xlink:href="#ma68445c3ec" y="630"/>
      </g>
     </g>
     <g id="text_6">
      <!-- 500 -->
      <defs>
       <path d="M 10.796875 72.90625 
L 49.515625 72.90625 
L 49.515625 64.59375 
L 19.828125 64.59375 
L 19.828125 46.734375 
Q 21.96875 47.46875 24.109375 47.828125 
Q 26.265625 48.1875 28.421875 48.1875 
Q 40.625 48.1875 47.75 41.5 
Q 54.890625 34.8125 54.890625 23.390625 
Q 54.890625 11.625 47.5625 5.09375 
Q 40.234375 -1.421875 26.90625 -1.421875 
Q 22.3125 -1.421875 17.546875 -0.640625 
Q 12.796875 0.140625 7.71875 1.703125 
L 7.71875 11.625 
Q 12.109375 9.234375 16.796875 8.0625 
Q 21.484375 6.890625 26.703125 6.890625 
Q 35.15625 6.890625 40.078125 11.328125 
Q 45.015625 15.765625 45.015625 23.390625 
Q 45.015625 31 40.078125 35.4375 
Q 35.15625 39.890625 26.703125 39.890625 
Q 22.75 39.890625 18.8125 39.015625 
Q 14.890625 38.140625 10.796875 36.28125 
z
" id="DejaVuSans-35"/>
      </defs>
      <g transform="translate(594.807237 652.196875)scale(0.2 -0.2)">
       <use xlink:href="#DejaVuSans-35"/>
       <use x="63.623047" xlink:href="#DejaVuSans-30"/>
       <use x="127.246094" xlink:href="#DejaVuSans-30"/>
      </g>
     </g>
    </g>
    <g id="xtick_7">
     <g id="line2d_7">
      <g>
       <use style="stroke:#000000;stroke-width:0.8;" x="707.873684" xlink:href="#ma68445c3ec" y="630"/>
      </g>
     </g>
     <g id="text_7">
      <!-- 600 -->
      <defs>
       <path d="M 33.015625 40.375 
Q 26.375 40.375 22.484375 35.828125 
Q 18.609375 31.296875 18.609375 23.390625 
Q 18.609375 15.53125 22.484375 10.953125 
Q 26.375 6.390625 33.015625 6.390625 
Q 39.65625 6.390625 43.53125 10.953125 
Q 47.40625 15.53125 47.40625 23.390625 
Q 47.40625 31.296875 43.53125 35.828125 
Q 39.65625 40.375 33.015625 40.375 
z
M 52.59375 71.296875 
L 52.59375 62.3125 
Q 48.875 64.0625 45.09375 64.984375 
Q 41.3125 65.921875 37.59375 65.921875 
Q 27.828125 65.921875 22.671875 59.328125 
Q 17.53125 52.734375 16.796875 39.40625 
Q 19.671875 43.65625 24.015625 45.921875 
Q 28.375 48.1875 33.59375 48.1875 
Q 44.578125 48.1875 50.953125 41.515625 
Q 57.328125 34.859375 57.328125 23.390625 
Q 57.328125 12.15625 50.6875 5.359375 
Q 44.046875 -1.421875 33.015625 -1.421875 
Q 20.359375 -1.421875 13.671875 8.265625 
Q 6.984375 17.96875 6.984375 36.375 
Q 6.984375 53.65625 15.1875 63.9375 
Q 23.390625 74.21875 37.203125 74.21875 
Q 40.921875 74.21875 44.703125 73.484375 
Q 48.484375 72.75 52.59375 71.296875 
z
" id="DejaVuSans-36"/>
      </defs>
      <g transform="translate(688.786184 652.196875)scale(0.2 -0.2)">
       <use xlink:href="#DejaVuSans-36"/>
       <use x="63.623047" xlink:href="#DejaVuSans-30"/>
       <use x="127.246094" xlink:href="#DejaVuSans-30"/>
      </g>
     </g>
    </g>
    <g id="xtick_8">
     <g id="line2d_8">
      <g>
       <use style="stroke:#000000;stroke-width:0.8;" x="801.852632" xlink:href="#ma68445c3ec" y="630"/>
      </g>
     </g>
     <g id="text_8">
      <!-- 700 -->
      <defs>
       <path d="M 8.203125 72.90625 
L 55.078125 72.90625 
L 55.078125 68.703125 
L 28.609375 0 
L 18.3125 0 
L 43.21875 64.59375 
L 8.203125 64.59375 
z
" id="DejaVuSans-37"/>
      </defs>
      <g transform="translate(782.765132 652.196875)scale(0.2 -0.2)">
       <use xlink:href="#DejaVuSans-37"/>
       <use x="63.623047" xlink:href="#DejaVuSans-30"/>
       <use x="127.246094" xlink:href="#DejaVuSans-30"/>
      </g>
     </g>
    </g>
    <g id="xtick_9">
     <g id="line2d_9">
      <g>
       <use style="stroke:#000000;stroke-width:0.8;" x="895.831579" xlink:href="#ma68445c3ec" y="630"/>
      </g>
     </g>
     <g id="text_9">
      <!-- 800 -->
      <defs>
       <path d="M 31.78125 34.625 
Q 24.75 34.625 20.71875 30.859375 
Q 16.703125 27.09375 16.703125 20.515625 
Q 16.703125 13.921875 20.71875 10.15625 
Q 24.75 6.390625 31.78125 6.390625 
Q 38.8125 6.390625 42.859375 10.171875 
Q 46.921875 13.96875 46.921875 20.515625 
Q 46.921875 27.09375 42.890625 30.859375 
Q 38.875 34.625 31.78125 34.625 
z
M 21.921875 38.8125 
Q 15.578125 40.375 12.03125 44.71875 
Q 8.5 49.078125 8.5 55.328125 
Q 8.5 64.0625 14.71875 69.140625 
Q 20.953125 74.21875 31.78125 74.21875 
Q 42.671875 74.21875 48.875 69.140625 
Q 55.078125 64.0625 55.078125 55.328125 
Q 55.078125 49.078125 51.53125 44.71875 
Q 48 40.375 41.703125 38.8125 
Q 48.828125 37.15625 52.796875 32.3125 
Q 56.78125 27.484375 56.78125 20.515625 
Q 56.78125 9.90625 50.3125 4.234375 
Q 43.84375 -1.421875 31.78125 -1.421875 
Q 19.734375 -1.421875 13.25 4.234375 
Q 6.78125 9.90625 6.78125 20.515625 
Q 6.78125 27.484375 10.78125 32.3125 
Q 14.796875 37.15625 21.921875 38.8125 
z
M 18.3125 54.390625 
Q 18.3125 48.734375 21.84375 45.5625 
Q 25.390625 42.390625 31.78125 42.390625 
Q 38.140625 42.390625 41.71875 45.5625 
Q 45.3125 48.734375 45.3125 54.390625 
Q 45.3125 60.0625 41.71875 63.234375 
Q 38.140625 66.40625 31.78125 66.40625 
Q 25.390625 66.40625 21.84375 63.234375 
Q 18.3125 60.0625 18.3125 54.390625 
z
" id="DejaVuSans-38"/>
      </defs>
      <g transform="translate(876.744079 652.196875)scale(0.2 -0.2)">
       <use xlink:href="#DejaVuSans-38"/>
       <use x="63.623047" xlink:href="#DejaVuSans-30"/>
       <use x="127.246094" xlink:href="#DejaVuSans-30"/>
      </g>
     </g>
    </g>
    <g id="xtick_10">
     <g id="line2d_10">
      <g>
       <use style="stroke:#000000;stroke-width:0.8;" x="989.810526" xlink:href="#ma68445c3ec" y="630"/>
      </g>
     </g>
     <g id="text_10">
      <!-- 900 -->
      <defs>
       <path d="M 10.984375 1.515625 
L 10.984375 10.5 
Q 14.703125 8.734375 18.5 7.8125 
Q 22.3125 6.890625 25.984375 6.890625 
Q 35.75 6.890625 40.890625 13.453125 
Q 46.046875 20.015625 46.78125 33.40625 
Q 43.953125 29.203125 39.59375 26.953125 
Q 35.25 24.703125 29.984375 24.703125 
Q 19.046875 24.703125 12.671875 31.3125 
Q 6.296875 37.9375 6.296875 49.421875 
Q 6.296875 60.640625 12.9375 67.421875 
Q 19.578125 74.21875 30.609375 74.21875 
Q 43.265625 74.21875 49.921875 64.515625 
Q 56.59375 54.828125 56.59375 36.375 
Q 56.59375 19.140625 48.40625 8.859375 
Q 40.234375 -1.421875 26.421875 -1.421875 
Q 22.703125 -1.421875 18.890625 -0.6875 
Q 15.09375 0.046875 10.984375 1.515625 
z
M 30.609375 32.421875 
Q 37.25 32.421875 41.125 36.953125 
Q 45.015625 41.5 45.015625 49.421875 
Q 45.015625 57.28125 41.125 61.84375 
Q 37.25 66.40625 30.609375 66.40625 
Q 23.96875 66.40625 20.09375 61.84375 
Q 16.21875 57.28125 16.21875 49.421875 
Q 16.21875 41.5 20.09375 36.953125 
Q 23.96875 32.421875 30.609375 32.421875 
z
" id="DejaVuSans-39"/>
      </defs>
      <g transform="translate(970.723026 652.196875)scale(0.2 -0.2)">
       <use xlink:href="#DejaVuSans-39"/>
       <use x="63.623047" xlink:href="#DejaVuSans-30"/>
       <use x="127.246094" xlink:href="#DejaVuSans-30"/>
      </g>
     </g>
    </g>
    <g id="text_11">
     <!-- Cumulative Reward -->
     <defs>
      <path d="M 64.40625 67.28125 
L 64.40625 56.890625 
Q 59.421875 61.53125 53.78125 63.8125 
Q 48.140625 66.109375 41.796875 66.109375 
Q 29.296875 66.109375 22.65625 58.46875 
Q 16.015625 50.828125 16.015625 36.375 
Q 16.015625 21.96875 22.65625 14.328125 
Q 29.296875 6.6875 41.796875 6.6875 
Q 48.140625 6.6875 53.78125 8.984375 
Q 59.421875 11.28125 64.40625 15.921875 
L 64.40625 5.609375 
Q 59.234375 2.09375 53.4375 0.328125 
Q 47.65625 -1.421875 41.21875 -1.421875 
Q 24.65625 -1.421875 15.125 8.703125 
Q 5.609375 18.84375 5.609375 36.375 
Q 5.609375 53.953125 15.125 64.078125 
Q 24.65625 74.21875 41.21875 74.21875 
Q 47.75 74.21875 53.53125 72.484375 
Q 59.328125 70.75 64.40625 67.28125 
z
" id="DejaVuSans-43"/>
      <path d="M 8.5 21.578125 
L 8.5 54.6875 
L 17.484375 54.6875 
L 17.484375 21.921875 
Q 17.484375 14.15625 20.5 10.265625 
Q 23.53125 6.390625 29.59375 6.390625 
Q 36.859375 6.390625 41.078125 11.03125 
Q 45.3125 15.671875 45.3125 23.6875 
L 45.3125 54.6875 
L 54.296875 54.6875 
L 54.296875 0 
L 45.3125 0 
L 45.3125 8.40625 
Q 42.046875 3.421875 37.71875 1 
Q 33.40625 -1.421875 27.6875 -1.421875 
Q 18.265625 -1.421875 13.375 4.4375 
Q 8.5 10.296875 8.5 21.578125 
z
M 31.109375 56 
z
" id="DejaVuSans-75"/>
      <path d="M 52 44.1875 
Q 55.375 50.25 60.0625 53.125 
Q 64.75 56 71.09375 56 
Q 79.640625 56 84.28125 50.015625 
Q 88.921875 44.046875 88.921875 33.015625 
L 88.921875 0 
L 79.890625 0 
L 79.890625 32.71875 
Q 79.890625 40.578125 77.09375 44.375 
Q 74.3125 48.1875 68.609375 48.1875 
Q 61.625 48.1875 57.5625 43.546875 
Q 53.515625 38.921875 53.515625 30.90625 
L 53.515625 0 
L 44.484375 0 
L 44.484375 32.71875 
Q 44.484375 40.625 41.703125 44.40625 
Q 38.921875 48.1875 33.109375 48.1875 
Q 26.21875 48.1875 22.15625 43.53125 
Q 18.109375 38.875 18.109375 30.90625 
L 18.109375 0 
L 9.078125 0 
L 9.078125 54.6875 
L 18.109375 54.6875 
L 18.109375 46.1875 
Q 21.1875 51.21875 25.484375 53.609375 
Q 29.78125 56 35.6875 56 
Q 41.65625 56 45.828125 52.96875 
Q 50 49.953125 52 44.1875 
z
" id="DejaVuSans-6d"/>
      <path d="M 9.421875 75.984375 
L 18.40625 75.984375 
L 18.40625 0 
L 9.421875 0 
z
" id="DejaVuSans-6c"/>
      <path d="M 34.28125 27.484375 
Q 23.390625 27.484375 19.1875 25 
Q 14.984375 22.515625 14.984375 16.5 
Q 14.984375 11.71875 18.140625 8.90625 
Q 21.296875 6.109375 26.703125 6.109375 
Q 34.1875 6.109375 38.703125 11.40625 
Q 43.21875 16.703125 43.21875 25.484375 
L 43.21875 27.484375 
z
M 52.203125 31.203125 
L 52.203125 0 
L 43.21875 0 
L 43.21875 8.296875 
Q 40.140625 3.328125 35.546875 0.953125 
Q 30.953125 -1.421875 24.3125 -1.421875 
Q 15.921875 -1.421875 10.953125 3.296875 
Q 6 8.015625 6 15.921875 
Q 6 25.140625 12.171875 29.828125 
Q 18.359375 34.515625 30.609375 34.515625 
L 43.21875 34.515625 
L 43.21875 35.40625 
Q 43.21875 41.609375 39.140625 45 
Q 35.0625 48.390625 27.6875 48.390625 
Q 23 48.390625 18.546875 47.265625 
Q 14.109375 46.140625 10.015625 43.890625 
L 10.015625 52.203125 
Q 14.9375 54.109375 19.578125 55.046875 
Q 24.21875 56 28.609375 56 
Q 40.484375 56 46.34375 49.84375 
Q 52.203125 43.703125 52.203125 31.203125 
z
" id="DejaVuSans-61"/>
      <path d="M 18.3125 70.21875 
L 18.3125 54.6875 
L 36.8125 54.6875 
L 36.8125 47.703125 
L 18.3125 47.703125 
L 18.3125 18.015625 
Q 18.3125 11.328125 20.140625 9.421875 
Q 21.96875 7.515625 27.59375 7.515625 
L 36.8125 7.515625 
L 36.8125 0 
L 27.59375 0 
Q 17.1875 0 13.234375 3.875 
Q 9.28125 7.765625 9.28125 18.015625 
L 9.28125 47.703125 
L 2.6875 47.703125 
L 2.6875 54.6875 
L 9.28125 54.6875 
L 9.28125 70.21875 
z
" id="DejaVuSans-74"/>
      <path d="M 9.421875 54.6875 
L 18.40625 54.6875 
L 18.40625 0 
L 9.421875 0 
z
M 9.421875 75.984375 
L 18.40625 75.984375 
L 18.40625 64.59375 
L 9.421875 64.59375 
z
" id="DejaVuSans-69"/>
      <path d="M 2.984375 54.6875 
L 12.5 54.6875 
L 29.59375 8.796875 
L 46.6875 54.6875 
L 56.203125 54.6875 
L 35.6875 0 
L 23.484375 0 
z
" id="DejaVuSans-76"/>
      <path d="M 56.203125 29.59375 
L 56.203125 25.203125 
L 14.890625 25.203125 
Q 15.484375 15.921875 20.484375 11.0625 
Q 25.484375 6.203125 34.421875 6.203125 
Q 39.59375 6.203125 44.453125 7.46875 
Q 49.3125 8.734375 54.109375 11.28125 
L 54.109375 2.78125 
Q 49.265625 0.734375 44.1875 -0.34375 
Q 39.109375 -1.421875 33.890625 -1.421875 
Q 20.796875 -1.421875 13.15625 6.1875 
Q 5.515625 13.8125 5.515625 26.8125 
Q 5.515625 40.234375 12.765625 48.109375 
Q 20.015625 56 32.328125 56 
Q 43.359375 56 49.78125 48.890625 
Q 56.203125 41.796875 56.203125 29.59375 
z
M 47.21875 32.234375 
Q 47.125 39.59375 43.09375 43.984375 
Q 39.0625 48.390625 32.421875 48.390625 
Q 24.90625 48.390625 20.390625 44.140625 
Q 15.875 39.890625 15.1875 32.171875 
z
" id="DejaVuSans-65"/>
      <path id="DejaVuSans-20"/>
      <path d="M 44.390625 34.1875 
Q 47.5625 33.109375 50.5625 29.59375 
Q 53.5625 26.078125 56.59375 19.921875 
L 66.609375 0 
L 56 0 
L 46.6875 18.703125 
Q 43.0625 26.03125 39.671875 28.421875 
Q 36.28125 30.8125 30.421875 30.8125 
L 19.671875 30.8125 
L 19.671875 0 
L 9.8125 0 
L 9.8125 72.90625 
L 32.078125 72.90625 
Q 44.578125 72.90625 50.734375 67.671875 
Q 56.890625 62.453125 56.890625 51.90625 
Q 56.890625 45.015625 53.6875 40.46875 
Q 50.484375 35.9375 44.390625 34.1875 
z
M 19.671875 64.796875 
L 19.671875 38.921875 
L 32.078125 38.921875 
Q 39.203125 38.921875 42.84375 42.21875 
Q 46.484375 45.515625 46.484375 51.90625 
Q 46.484375 58.296875 42.84375 61.546875 
Q 39.203125 64.796875 32.078125 64.796875 
z
" id="DejaVuSans-52"/>
      <path d="M 4.203125 54.6875 
L 13.1875 54.6875 
L 24.421875 12.015625 
L 35.59375 54.6875 
L 46.1875 54.6875 
L 57.421875 12.015625 
L 68.609375 54.6875 
L 77.59375 54.6875 
L 63.28125 0 
L 52.6875 0 
L 40.921875 44.828125 
L 29.109375 0 
L 18.5 0 
z
" id="DejaVuSans-77"/>
      <path d="M 41.109375 46.296875 
Q 39.59375 47.171875 37.8125 47.578125 
Q 36.03125 48 33.890625 48 
Q 26.265625 48 22.1875 43.046875 
Q 18.109375 38.09375 18.109375 28.8125 
L 18.109375 0 
L 9.078125 0 
L 9.078125 54.6875 
L 18.109375 54.6875 
L 18.109375 46.1875 
Q 20.953125 51.171875 25.484375 53.578125 
Q 30.03125 56 36.53125 56 
Q 37.453125 56 38.578125 55.875 
Q 39.703125 55.765625 41.0625 55.515625 
z
" id="DejaVuSans-72"/>
      <path d="M 45.40625 46.390625 
L 45.40625 75.984375 
L 54.390625 75.984375 
L 54.390625 0 
L 45.40625 0 
L 45.40625 8.203125 
Q 42.578125 3.328125 38.25 0.953125 
Q 33.9375 -1.421875 27.875 -1.421875 
Q 17.96875 -1.421875 11.734375 6.484375 
Q 5.515625 14.40625 5.515625 27.296875 
Q 5.515625 40.1875 11.734375 48.09375 
Q 17.96875 56 27.875 56 
Q 33.9375 56 38.25 53.625 
Q 42.578125 51.265625 45.40625 46.390625 
z
M 14.796875 27.296875 
Q 14.796875 17.390625 18.875 11.75 
Q 22.953125 6.109375 30.078125 6.109375 
Q 37.203125 6.109375 41.296875 11.75 
Q 45.40625 17.390625 45.40625 27.296875 
Q 45.40625 37.203125 41.296875 42.84375 
Q 37.203125 48.484375 30.078125 48.484375 
Q 22.953125 48.484375 18.875 42.84375 
Q 14.796875 37.203125 14.796875 27.296875 
z
" id="DejaVuSans-64"/>
     </defs>
     <g transform="translate(492.2875 675.553125)scale(0.2 -0.2)">
      <use xlink:href="#DejaVuSans-43"/>
      <use x="69.824219" xlink:href="#DejaVuSans-75"/>
      <use x="133.203125" xlink:href="#DejaVuSans-6d"/>
      <use x="230.615234" xlink:href="#DejaVuSans-75"/>
      <use x="293.994141" xlink:href="#DejaVuSans-6c"/>
      <use x="321.777344" xlink:href="#DejaVuSans-61"/>
      <use x="383.056641" xlink:href="#DejaVuSans-74"/>
      <use x="422.265625" xlink:href="#DejaVuSans-69"/>
      <use x="450.048828" xlink:href="#DejaVuSans-76"/>
      <use x="509.228516" xlink:href="#DejaVuSans-65"/>
      <use x="570.751953" xlink:href="#DejaVuSans-20"/>
      <use x="602.539062" xlink:href="#DejaVuSans-52"/>
      <use x="671.958984" xlink:href="#DejaVuSans-65"/>
      <use x="733.482422" xlink:href="#DejaVuSans-77"/>
      <use x="815.269531" xlink:href="#DejaVuSans-61"/>
      <use x="876.548828" xlink:href="#DejaVuSans-72"/>
      <use x="917.646484" xlink:href="#DejaVuSans-64"/>
     </g>
    </g>
   </g>
   <g id="matplotlib.axis_2">
    <g id="ytick_1">
     <g id="line2d_11">
      <defs>
       <path d="M 0 0 
L -3.5 0 
" id="m184b5557ff" style="stroke:#000000;stroke-width:0.8;"/>
      </defs>
      <g>
       <use style="stroke:#000000;stroke-width:0.8;" x="144" xlink:href="#m184b5557ff" y="630"/>
      </g>
     </g>
     <g id="text_12">
      <!-- 0 -->
      <g transform="translate(124.275 637.598438)scale(0.2 -0.2)">
       <use xlink:href="#DejaVuSans-30"/>
      </g>
     </g>
    </g>
    <g id="ytick_2">
     <g id="line2d_12">
      <g>
       <use style="stroke:#000000;stroke-width:0.8;" x="144" xlink:href="#m184b5557ff" y="560.971429"/>
      </g>
     </g>
     <g id="text_13">
      <!-- 2 -->
      <g transform="translate(124.275 568.569866)scale(0.2 -0.2)">
       <use xlink:href="#DejaVuSans-32"/>
      </g>
     </g>
    </g>
    <g id="ytick_3">
     <g id="line2d_13">
      <g>
       <use style="stroke:#000000;stroke-width:0.8;" x="144" xlink:href="#m184b5557ff" y="491.942857"/>
      </g>
     </g>
     <g id="text_14">
      <!-- 4 -->
      <g transform="translate(124.275 499.541295)scale(0.2 -0.2)">
       <use xlink:href="#DejaVuSans-34"/>
      </g>
     </g>
    </g>
    <g id="ytick_4">
     <g id="line2d_14">
      <g>
       <use style="stroke:#000000;stroke-width:0.8;" x="144" xlink:href="#m184b5557ff" y="422.914286"/>
      </g>
     </g>
     <g id="text_15">
      <!-- 6 -->
      <g transform="translate(124.275 430.512723)scale(0.2 -0.2)">
       <use xlink:href="#DejaVuSans-36"/>
      </g>
     </g>
    </g>
    <g id="ytick_5">
     <g id="line2d_15">
      <g>
       <use style="stroke:#000000;stroke-width:0.8;" x="144" xlink:href="#m184b5557ff" y="353.885714"/>
      </g>
     </g>
     <g id="text_16">
      <!-- 8 -->
      <g transform="translate(124.275 361.484152)scale(0.2 -0.2)">
       <use xlink:href="#DejaVuSans-38"/>
      </g>
     </g>
    </g>
    <g id="ytick_6">
     <g id="line2d_16">
      <g>
       <use style="stroke:#000000;stroke-width:0.8;" x="144" xlink:href="#m184b5557ff" y="284.857143"/>
      </g>
     </g>
     <g id="text_17">
      <!-- 10 -->
      <g transform="translate(111.55 292.45558)scale(0.2 -0.2)">
       <use xlink:href="#DejaVuSans-31"/>
       <use x="63.623047" xlink:href="#DejaVuSans-30"/>
      </g>
     </g>
    </g>
    <g id="ytick_7">
     <g id="line2d_17">
      <g>
       <use style="stroke:#000000;stroke-width:0.8;" x="144" xlink:href="#m184b5557ff" y="215.828571"/>
      </g>
     </g>
     <g id="text_18">
      <!-- 12 -->
      <g transform="translate(111.55 223.427009)scale(0.2 -0.2)">
       <use xlink:href="#DejaVuSans-31"/>
       <use x="63.623047" xlink:href="#DejaVuSans-32"/>
      </g>
     </g>
    </g>
    <g id="ytick_8">
     <g id="line2d_18">
      <g>
       <use style="stroke:#000000;stroke-width:0.8;" x="144" xlink:href="#m184b5557ff" y="146.8"/>
      </g>
     </g>
     <g id="text_19">
      <!-- 14 -->
      <g transform="translate(111.55 154.398438)scale(0.2 -0.2)">
       <use xlink:href="#DejaVuSans-31"/>
       <use x="63.623047" xlink:href="#DejaVuSans-34"/>
      </g>
     </g>
    </g>
    <g id="text_20">
     <!-- Frequency -->
     <defs>
      <path d="M 9.8125 72.90625 
L 51.703125 72.90625 
L 51.703125 64.59375 
L 19.671875 64.59375 
L 19.671875 43.109375 
L 48.578125 43.109375 
L 48.578125 34.8125 
L 19.671875 34.8125 
L 19.671875 0 
L 9.8125 0 
z
" id="DejaVuSans-46"/>
      <path d="M 14.796875 27.296875 
Q 14.796875 17.390625 18.875 11.75 
Q 22.953125 6.109375 30.078125 6.109375 
Q 37.203125 6.109375 41.296875 11.75 
Q 45.40625 17.390625 45.40625 27.296875 
Q 45.40625 37.203125 41.296875 42.84375 
Q 37.203125 48.484375 30.078125 48.484375 
Q 22.953125 48.484375 18.875 42.84375 
Q 14.796875 37.203125 14.796875 27.296875 
z
M 45.40625 8.203125 
Q 42.578125 3.328125 38.25 0.953125 
Q 33.9375 -1.421875 27.875 -1.421875 
Q 17.96875 -1.421875 11.734375 6.484375 
Q 5.515625 14.40625 5.515625 27.296875 
Q 5.515625 40.1875 11.734375 48.09375 
Q 17.96875 56 27.875 56 
Q 33.9375 56 38.25 53.625 
Q 42.578125 51.265625 45.40625 46.390625 
L 45.40625 54.6875 
L 54.390625 54.6875 
L 54.390625 -20.796875 
L 45.40625 -20.796875 
z
" id="DejaVuSans-71"/>
      <path d="M 54.890625 33.015625 
L 54.890625 0 
L 45.90625 0 
L 45.90625 32.71875 
Q 45.90625 40.484375 42.875 44.328125 
Q 39.84375 48.1875 33.796875 48.1875 
Q 26.515625 48.1875 22.3125 43.546875 
Q 18.109375 38.921875 18.109375 30.90625 
L 18.109375 0 
L 9.078125 0 
L 9.078125 54.6875 
L 18.109375 54.6875 
L 18.109375 46.1875 
Q 21.34375 51.125 25.703125 53.5625 
Q 30.078125 56 35.796875 56 
Q 45.21875 56 50.046875 50.171875 
Q 54.890625 44.34375 54.890625 33.015625 
z
" id="DejaVuSans-6e"/>
      <path d="M 48.78125 52.59375 
L 48.78125 44.1875 
Q 44.96875 46.296875 41.140625 47.34375 
Q 37.3125 48.390625 33.40625 48.390625 
Q 24.65625 48.390625 19.8125 42.84375 
Q 14.984375 37.3125 14.984375 27.296875 
Q 14.984375 17.28125 19.8125 11.734375 
Q 24.65625 6.203125 33.40625 6.203125 
Q 37.3125 6.203125 41.140625 7.25 
Q 44.96875 8.296875 48.78125 10.40625 
L 48.78125 2.09375 
Q 45.015625 0.34375 40.984375 -0.53125 
Q 36.96875 -1.421875 32.421875 -1.421875 
Q 20.0625 -1.421875 12.78125 6.34375 
Q 5.515625 14.109375 5.515625 27.296875 
Q 5.515625 40.671875 12.859375 48.328125 
Q 20.21875 56 33.015625 56 
Q 37.15625 56 41.109375 55.140625 
Q 45.0625 54.296875 48.78125 52.59375 
z
" id="DejaVuSans-63"/>
      <path d="M 32.171875 -5.078125 
Q 28.375 -14.84375 24.75 -17.8125 
Q 21.140625 -20.796875 15.09375 -20.796875 
L 7.90625 -20.796875 
L 7.90625 -13.28125 
L 13.1875 -13.28125 
Q 16.890625 -13.28125 18.9375 -11.515625 
Q 21 -9.765625 23.484375 -3.21875 
L 25.09375 0.875 
L 2.984375 54.6875 
L 12.5 54.6875 
L 29.59375 11.921875 
L 46.6875 54.6875 
L 56.203125 54.6875 
z
" id="DejaVuSans-79"/>
     </defs>
     <g transform="translate(103.390625 410.795313)rotate(-90)scale(0.2 -0.2)">
      <use xlink:href="#DejaVuSans-46"/>
      <use x="57.410156" xlink:href="#DejaVuSans-72"/>
      <use x="98.492188" xlink:href="#DejaVuSans-65"/>
      <use x="160.015625" xlink:href="#DejaVuSans-71"/>
      <use x="223.492188" xlink:href="#DejaVuSans-75"/>
      <use x="286.871094" xlink:href="#DejaVuSans-65"/>
      <use x="348.394531" xlink:href="#DejaVuSans-6e"/>
      <use x="411.773438" xlink:href="#DejaVuSans-63"/>
      <use x="466.753906" xlink:href="#DejaVuSans-79"/>
     </g>
    </g>
   </g>
   <g id="patch_98">
    <path d="M 144 630 
L 144 86.4 
" style="fill:none;stroke:#000000;stroke-linecap:square;stroke-linejoin:miter;stroke-width:0.8;"/>
   </g>
   <g id="patch_99">
    <path d="M 1036.8 630 
L 1036.8 86.4 
" style="fill:none;stroke:#000000;stroke-linecap:square;stroke-linejoin:miter;stroke-width:0.8;"/>
   </g>
   <g id="patch_100">
    <path d="M 144 630 
L 1036.8 630 
" style="fill:none;stroke:#000000;stroke-linecap:square;stroke-linejoin:miter;stroke-width:0.8;"/>
   </g>
   <g id="patch_101">
    <path d="M 144 86.4 
L 1036.8 86.4 
" style="fill:none;stroke:#000000;stroke-linecap:square;stroke-linejoin:miter;stroke-width:0.8;"/>
   </g>
   <g id="text_21">
    <!-- z-only input, with hidden layer -->
    <defs>
     <path d="M 5.515625 54.6875 
L 48.1875 54.6875 
L 48.1875 46.484375 
L 14.40625 7.171875 
L 48.1875 7.171875 
L 48.1875 0 
L 4.296875 0 
L 4.296875 8.203125 
L 38.09375 47.515625 
L 5.515625 47.515625 
z
" id="DejaVuSans-7a"/>
     <path d="M 4.890625 31.390625 
L 31.203125 31.390625 
L 31.203125 23.390625 
L 4.890625 23.390625 
z
" id="DejaVuSans-2d"/>
     <path d="M 30.609375 48.390625 
Q 23.390625 48.390625 19.1875 42.75 
Q 14.984375 37.109375 14.984375 27.296875 
Q 14.984375 17.484375 19.15625 11.84375 
Q 23.34375 6.203125 30.609375 6.203125 
Q 37.796875 6.203125 41.984375 11.859375 
Q 46.1875 17.53125 46.1875 27.296875 
Q 46.1875 37.015625 41.984375 42.703125 
Q 37.796875 48.390625 30.609375 48.390625 
z
M 30.609375 56 
Q 42.328125 56 49.015625 48.375 
Q 55.71875 40.765625 55.71875 27.296875 
Q 55.71875 13.875 49.015625 6.21875 
Q 42.328125 -1.421875 30.609375 -1.421875 
Q 18.84375 -1.421875 12.171875 6.21875 
Q 5.515625 13.875 5.515625 27.296875 
Q 5.515625 40.765625 12.171875 48.375 
Q 18.84375 56 30.609375 56 
z
" id="DejaVuSans-6f"/>
     <path d="M 18.109375 8.203125 
L 18.109375 -20.796875 
L 9.078125 -20.796875 
L 9.078125 54.6875 
L 18.109375 54.6875 
L 18.109375 46.390625 
Q 20.953125 51.265625 25.265625 53.625 
Q 29.59375 56 35.59375 56 
Q 45.5625 56 51.78125 48.09375 
Q 58.015625 40.1875 58.015625 27.296875 
Q 58.015625 14.40625 51.78125 6.484375 
Q 45.5625 -1.421875 35.59375 -1.421875 
Q 29.59375 -1.421875 25.265625 0.953125 
Q 20.953125 3.328125 18.109375 8.203125 
z
M 48.6875 27.296875 
Q 48.6875 37.203125 44.609375 42.84375 
Q 40.53125 48.484375 33.40625 48.484375 
Q 26.265625 48.484375 22.1875 42.84375 
Q 18.109375 37.203125 18.109375 27.296875 
Q 18.109375 17.390625 22.1875 11.75 
Q 26.265625 6.109375 33.40625 6.109375 
Q 40.53125 6.109375 44.609375 11.75 
Q 48.6875 17.390625 48.6875 27.296875 
z
" id="DejaVuSans-70"/>
     <path d="M 11.71875 12.40625 
L 22.015625 12.40625 
L 22.015625 4 
L 14.015625 -11.625 
L 7.71875 -11.625 
L 11.71875 4 
z
" id="DejaVuSans-2c"/>
     <path d="M 54.890625 33.015625 
L 54.890625 0 
L 45.90625 0 
L 45.90625 32.71875 
Q 45.90625 40.484375 42.875 44.328125 
Q 39.84375 48.1875 33.796875 48.1875 
Q 26.515625 48.1875 22.3125 43.546875 
Q 18.109375 38.921875 18.109375 30.90625 
L 18.109375 0 
L 9.078125 0 
L 9.078125 75.984375 
L 18.109375 75.984375 
L 18.109375 46.1875 
Q 21.34375 51.125 25.703125 53.5625 
Q 30.078125 56 35.796875 56 
Q 45.21875 56 50.046875 50.171875 
Q 54.890625 44.34375 54.890625 33.015625 
z
" id="DejaVuSans-68"/>
    </defs>
    <g transform="translate(407.724375 80.4)scale(0.24 -0.24)">
     <use xlink:href="#DejaVuSans-7a"/>
     <use x="52.490234" xlink:href="#DejaVuSans-2d"/>
     <use x="88.589844" xlink:href="#DejaVuSans-6f"/>
     <use x="149.771484" xlink:href="#DejaVuSans-6e"/>
     <use x="213.150391" xlink:href="#DejaVuSans-6c"/>
     <use x="240.933594" xlink:href="#DejaVuSans-79"/>
     <use x="300.113281" xlink:href="#DejaVuSans-20"/>
     <use x="331.900391" xlink:href="#DejaVuSans-69"/>
     <use x="359.683594" xlink:href="#DejaVuSans-6e"/>
     <use x="423.0625" xlink:href="#DejaVuSans-70"/>
     <use x="486.539062" xlink:href="#DejaVuSans-75"/>
     <use x="549.917969" xlink:href="#DejaVuSans-74"/>
     <use x="589.126953" xlink:href="#DejaVuSans-2c"/>
     <use x="620.914062" xlink:href="#DejaVuSans-20"/>
     <use x="652.701172" xlink:href="#DejaVuSans-77"/>
     <use x="734.488281" xlink:href="#DejaVuSans-69"/>
     <use x="762.271484" xlink:href="#DejaVuSans-74"/>
     <use x="801.480469" xlink:href="#DejaVuSans-68"/>
     <use x="864.859375" xlink:href="#DejaVuSans-20"/>
     <use x="896.646484" xlink:href="#DejaVuSans-68"/>
     <use x="960.025391" xlink:href="#DejaVuSans-69"/>
     <use x="987.808594" xlink:href="#DejaVuSans-64"/>
     <use x="1051.285156" xlink:href="#DejaVuSans-64"/>
     <use x="1114.761719" xlink:href="#DejaVuSans-65"/>
     <use x="1176.285156" xlink:href="#DejaVuSans-6e"/>
     <use x="1239.664062" xlink:href="#DejaVuSans-20"/>
     <use x="1271.451172" xlink:href="#DejaVuSans-6c"/>
     <use x="1299.234375" xlink:href="#DejaVuSans-61"/>
     <use x="1360.513672" xlink:href="#DejaVuSans-79"/>
     <use x="1419.693359" xlink:href="#DejaVuSans-65"/>
     <use x="1481.216797" xlink:href="#DejaVuSans-72"/>
    </g>
   </g>
  </g>
 </g>
 <defs>
  <clipPath id="p4461904c4f">
   <rect height="543.6" width="892.8" x="144" y="86.4"/>
  </clipPath>
 </defs>
</svg>
