<?xml version="1.0" encoding="UTF-8"?>
<svg width="419px" height="299px" viewBox="0 0 419 299" version="1.1" xmlns="http://www.w3.org/2000/svg" xmlns:xlink="http://www.w3.org/1999/xlink">
    <!-- Generator: Sketch 49.1 (51147) - http://www.bohemiancoding.com/sketch -->
    <title>Group 7</title>
    <desc>Created with Sketch.</desc>
    <defs></defs>
    <g id="Page-1" stroke="none" stroke-width="1" fill="none" fill-rule="evenodd">
        <g id="Group-7">
            <polygon id="Shape" fill="#000000" fill-rule="nonzero" points="119.998597 198.749996 120.001403 198.250004 173.471403 198.550004 173.468597 199.049996"></polygon>
            <polygon id="Shape" stroke="#000000" stroke-width="0.5" fill="#000000" fill-rule="nonzero" points="178.72 198.83 171.7 202.29 173.47 198.8 171.73 195.29"></polygon>
            <path d="M240,198.5 L293.47,198.8" id="Shape" stroke="#000000" stroke-width="0.5"></path>
            <polygon id="Shape" stroke="#000000" stroke-width="0.5" fill="#000000" fill-rule="nonzero" points="298.72 198.83 291.7 202.29 293.47 198.8 291.73 195.29"></polygon>
            <rect id="Rectangle-path" stroke="#000000" stroke-width="0.5" fill="#FFFFFF" fill-rule="nonzero" x="300" y="158.5" width="60" height="80" rx="9"></rect>
            <path d="M90,158.5 L90,124.87" id="Shape" stroke="#000000" stroke-width="0.5"></path>
            <polygon id="Shape" stroke="#000000" stroke-width="0.5" fill="#000000" fill-rule="nonzero" points="90 119.62 93.5 126.62 90 124.87 86.5 126.62"></polygon>
            <path d="M210,158.5 L210,124.87" id="Shape" stroke="#000000" stroke-width="0.5"></path>
            <polygon id="Shape" stroke="#000000" stroke-width="0.5" fill="#000000" fill-rule="nonzero" points="210 119.62 213.5 126.62 210 124.87 206.5 126.62"></polygon>
            <path d="M330,158.5 L330,124.87" id="Shape" stroke="#000000" stroke-width="0.5"></path>
            <polygon id="Shape" stroke="#000000" stroke-width="0.5" fill="#000000" fill-rule="nonzero" points="330 119.62 333.5 126.62 330 124.87 326.5 126.62"></polygon>
            <polygon id="Shape" fill="#000000" fill-rule="nonzero" points="329.75 278.5 329.25 278.5 329.25 244.87 329.75 244.87"></polygon>
            <polygon id="Shape" stroke="#000000" stroke-width="0.5" fill="#000000" fill-rule="nonzero" points="329.5 239.62 333 246.62 329.5 244.87 326 246.62"></polygon>
            <path d="M90.5,118.5 L50.5,118.5 C43.8333333,118.5 41.6033333,115.353333 43.81,109.06 L57.19,70.94 C59.3966667,64.6466667 63.8333333,61.5 70.5,61.5 L110.5,61.5 C117.166667,61.5 121.603333,64.6466667 123.81,70.94 L137.19,109.06 C139.396667,115.353333 137.166667,118.5 130.5,118.5 L90.5,118.5 Z" id="Shape" stroke="#000000" stroke-width="0.5" fill="#FFFFFF" fill-rule="nonzero" transform="translate(90.500000, 90.000000) rotate(180.000000) translate(-90.500000, -90.000000) "></path>
            <path d="M91.3,61.9 L91.05,27.87" id="Shape" stroke="#000000" stroke-width="0.5"></path>
            <polygon id="Shape" stroke="#000000" stroke-width="0.5" fill="#000000" fill-rule="nonzero" points="91.01 22.62 94.56 29.59 91.05 27.87 87.56 29.64"></polygon>
            <path d="M60,138.5 L69,138.5 C75,138.5 78.0566667,136.283333 78.17,131.85 L78.34,125.2" id="Shape" stroke="#000000" stroke-width="0.5" stroke-dasharray="1"></path>
            <polygon id="Shape" stroke="#000000" stroke-width="0.5" fill="#000000" fill-rule="nonzero" points="78.47 119.95 81.79 127.04 78.34 125.2 74.79 126.86"></polygon>
            <path d="M211.5,118.5 L171.5,118.5 C164.833333,118.5 162.603333,115.353333 164.81,109.06 L178.19,70.94 C180.396667,64.6466667 184.833333,61.5 191.5,61.5 L231.5,61.5 C238.166667,61.5 242.603333,64.6466667 244.81,70.94 L258.19,109.06 C260.396667,115.353333 258.166667,118.5 251.5,118.5 L211.5,118.5 Z" id="Shape" stroke="#000000" stroke-width="0.5" fill="#FFFFFF" fill-rule="nonzero" transform="translate(211.500000, 90.000000) rotate(180.000000) translate(-211.500000, -90.000000) "></path>
            <path d="M212.1,61.9 L212.02,27.87" id="Shape" stroke="#000000" stroke-width="0.5"></path>
            <polygon id="Shape" stroke="#000000" stroke-width="0.5" fill="#000000" fill-rule="nonzero" points="212 22.62 215.52 29.61 212.02 27.87 208.52 29.63"></polygon>
            <path d="M181,138.5 L190,138.5 C196,138.5 199.093333,136.283333 199.28,131.85 L199.56,125.2" id="Shape" stroke="#000000" stroke-width="0.5" stroke-dasharray="1"></path>
            <polygon id="Shape" stroke="#000000" stroke-width="0.5" fill="#000000" fill-rule="nonzero" points="199.79 119.95 202.99 127.09 199.56 125.2 195.99 126.8"></polygon>
            <path d="M331.5,118.5 L291.5,118.5 C284.833333,118.5 282.603333,115.353333 284.81,109.06 L298.19,70.94 C300.396667,64.6466667 304.833333,61.5 311.5,61.5 L351.5,61.5 C358.166667,61.5 362.603333,64.6466667 364.81,70.94 L378.19,109.06 C380.396667,115.353333 378.166667,118.5 371.5,118.5 L331.5,118.5 Z" id="Shape" stroke="#000000" stroke-width="0.5" fill="#FFFFFF" fill-rule="nonzero" transform="translate(331.500000, 90.000000) rotate(180.000000) translate(-331.500000, -90.000000) "></path>
            <path d="M332.1,61.9 L332.02,27.87" id="Shape" stroke="#000000" stroke-width="0.5"></path>
            <polygon id="Shape" stroke="#000000" stroke-width="0.5" fill="#000000" fill-rule="nonzero" points="332 22.62 335.52 29.61 332.02 27.87 328.52 29.63"></polygon>
            <path d="M301,138.5 L310,138.5 C316,138.5 319.093333,136.283333 319.28,131.85 L319.56,125.2" id="Shape" stroke="#000000" stroke-width="0.5" stroke-dasharray="1"></path>
            <polygon id="Shape" stroke="#000000" stroke-width="0.5" fill="#000000" fill-rule="nonzero" points="319.79 119.95 322.99 127.09 319.56 125.2 315.99 126.8"></polygon>
            <polygon id="Shape" fill="#000000" fill-rule="nonzero" points="0 198.75 0 198.25 53.63 198.25 53.63 198.75"></polygon>
            <polygon id="Shape" stroke="#000000" stroke-width="0.5" fill="#000000" fill-rule="nonzero" points="58.88 198.5 51.88 202 53.63 198.5 51.88 195"></polygon>
            <polygon id="Shape" fill="#000000" fill-rule="nonzero" points="359.5 198.75 359.5 198.25 413.13 198.25 413.13 198.75"></polygon>
            <polygon id="Shape" stroke="#000000" stroke-width="0.5" fill="#000000" fill-rule="nonzero" points="418.38 198.5 411.38 202 413.13 198.5 411.38 195"></polygon>
            <path d="M280.25,263.5 L279.75,263.5 L279.75,233.5 C279.75,226.712567 281.938342,223.25 286.32,223.25 L292.63,223.25 L292.63,223.75 L286.32,223.75 C282.274991,223.75 280.25,226.954099 280.25,233.5 L280.25,263.5 Z" id="Shape" fill="#000000" fill-rule="nonzero"></path>
            <polygon id="Shape" stroke="#000000" stroke-width="0.5" fill="#000000" fill-rule="nonzero" points="297.88 223.5 290.88 227 292.63 223.5 290.88 220"></polygon>
            <rect id="Rectangle-path" stroke="#000000" stroke-width="0.5" fill="#FFFFFF" fill-rule="nonzero" x="180" y="158.5" width="60" height="80" rx="9"></rect>
            <path d="M40.25,263.5 L39.75,263.5 L39.75,233.5 C39.75,226.712567 41.9383425,223.25 46.32,223.25 L52.63,223.25 L52.63,223.75 L46.32,223.75 C42.2749908,223.75 40.25,226.954099 40.25,233.5 L40.25,263.5 Z" id="Shape" fill="#000000" fill-rule="nonzero"></path>
            <polygon id="Shape" stroke="#000000" stroke-width="0.5" fill="#000000" fill-rule="nonzero" points="57.88 223.5 50.88 227 52.63 223.5 50.88 220"></polygon>
            <path d="M160.25,263.5 L159.75,263.5 L159.75,233.5 C159.75,226.712567 161.938342,223.25 166.32,223.25 L172.63,223.25 L172.63,223.75 L166.32,223.75 C162.274991,223.75 160.25,226.954099 160.25,233.5 L160.25,263.5 Z" id="Shape" fill="#000000" fill-rule="nonzero"></path>
            <polygon id="Shape" stroke="#000000" stroke-width="0.5" fill="#000000" fill-rule="nonzero" points="177.88 223.5 170.88 227 172.63 223.5 170.88 220"></polygon>
            <polygon id="Shape" fill="#000000" fill-rule="nonzero" points="210.25 278.5 209.75 278.5 209.75 244.87 210.25 244.87"></polygon>
            <polygon id="Shape" stroke="#000000" stroke-width="0.5" fill="#000000" fill-rule="nonzero" points="210 239.62 213.5 246.62 210 244.87 206.5 246.62"></polygon>
            <polygon id="Shape" fill="#000000" fill-rule="nonzero" points="89.75 278.5 89.25 278.5 89.25 244.87 89.75 244.87"></polygon>
            <polygon id="Shape" stroke="#000000" stroke-width="0.5" fill="#000000" fill-rule="nonzero" points="89.5 239.62 93 246.62 89.5 244.87 86 246.62"></polygon>
            <rect id="Rectangle-path" stroke="#000000" stroke-width="0.5" fill="#FFFFFF" fill-rule="nonzero" x="60" y="158.5" width="60" height="80" rx="9"></rect>
            <path d="M79.6533203,85.46875 L82.7998047,92.9980469 L85.9580078,85.46875 L86.9189453,85.46875 L86.9189453,94 L86.1982422,94 L86.1982422,90.2851562 L86.2568359,86.4765625 L83.0810547,94 L82.5244141,94 L79.3603516,86.5058594 L79.4189453,90.2617188 L79.4189453,94 L78.6982422,94 L78.6982422,85.46875 L79.6533203,85.46875 Z M89.0810547,94 L89.0810547,85.46875 L91.4658203,85.46875 C92.1650426,85.46875 92.7919894,85.6279281 93.3466797,85.9462891 C93.90137,86.26465 94.3339828,86.7207002 94.6445312,87.3144531 C94.9550797,87.9082061 95.1103516,88.5839806 95.1103516,89.3417969 L95.1103516,90.1269531 C95.1103516,90.8886757 94.9560562,91.5644502 94.6474609,92.1542969 C94.3388656,92.7441436 93.9042997,93.1992171 93.34375,93.5195312 C92.7832003,93.8398454 92.1396521,94 91.4130859,94 L89.0810547,94 Z M89.8017578,86.0839844 L89.8017578,93.390625 L91.4189453,93.390625 C92.3173873,93.390625 93.0380832,93.0927764 93.5810547,92.4970703 C94.1240262,91.9013642 94.3955078,91.0957082 94.3955078,90.0800781 L94.3955078,89.3300781 C94.3955078,88.3496045 94.1279324,87.5644561 93.5927734,86.9746094 C93.0576145,86.3847627 92.3525434,86.0878906 91.4775391,86.0839844 L89.8017578,86.0839844 Z M103.290039,94 L102.569336,94 L97.6650391,86.6992188 L97.6650391,94 L96.9384766,94 L96.9384766,85.46875 L97.6650391,85.46875 L102.575195,92.7753906 L102.575195,85.46875 L103.290039,85.46875 L103.290039,94 Z" id="MDN" fill="#000000"></path>
            <path d="M59.9155273,134.386719 L56.3735352,134.386719 L56.3735352,140.591797 C56.3735352,141.1543 56.4746084,141.574706 56.6767578,141.853027 C56.8789073,142.131349 57.2026345,142.270508 57.6479492,142.270508 C57.847169,142.270508 58.1372051,142.220704 58.5180664,142.121094 L58.746582,142.90332 C58.412596,143.084962 57.9790066,143.175781 57.4458008,143.175781 C56.7016564,143.175781 56.1596697,142.963381 55.8198242,142.538574 C55.4799788,142.113767 55.3100586,141.4502 55.3100586,140.547852 L55.3100586,134.386719 L52.0756836,134.386719 L52.0756836,133.490234 L59.9155273,133.490234 L59.9155273,134.386719 Z" id="τ" fill="#000000"></path>
            <polygon id="z" fill="#000000" points="88.6884766 16.1123047 94.8671875 16.1123047 94.8671875 17 87.3876953 17 87.3876953 16.2265625 93.1533203 8.39550781 87.5634766 8.39550781 87.5634766 7.49023438 94.4804688 7.49023438 94.4804688 8.27246094"></polygon>
            <path d="M98.0507812,14.6914062 L98.0507812,15.7734375 L98.9257812,15.7734375 L98.9257812,16.15625 L98.0507812,16.15625 L98.0507812,18.9726562 C98.0507812,19.2070324 98.0930985,19.3815098 98.1777344,19.4960938 C98.2623702,19.6106777 98.4036448,19.6679688 98.6015625,19.6679688 C98.6796879,19.6679688 98.8059887,19.654948 98.9804688,19.6289062 L99,20.0117188 C98.8776036,20.0559898 98.7109386,20.078125 98.5,20.078125 C98.1796859,20.078125 97.9466153,19.985027 97.8007812,19.7988281 C97.6549472,19.6126293 97.5820312,19.3385435 97.5820312,18.9765625 L97.5820312,16.15625 L96.8046875,16.15625 L96.8046875,15.7734375 L97.5820312,15.7734375 L97.5820312,14.6914062 L98.0507812,14.6914062 Z" id="t" fill="#000000"></path>
            <path d="M96.21875,0.9296875 L96.5,1.12890625 C96.2656238,1.43619945 96.1445313,1.76692531 96.1367188,2.12109375 L96.1367188,2.62109375 L95.671875,2.62109375 L95.671875,2.18359375 C95.671875,1.94400922 95.7207026,1.71354277 95.8183594,1.4921875 C95.9160161,1.27083223 96.0494783,1.0833341 96.21875,0.9296875 Z" id="‘" fill="#000000"></path>
            <path d="M35.6894531,191.691406 L35.6894531,192.773438 L36.5644531,192.773438 L36.5644531,193.15625 L35.6894531,193.15625 L35.6894531,195.972656 C35.6894531,196.207032 35.7317704,196.38151 35.8164062,196.496094 C35.9010421,196.610678 36.0423167,196.667969 36.2402344,196.667969 C36.3183598,196.667969 36.4446606,196.654948 36.6191406,196.628906 L36.6386719,197.011719 C36.5162754,197.05599 36.3496104,197.078125 36.1386719,197.078125 C35.8183578,197.078125 35.5852872,196.985027 35.4394531,196.798828 C35.2936191,196.612629 35.2207031,196.338543 35.2207031,195.976562 L35.2207031,193.15625 L34.4433594,193.15625 L34.4433594,192.773438 L35.2207031,192.773438 L35.2207031,191.691406 L35.6894531,191.691406 Z M38.9863281,194.6875 L37.1152344,194.6875 L37.1152344,194.292969 L38.9863281,194.292969 L38.9863281,194.6875 Z M41.9238281,197 L41.4550781,197 L41.4550781,191.875 L39.9082031,192.449219 L39.9082031,192.011719 L41.8457031,191.292969 L41.9238281,191.292969 L41.9238281,197 Z" id="t-1" fill="#000000"></path>
            <path d="M25.4775391,185.098633 C25.8232439,184.530271 26.2656223,184.090822 26.8046875,183.780273 C27.3437527,183.469725 27.932614,183.314453 28.5712891,183.314453 C29.5908254,183.314453 30.3496069,183.60156 30.8476562,184.175781 C31.3457056,184.750003 31.5976562,185.611322 31.6035156,186.759766 L31.6035156,193 L30.5576172,193 L30.5576172,186.750977 C30.5517578,185.901363 30.3715838,185.268557 30.0170898,184.852539 C29.6625959,184.436521 29.095707,184.228516 28.3164062,184.228516 C27.6660124,184.228516 27.0903345,184.432127 26.5893555,184.839355 C26.0883764,185.246584 25.7177746,185.795895 25.4775391,186.487305 L25.4775391,193 L24.4316406,193 L24.4316406,179.5 L25.4775391,179.5 L25.4775391,185.098633 Z" id="h" fill="#000000"></path>
            <polygon id="z" fill="#000000" points="87.6884766 294.112305 93.8671875 294.112305 93.8671875 295 86.3876953 295 86.3876953 294.226562 92.1533203 286.395508 86.5634766 286.395508 86.5634766 285.490234 93.4804688 285.490234 93.4804688 286.272461"></polygon>
            <path d="M96.6894531,292.691406 L96.6894531,293.773438 L97.5644531,293.773438 L97.5644531,294.15625 L96.6894531,294.15625 L96.6894531,296.972656 C96.6894531,297.207032 96.7317704,297.38151 96.8164062,297.496094 C96.9010421,297.610678 97.0423167,297.667969 97.2402344,297.667969 C97.3183598,297.667969 97.4446606,297.654948 97.6191406,297.628906 L97.6386719,298.011719 C97.5162754,298.05599 97.3496104,298.078125 97.1386719,298.078125 C96.8183578,298.078125 96.5852872,297.985027 96.4394531,297.798828 C96.2936191,297.612629 96.2207031,297.338543 96.2207031,296.976562 L96.2207031,294.15625 L95.4433594,294.15625 L95.4433594,293.773438 L96.2207031,293.773438 L96.2207031,292.691406 L96.6894531,292.691406 Z M99.9863281,295.6875 L98.1152344,295.6875 L98.1152344,295.292969 L99.9863281,295.292969 L99.9863281,295.6875 Z M102.923828,298 L102.455078,298 L102.455078,292.875 L100.908203,293.449219 L100.908203,293.011719 L102.845703,292.292969 L102.923828,292.292969 L102.923828,298 Z" id="t-1" fill="#000000"></path>
            <path d="M81.9375,198.449219 L79.4589844,198.449219 L79.4589844,202 L78.7324219,202 L78.7324219,193.46875 L81.5039062,193.46875 C82.4140671,193.46875 83.1249974,193.689451 83.6367188,194.130859 C84.1484401,194.572268 84.4042969,195.189449 84.4042969,195.982422 C84.4042969,196.5293 84.2441422,197.011717 83.9238281,197.429688 C83.603514,197.847658 83.1738308,198.136718 82.6347656,198.296875 L84.7675781,201.923828 L84.7675781,202 L84,202 L81.9375,198.449219 Z M79.4589844,197.833984 L81.6679688,197.833984 C82.2734405,197.833984 82.7597638,197.662111 83.1269531,197.318359 C83.4941425,196.974608 83.6777344,196.5293 83.6777344,195.982422 C83.6777344,195.380856 83.48633,194.914064 83.1035156,194.582031 C82.7207012,194.249998 82.1835972,194.083984 81.4921875,194.083984 L79.4589844,194.083984 L79.4589844,197.833984 Z M92.71875,202 L91.9980469,202 L87.09375,194.699219 L87.09375,202 L86.3671875,202 L86.3671875,193.46875 L87.09375,193.46875 L92.0039062,200.775391 L92.0039062,193.46875 L92.71875,193.46875 L92.71875,202 Z M101.238281,202 L100.517578,202 L95.6132812,194.699219 L95.6132812,202 L94.8867188,202 L94.8867188,193.46875 L95.6132812,193.46875 L100.523438,200.775391 L100.523438,193.46875 L101.238281,193.46875 L101.238281,202 Z" id="RNN" fill="#000000"></path>
            <path d="M199.65332,85.46875 L202.799805,92.9980469 L205.958008,85.46875 L206.918945,85.46875 L206.918945,94 L206.198242,94 L206.198242,90.2851562 L206.256836,86.4765625 L203.081055,94 L202.524414,94 L199.360352,86.5058594 L199.418945,90.2617188 L199.418945,94 L198.698242,94 L198.698242,85.46875 L199.65332,85.46875 Z M209.081055,94 L209.081055,85.46875 L211.46582,85.46875 C212.165043,85.46875 212.791989,85.6279281 213.34668,85.9462891 C213.90137,86.26465 214.333983,86.7207002 214.644531,87.3144531 C214.95508,87.9082061 215.110352,88.5839806 215.110352,89.3417969 L215.110352,90.1269531 C215.110352,90.8886757 214.956056,91.5644502 214.647461,92.1542969 C214.338866,92.7441436 213.9043,93.1992171 213.34375,93.5195312 C212.7832,93.8398454 212.139652,94 211.413086,94 L209.081055,94 Z M209.801758,86.0839844 L209.801758,93.390625 L211.418945,93.390625 C212.317387,93.390625 213.038083,93.0927764 213.581055,92.4970703 C214.124026,91.9013642 214.395508,91.0957082 214.395508,90.0800781 L214.395508,89.3300781 C214.395508,88.3496045 214.127932,87.5644561 213.592773,86.9746094 C213.057615,86.3847627 212.352543,86.0878906 211.477539,86.0839844 L209.801758,86.0839844 Z M223.290039,94 L222.569336,94 L217.665039,86.6992188 L217.665039,94 L216.938477,94 L216.938477,85.46875 L217.665039,85.46875 L222.575195,92.7753906 L222.575195,85.46875 L223.290039,85.46875 L223.290039,94 Z" id="MDN" fill="#000000"></path>
            <path d="M179.915527,134.386719 L176.373535,134.386719 L176.373535,140.591797 C176.373535,141.1543 176.474608,141.574706 176.676758,141.853027 C176.878907,142.131349 177.202634,142.270508 177.647949,142.270508 C177.847169,142.270508 178.137205,142.220704 178.518066,142.121094 L178.746582,142.90332 C178.412596,143.084962 177.979007,143.175781 177.445801,143.175781 C176.701656,143.175781 176.15967,142.963381 175.819824,142.538574 C175.479979,142.113767 175.310059,141.4502 175.310059,140.547852 L175.310059,134.386719 L172.075684,134.386719 L172.075684,133.490234 L179.915527,133.490234 L179.915527,134.386719 Z" id="τ" fill="#000000"></path>
            <polygon id="z" fill="#000000" points="208.688477 16.1123047 214.867188 16.1123047 214.867188 17 207.387695 17 207.387695 16.2265625 213.15332 8.39550781 207.563477 8.39550781 207.563477 7.49023438 214.480469 7.49023438 214.480469 8.27246094"></polygon>
            <path d="M217.835938,14.6914062 L217.835938,15.7734375 L218.710938,15.7734375 L218.710938,16.15625 L217.835938,16.15625 L217.835938,18.9726562 C217.835938,19.2070324 217.878255,19.3815098 217.962891,19.4960938 C218.047526,19.6106777 218.188801,19.6679688 218.386719,19.6679688 C218.464844,19.6679688 218.591145,19.654948 218.765625,19.6289062 L218.785156,20.0117188 C218.66276,20.0559898 218.496095,20.078125 218.285156,20.078125 C217.964842,20.078125 217.731772,19.985027 217.585938,19.7988281 C217.440103,19.6126293 217.367188,19.3385435 217.367188,18.9765625 L217.367188,16.15625 L216.589844,16.15625 L216.589844,15.7734375 L217.367188,15.7734375 L217.367188,14.6914062 L217.835938,14.6914062 Z M221.53125,17.109375 L223.261719,17.109375 L223.261719,17.546875 L221.53125,17.546875 L221.53125,19.4296875 L221.058594,19.4296875 L221.058594,17.546875 L219.363281,17.546875 L219.363281,17.109375 L221.058594,17.109375 L221.058594,15.2890625 L221.53125,15.2890625 L221.53125,17.109375 Z M226.296875,20 L225.828125,20 L225.828125,14.875 L224.28125,15.4492188 L224.28125,15.0117188 L226.21875,14.2929688 L226.296875,14.2929688 L226.296875,20 Z" id="t" fill="#000000"></path>
            <path d="M216.21875,0.9296875 L216.5,1.12890625 C216.265624,1.43619945 216.144531,1.76692531 216.136719,2.12109375 L216.136719,2.62109375 L215.671875,2.62109375 L215.671875,2.18359375 C215.671875,1.94400922 215.720703,1.71354277 215.818359,1.4921875 C215.916016,1.27083223 216.049478,1.0833341 216.21875,0.9296875 Z" id="‘" fill="#000000"></path>
            <path d="M154.550781,191.691406 L154.550781,192.773438 L155.425781,192.773438 L155.425781,193.15625 L154.550781,193.15625 L154.550781,195.972656 C154.550781,196.207032 154.593099,196.38151 154.677734,196.496094 C154.76237,196.610678 154.903645,196.667969 155.101562,196.667969 C155.179688,196.667969 155.305989,196.654948 155.480469,196.628906 L155.5,197.011719 C155.377604,197.05599 155.210939,197.078125 155,197.078125 C154.679686,197.078125 154.446615,196.985027 154.300781,196.798828 C154.154947,196.612629 154.082031,196.338543 154.082031,195.976562 L154.082031,193.15625 L153.304688,193.15625 L153.304688,192.773438 L154.082031,192.773438 L154.082031,191.691406 L154.550781,191.691406 Z" id="t" fill="#000000"></path>
            <path d="M145.477539,185.098633 C145.823244,184.530271 146.265622,184.090822 146.804688,183.780273 C147.343753,183.469725 147.932614,183.314453 148.571289,183.314453 C149.590825,183.314453 150.349607,183.60156 150.847656,184.175781 C151.345706,184.750003 151.597656,185.611322 151.603516,186.759766 L151.603516,193 L150.557617,193 L150.557617,186.750977 C150.551758,185.901363 150.371584,185.268557 150.01709,184.852539 C149.662596,184.436521 149.095707,184.228516 148.316406,184.228516 C147.666012,184.228516 147.090335,184.432127 146.589355,184.839355 C146.088376,185.246584 145.717775,185.795895 145.477539,186.487305 L145.477539,193 L144.431641,193 L144.431641,179.5 L145.477539,179.5 L145.477539,185.098633 Z" id="h" fill="#000000"></path>
            <path d="M394.576172,191.691406 L394.576172,192.773438 L395.451172,192.773438 L395.451172,193.15625 L394.576172,193.15625 L394.576172,195.972656 C394.576172,196.207032 394.618489,196.38151 394.703125,196.496094 C394.787761,196.610678 394.929035,196.667969 395.126953,196.667969 C395.205079,196.667969 395.331379,196.654948 395.505859,196.628906 L395.525391,197.011719 C395.402994,197.05599 395.236329,197.078125 395.025391,197.078125 C394.705077,197.078125 394.472006,196.985027 394.326172,196.798828 C394.180338,196.612629 394.107422,196.338543 394.107422,195.976562 L394.107422,193.15625 L393.330078,193.15625 L393.330078,192.773438 L394.107422,192.773438 L394.107422,191.691406 L394.576172,191.691406 Z M398.271484,194.109375 L400.001953,194.109375 L400.001953,194.546875 L398.271484,194.546875 L398.271484,196.429688 L397.798828,196.429688 L397.798828,194.546875 L396.103516,194.546875 L396.103516,194.109375 L397.798828,194.109375 L397.798828,192.289062 L398.271484,192.289062 L398.271484,194.109375 Z M404.423828,197 L400.861328,197 L400.861328,196.640625 L402.810547,194.429688 C403.133465,194.05729 403.357421,193.750001 403.482422,193.507812 C403.607423,193.265624 403.669922,193.029949 403.669922,192.800781 C403.669922,192.441404 403.564454,192.156902 403.353516,191.947266 C403.142577,191.737629 402.852215,191.632812 402.482422,191.632812 C402.099607,191.632812 401.790366,191.755207 401.554688,192 C401.319009,192.244793 401.201172,192.562498 401.201172,192.953125 L400.736328,192.953125 C400.736328,192.632811 400.808593,192.341147 400.953125,192.078125 C401.097657,191.815103 401.303384,191.608725 401.570312,191.458984 C401.837241,191.309244 402.141274,191.234375 402.482422,191.234375 C403.003258,191.234375 403.410155,191.371092 403.703125,191.644531 C403.996095,191.91797 404.142578,192.290362 404.142578,192.761719 C404.142578,193.027345 404.059897,193.317707 403.894531,193.632812 C403.729166,193.947918 403.438153,194.341143 403.021484,194.8125 L401.435547,196.605469 L404.423828,196.605469 L404.423828,197 Z" id="t+2" fill="#000000"></path>
            <path d="M385.477539,185.098633 C385.823244,184.530271 386.265622,184.090822 386.804688,183.780273 C387.343753,183.469725 387.932614,183.314453 388.571289,183.314453 C389.590825,183.314453 390.349607,183.60156 390.847656,184.175781 C391.345706,184.750003 391.597656,185.611322 391.603516,186.759766 L391.603516,193 L390.557617,193 L390.557617,186.750977 C390.551758,185.901363 390.371584,185.268557 390.01709,184.852539 C389.662596,184.436521 389.095707,184.228516 388.316406,184.228516 C387.666012,184.228516 387.090335,184.432127 386.589355,184.839355 C386.088376,185.246584 385.717775,185.795895 385.477539,186.487305 L385.477539,193 L384.431641,193 L384.431641,179.5 L385.477539,179.5 L385.477539,185.098633 Z" id="h" fill="#000000"></path>
            <polygon id="z" fill="#000000" points="207.688477 294.112305 213.867188 294.112305 213.867188 295 206.387695 295 206.387695 294.226562 212.15332 286.395508 206.563477 286.395508 206.563477 285.490234 213.480469 285.490234 213.480469 286.272461"></polygon>
            <path d="M216.550781,292.691406 L216.550781,293.773438 L217.425781,293.773438 L217.425781,294.15625 L216.550781,294.15625 L216.550781,296.972656 C216.550781,297.207032 216.593099,297.38151 216.677734,297.496094 C216.76237,297.610678 216.903645,297.667969 217.101562,297.667969 C217.179688,297.667969 217.305989,297.654948 217.480469,297.628906 L217.5,298.011719 C217.377604,298.05599 217.210939,298.078125 217,298.078125 C216.679686,298.078125 216.446615,297.985027 216.300781,297.798828 C216.154947,297.612629 216.082031,297.338543 216.082031,296.976562 L216.082031,294.15625 L215.304688,294.15625 L215.304688,293.773438 L216.082031,293.773438 L216.082031,292.691406 L216.550781,292.691406 Z" id="t" fill="#000000"></path>
            <path d="M201.9375,198.449219 L199.458984,198.449219 L199.458984,202 L198.732422,202 L198.732422,193.46875 L201.503906,193.46875 C202.414067,193.46875 203.124997,193.689451 203.636719,194.130859 C204.14844,194.572268 204.404297,195.189449 204.404297,195.982422 C204.404297,196.5293 204.244142,197.011717 203.923828,197.429688 C203.603514,197.847658 203.173831,198.136718 202.634766,198.296875 L204.767578,201.923828 L204.767578,202 L204,202 L201.9375,198.449219 Z M199.458984,197.833984 L201.667969,197.833984 C202.273441,197.833984 202.759764,197.662111 203.126953,197.318359 C203.494142,196.974608 203.677734,196.5293 203.677734,195.982422 C203.677734,195.380856 203.48633,194.914064 203.103516,194.582031 C202.720701,194.249998 202.183597,194.083984 201.492188,194.083984 L199.458984,194.083984 L199.458984,197.833984 Z M212.71875,202 L211.998047,202 L207.09375,194.699219 L207.09375,202 L206.367188,202 L206.367188,193.46875 L207.09375,193.46875 L212.003906,200.775391 L212.003906,193.46875 L212.71875,193.46875 L212.71875,202 Z M221.238281,202 L220.517578,202 L215.613281,194.699219 L215.613281,202 L214.886719,202 L214.886719,193.46875 L215.613281,193.46875 L220.523438,200.775391 L220.523438,193.46875 L221.238281,193.46875 L221.238281,202 Z" id="RNN" fill="#000000"></path>
            <path d="M319.65332,85.46875 L322.799805,92.9980469 L325.958008,85.46875 L326.918945,85.46875 L326.918945,94 L326.198242,94 L326.198242,90.2851562 L326.256836,86.4765625 L323.081055,94 L322.524414,94 L319.360352,86.5058594 L319.418945,90.2617188 L319.418945,94 L318.698242,94 L318.698242,85.46875 L319.65332,85.46875 Z M329.081055,94 L329.081055,85.46875 L331.46582,85.46875 C332.165043,85.46875 332.791989,85.6279281 333.34668,85.9462891 C333.90137,86.26465 334.333983,86.7207002 334.644531,87.3144531 C334.95508,87.9082061 335.110352,88.5839806 335.110352,89.3417969 L335.110352,90.1269531 C335.110352,90.8886757 334.956056,91.5644502 334.647461,92.1542969 C334.338866,92.7441436 333.9043,93.1992171 333.34375,93.5195312 C332.7832,93.8398454 332.139652,94 331.413086,94 L329.081055,94 Z M329.801758,86.0839844 L329.801758,93.390625 L331.418945,93.390625 C332.317387,93.390625 333.038083,93.0927764 333.581055,92.4970703 C334.124026,91.9013642 334.395508,91.0957082 334.395508,90.0800781 L334.395508,89.3300781 C334.395508,88.3496045 334.127932,87.5644561 333.592773,86.9746094 C333.057615,86.3847627 332.352543,86.0878906 331.477539,86.0839844 L329.801758,86.0839844 Z M343.290039,94 L342.569336,94 L337.665039,86.6992188 L337.665039,94 L336.938477,94 L336.938477,85.46875 L337.665039,85.46875 L342.575195,92.7753906 L342.575195,85.46875 L343.290039,85.46875 L343.290039,94 Z" id="MDN" fill="#000000"></path>
            <path d="M299.915527,134.386719 L296.373535,134.386719 L296.373535,140.591797 C296.373535,141.1543 296.474608,141.574706 296.676758,141.853027 C296.878907,142.131349 297.202634,142.270508 297.647949,142.270508 C297.847169,142.270508 298.137205,142.220704 298.518066,142.121094 L298.746582,142.90332 C298.412596,143.084962 297.979007,143.175781 297.445801,143.175781 C296.701656,143.175781 296.15967,142.963381 295.819824,142.538574 C295.479979,142.113767 295.310059,141.4502 295.310059,140.547852 L295.310059,134.386719 L292.075684,134.386719 L292.075684,133.490234 L299.915527,133.490234 L299.915527,134.386719 Z" id="τ" fill="#000000"></path>
            <polygon id="z" fill="#000000" points="328.688477 16.1123047 334.867188 16.1123047 334.867188 17 327.387695 17 327.387695 16.2265625 333.15332 8.39550781 327.563477 8.39550781 327.563477 7.49023438 334.480469 7.49023438 334.480469 8.27246094"></polygon>
            <path d="M337.576172,14.6914062 L337.576172,15.7734375 L338.451172,15.7734375 L338.451172,16.15625 L337.576172,16.15625 L337.576172,18.9726562 C337.576172,19.2070324 337.618489,19.3815098 337.703125,19.4960938 C337.787761,19.6106777 337.929035,19.6679688 338.126953,19.6679688 C338.205079,19.6679688 338.331379,19.654948 338.505859,19.6289062 L338.525391,20.0117188 C338.402994,20.0559898 338.236329,20.078125 338.025391,20.078125 C337.705077,20.078125 337.472006,19.985027 337.326172,19.7988281 C337.180338,19.6126293 337.107422,19.3385435 337.107422,18.9765625 L337.107422,16.15625 L336.330078,16.15625 L336.330078,15.7734375 L337.107422,15.7734375 L337.107422,14.6914062 L337.576172,14.6914062 Z M341.271484,17.109375 L343.001953,17.109375 L343.001953,17.546875 L341.271484,17.546875 L341.271484,19.4296875 L340.798828,19.4296875 L340.798828,17.546875 L339.103516,17.546875 L339.103516,17.109375 L340.798828,17.109375 L340.798828,15.2890625 L341.271484,15.2890625 L341.271484,17.109375 Z M347.423828,20 L343.861328,20 L343.861328,19.640625 L345.810547,17.4296875 C346.133465,17.0572898 346.357421,16.7500012 346.482422,16.5078125 C346.607423,16.2656238 346.669922,16.0299491 346.669922,15.8007812 C346.669922,15.4414045 346.564454,15.1569021 346.353516,14.9472656 C346.142577,14.7376292 345.852215,14.6328125 345.482422,14.6328125 C345.099607,14.6328125 344.790366,14.7552071 344.554688,15 C344.319009,15.2447929 344.201172,15.562498 344.201172,15.953125 L343.736328,15.953125 C343.736328,15.6328109 343.808593,15.3411471 343.953125,15.078125 C344.097657,14.8151029 344.303384,14.6087247 344.570312,14.4589844 C344.837241,14.309244 345.141274,14.234375 345.482422,14.234375 C346.003258,14.234375 346.410155,14.3710924 346.703125,14.6445312 C346.996095,14.9179701 347.142578,15.2903622 347.142578,15.7617188 C347.142578,16.0273451 347.059897,16.3177068 346.894531,16.6328125 C346.729166,16.9479182 346.438153,17.3411435 346.021484,17.8125 L344.435547,19.6054688 L347.423828,19.6054688 L347.423828,20 Z" id="t+2" fill="#000000"></path>
            <path d="M336.21875,0.9296875 L336.5,1.12890625 C336.265624,1.43619945 336.144531,1.76692531 336.136719,2.12109375 L336.136719,2.62109375 L335.671875,2.62109375 L335.671875,2.18359375 C335.671875,1.94400922 335.720703,1.71354277 335.818359,1.4921875 C335.916016,1.27083223 336.049478,1.0833341 336.21875,0.9296875 Z" id="‘" fill="#000000"></path>
            <path d="M274.576172,191.691406 L274.576172,192.773438 L275.451172,192.773438 L275.451172,193.15625 L274.576172,193.15625 L274.576172,195.972656 C274.576172,196.207032 274.618489,196.38151 274.703125,196.496094 C274.787761,196.610678 274.929035,196.667969 275.126953,196.667969 C275.205079,196.667969 275.331379,196.654948 275.505859,196.628906 L275.525391,197.011719 C275.402994,197.05599 275.236329,197.078125 275.025391,197.078125 C274.705077,197.078125 274.472006,196.985027 274.326172,196.798828 C274.180338,196.612629 274.107422,196.338543 274.107422,195.976562 L274.107422,193.15625 L273.330078,193.15625 L273.330078,192.773438 L274.107422,192.773438 L274.107422,191.691406 L274.576172,191.691406 Z M278.271484,194.109375 L280.001953,194.109375 L280.001953,194.546875 L278.271484,194.546875 L278.271484,196.429688 L277.798828,196.429688 L277.798828,194.546875 L276.103516,194.546875 L276.103516,194.109375 L277.798828,194.109375 L277.798828,192.289062 L278.271484,192.289062 L278.271484,194.109375 Z M283.037109,197 L282.568359,197 L282.568359,191.875 L281.021484,192.449219 L281.021484,192.011719 L282.958984,191.292969 L283.037109,191.292969 L283.037109,197 Z" id="t+1" fill="#000000"></path>
            <path d="M265.477539,185.098633 C265.823244,184.530271 266.265622,184.090822 266.804688,183.780273 C267.343753,183.469725 267.932614,183.314453 268.571289,183.314453 C269.590825,183.314453 270.349607,183.60156 270.847656,184.175781 C271.345706,184.750003 271.597656,185.611322 271.603516,186.759766 L271.603516,193 L270.557617,193 L270.557617,186.750977 C270.551758,185.901363 270.371584,185.268557 270.01709,184.852539 C269.662596,184.436521 269.095707,184.228516 268.316406,184.228516 C267.666012,184.228516 267.090335,184.432127 266.589355,184.839355 C266.088376,185.246584 265.717775,185.795895 265.477539,186.487305 L265.477539,193 L264.431641,193 L264.431641,179.5 L265.477539,179.5 L265.477539,185.098633 Z" id="h" fill="#000000"></path>
            <path d="M42.5532227,279 C42.4477534,278.70117 42.3803712,278.258792 42.3510742,277.672852 C41.9819317,278.153323 41.5117216,278.523924 40.9404297,278.784668 C40.3691378,279.045411 39.7641633,279.175781 39.1254883,279.175781 C38.2114212,279.175781 37.4716825,278.920901 36.90625,278.411133 C36.3408175,277.901365 36.0581055,277.25684 36.0581055,276.477539 C36.0581055,275.551753 36.4433555,274.819339 37.2138672,274.280273 C37.9843789,273.741208 39.0580986,273.47168 40.4350586,273.47168 L42.3422852,273.47168 L42.3422852,272.390625 C42.3422852,271.710934 42.1328146,271.176271 41.7138672,270.786621 C41.2949198,270.396971 40.684086,270.202148 39.8813477,270.202148 C39.1489221,270.202148 38.5424829,270.389647 38.0620117,270.764648 C37.5815406,271.13965 37.3413086,271.590818 37.3413086,272.118164 L36.2866211,272.109375 C36.2866211,271.353512 36.6381801,270.698733 37.3413086,270.14502 C38.0444371,269.591306 38.9086863,269.314453 39.934082,269.314453 C40.9946342,269.314453 41.8310516,269.579587 42.4433594,270.109863 C43.0556671,270.640139 43.3706054,271.379878 43.3881836,272.329102 L43.3881836,276.829102 C43.3881836,277.749028 43.4848623,278.437498 43.6782227,278.894531 L43.6782227,279 L42.5532227,279 Z M39.2485352,278.244141 C39.9516637,278.244141 40.5800754,278.07422 41.1337891,277.734375 C41.6875028,277.39453 42.0903308,276.940433 42.3422852,276.37207 L42.3422852,274.280273 L40.4614258,274.280273 C39.4125924,274.291992 38.5922881,274.483885 38.0004883,274.855957 C37.4086884,275.228029 37.112793,275.739255 37.112793,276.389648 C37.112793,276.922854 37.3105449,277.365233 37.7060547,277.716797 C38.1015645,278.068361 38.6157195,278.244141 39.2485352,278.244141 Z" id="a" fill="#000000"></path>
            <path d="M47.6894531,276.691406 L47.6894531,277.773438 L48.5644531,277.773438 L48.5644531,278.15625 L47.6894531,278.15625 L47.6894531,280.972656 C47.6894531,281.207032 47.7317704,281.38151 47.8164062,281.496094 C47.9010421,281.610678 48.0423167,281.667969 48.2402344,281.667969 C48.3183598,281.667969 48.4446606,281.654948 48.6191406,281.628906 L48.6386719,282.011719 C48.5162754,282.05599 48.3496104,282.078125 48.1386719,282.078125 C47.8183578,282.078125 47.5852872,281.985027 47.4394531,281.798828 C47.2936191,281.612629 47.2207031,281.338543 47.2207031,280.976562 L47.2207031,278.15625 L46.4433594,278.15625 L46.4433594,277.773438 L47.2207031,277.773438 L47.2207031,276.691406 L47.6894531,276.691406 Z M50.9863281,279.6875 L49.1152344,279.6875 L49.1152344,279.292969 L50.9863281,279.292969 L50.9863281,279.6875 Z M53.9238281,282 L53.4550781,282 L53.4550781,276.875 L51.9082031,277.449219 L51.9082031,277.011719 L53.8457031,276.292969 L53.9238281,276.292969 L53.9238281,282 Z" id="t-1" fill="#000000"></path>
            <path d="M162.553223,279 C162.447753,278.70117 162.380371,278.258792 162.351074,277.672852 C161.981932,278.153323 161.511722,278.523924 160.94043,278.784668 C160.369138,279.045411 159.764163,279.175781 159.125488,279.175781 C158.211421,279.175781 157.471683,278.920901 156.90625,278.411133 C156.340817,277.901365 156.058105,277.25684 156.058105,276.477539 C156.058105,275.551753 156.443356,274.819339 157.213867,274.280273 C157.984379,273.741208 159.058099,273.47168 160.435059,273.47168 L162.342285,273.47168 L162.342285,272.390625 C162.342285,271.710934 162.132815,271.176271 161.713867,270.786621 C161.29492,270.396971 160.684086,270.202148 159.881348,270.202148 C159.148922,270.202148 158.542483,270.389647 158.062012,270.764648 C157.581541,271.13965 157.341309,271.590818 157.341309,272.118164 L156.286621,272.109375 C156.286621,271.353512 156.63818,270.698733 157.341309,270.14502 C158.044437,269.591306 158.908686,269.314453 159.934082,269.314453 C160.994634,269.314453 161.831052,269.579587 162.443359,270.109863 C163.055667,270.640139 163.370605,271.379878 163.388184,272.329102 L163.388184,276.829102 C163.388184,277.749028 163.484862,278.437498 163.678223,278.894531 L163.678223,279 L162.553223,279 Z M159.248535,278.244141 C159.951664,278.244141 160.580075,278.07422 161.133789,277.734375 C161.687503,277.39453 162.090331,276.940433 162.342285,276.37207 L162.342285,274.280273 L160.461426,274.280273 C159.412592,274.291992 158.592288,274.483885 158.000488,274.855957 C157.408688,275.228029 157.112793,275.739255 157.112793,276.389648 C157.112793,276.922854 157.310545,277.365233 157.706055,277.716797 C158.101564,278.068361 158.615719,278.244141 159.248535,278.244141 Z" id="a" fill="#000000"></path>
            <path d="M167.550781,276.691406 L167.550781,277.773438 L168.425781,277.773438 L168.425781,278.15625 L167.550781,278.15625 L167.550781,280.972656 C167.550781,281.207032 167.593099,281.38151 167.677734,281.496094 C167.76237,281.610678 167.903645,281.667969 168.101562,281.667969 C168.179688,281.667969 168.305989,281.654948 168.480469,281.628906 L168.5,282.011719 C168.377604,282.05599 168.210939,282.078125 168,282.078125 C167.679686,282.078125 167.446615,281.985027 167.300781,281.798828 C167.154947,281.612629 167.082031,281.338543 167.082031,280.976562 L167.082031,278.15625 L166.304688,278.15625 L166.304688,277.773438 L167.082031,277.773438 L167.082031,276.691406 L167.550781,276.691406 Z" id="t" fill="#000000"></path>
            <path d="M282.553223,279 C282.447753,278.70117 282.380371,278.258792 282.351074,277.672852 C281.981932,278.153323 281.511722,278.523924 280.94043,278.784668 C280.369138,279.045411 279.764163,279.175781 279.125488,279.175781 C278.211421,279.175781 277.471683,278.920901 276.90625,278.411133 C276.340817,277.901365 276.058105,277.25684 276.058105,276.477539 C276.058105,275.551753 276.443356,274.819339 277.213867,274.280273 C277.984379,273.741208 279.058099,273.47168 280.435059,273.47168 L282.342285,273.47168 L282.342285,272.390625 C282.342285,271.710934 282.132815,271.176271 281.713867,270.786621 C281.29492,270.396971 280.684086,270.202148 279.881348,270.202148 C279.148922,270.202148 278.542483,270.389647 278.062012,270.764648 C277.581541,271.13965 277.341309,271.590818 277.341309,272.118164 L276.286621,272.109375 C276.286621,271.353512 276.63818,270.698733 277.341309,270.14502 C278.044437,269.591306 278.908686,269.314453 279.934082,269.314453 C280.994634,269.314453 281.831052,269.579587 282.443359,270.109863 C283.055667,270.640139 283.370605,271.379878 283.388184,272.329102 L283.388184,276.829102 C283.388184,277.749028 283.484862,278.437498 283.678223,278.894531 L283.678223,279 L282.553223,279 Z M279.248535,278.244141 C279.951664,278.244141 280.580075,278.07422 281.133789,277.734375 C281.687503,277.39453 282.090331,276.940433 282.342285,276.37207 L282.342285,274.280273 L280.461426,274.280273 C279.412592,274.291992 278.592288,274.483885 278.000488,274.855957 C277.408688,275.228029 277.112793,275.739255 277.112793,276.389648 C277.112793,276.922854 277.310545,277.365233 277.706055,277.716797 C278.101564,278.068361 278.615719,278.244141 279.248535,278.244141 Z" id="a" fill="#000000"></path>
            <path d="M286.576172,276.691406 L286.576172,277.773438 L287.451172,277.773438 L287.451172,278.15625 L286.576172,278.15625 L286.576172,280.972656 C286.576172,281.207032 286.618489,281.38151 286.703125,281.496094 C286.787761,281.610678 286.929035,281.667969 287.126953,281.667969 C287.205079,281.667969 287.331379,281.654948 287.505859,281.628906 L287.525391,282.011719 C287.402994,282.05599 287.236329,282.078125 287.025391,282.078125 C286.705077,282.078125 286.472006,281.985027 286.326172,281.798828 C286.180338,281.612629 286.107422,281.338543 286.107422,280.976562 L286.107422,278.15625 L285.330078,278.15625 L285.330078,277.773438 L286.107422,277.773438 L286.107422,276.691406 L286.576172,276.691406 Z M290.271484,279.109375 L292.001953,279.109375 L292.001953,279.546875 L290.271484,279.546875 L290.271484,281.429688 L289.798828,281.429688 L289.798828,279.546875 L288.103516,279.546875 L288.103516,279.109375 L289.798828,279.109375 L289.798828,277.289062 L290.271484,277.289062 L290.271484,279.109375 Z M295.037109,282 L294.568359,282 L294.568359,276.875 L293.021484,277.449219 L293.021484,277.011719 L294.958984,276.292969 L295.037109,276.292969 L295.037109,282 Z" id="t+1" fill="#000000"></path>
            <polygon id="z" fill="#000000" points="327.688477 294.112305 333.867188 294.112305 333.867188 295 326.387695 295 326.387695 294.226562 332.15332 286.395508 326.563477 286.395508 326.563477 285.490234 333.480469 285.490234 333.480469 286.272461"></polygon>
            <path d="M336.576172,292.691406 L336.576172,293.773438 L337.451172,293.773438 L337.451172,294.15625 L336.576172,294.15625 L336.576172,296.972656 C336.576172,297.207032 336.618489,297.38151 336.703125,297.496094 C336.787761,297.610678 336.929035,297.667969 337.126953,297.667969 C337.205079,297.667969 337.331379,297.654948 337.505859,297.628906 L337.525391,298.011719 C337.402994,298.05599 337.236329,298.078125 337.025391,298.078125 C336.705077,298.078125 336.472006,297.985027 336.326172,297.798828 C336.180338,297.612629 336.107422,297.338543 336.107422,296.976562 L336.107422,294.15625 L335.330078,294.15625 L335.330078,293.773438 L336.107422,293.773438 L336.107422,292.691406 L336.576172,292.691406 Z M340.271484,295.109375 L342.001953,295.109375 L342.001953,295.546875 L340.271484,295.546875 L340.271484,297.429688 L339.798828,297.429688 L339.798828,295.546875 L338.103516,295.546875 L338.103516,295.109375 L339.798828,295.109375 L339.798828,293.289062 L340.271484,293.289062 L340.271484,295.109375 Z M345.037109,298 L344.568359,298 L344.568359,292.875 L343.021484,293.449219 L343.021484,293.011719 L344.958984,292.292969 L345.037109,292.292969 L345.037109,298 Z" id="t+1" fill="#000000"></path>
            <path d="M321.9375,198.449219 L319.458984,198.449219 L319.458984,202 L318.732422,202 L318.732422,193.46875 L321.503906,193.46875 C322.414067,193.46875 323.124997,193.689451 323.636719,194.130859 C324.14844,194.572268 324.404297,195.189449 324.404297,195.982422 C324.404297,196.5293 324.244142,197.011717 323.923828,197.429688 C323.603514,197.847658 323.173831,198.136718 322.634766,198.296875 L324.767578,201.923828 L324.767578,202 L324,202 L321.9375,198.449219 Z M319.458984,197.833984 L321.667969,197.833984 C322.273441,197.833984 322.759764,197.662111 323.126953,197.318359 C323.494142,196.974608 323.677734,196.5293 323.677734,195.982422 C323.677734,195.380856 323.48633,194.914064 323.103516,194.582031 C322.720701,194.249998 322.183597,194.083984 321.492188,194.083984 L319.458984,194.083984 L319.458984,197.833984 Z M332.71875,202 L331.998047,202 L327.09375,194.699219 L327.09375,202 L326.367188,202 L326.367188,193.46875 L327.09375,193.46875 L332.003906,200.775391 L332.003906,193.46875 L332.71875,193.46875 L332.71875,202 Z M341.238281,202 L340.517578,202 L335.613281,194.699219 L335.613281,202 L334.886719,202 L334.886719,193.46875 L335.613281,193.46875 L340.523438,200.775391 L340.523438,193.46875 L341.238281,193.46875 L341.238281,202 Z" id="RNN" fill="#000000"></path>
        </g>
    </g>
</svg>