<?xml version="1.0" encoding="UTF-8"?>
<svg width="661px" height="180px" viewBox="0 0 661 180" version="1.1" xmlns="http://www.w3.org/2000/svg" xmlns:xlink="http://www.w3.org/1999/xlink">
    <!-- Generator: Sketch 49.1 (51147) - http://www.bohemiancoding.com/sketch -->
    <title>Group 11</title>
    <desc>Created with Sketch.</desc>
    <defs></defs>
    <g id="Page-1" stroke="none" stroke-width="1" fill="none" fill-rule="evenodd">
        <g id="Group-11">
            <rect id="Rectangle-path" stroke="#000000" stroke-width="0.5" fill="#FFFFFF" fill-rule="nonzero" x="0.5" y="38.5" width="160" height="80" rx="12"></rect>
            <path d="M20.5749512,82.3779297 C20.5749512,81.7871064 20.3674337,81.3195818 19.9523926,80.9753418 C19.5373514,80.6311018 18.7780817,80.3039566 17.6745605,79.9938965 C16.5710394,79.6838363 15.7653834,79.345705 15.2575684,78.9794922 C14.5349085,78.4619115 14.173584,77.7832073 14.173584,76.9433594 C14.173584,76.1279256 14.509274,75.4650904 15.1806641,74.954834 C15.8520541,74.4445775 16.7101999,74.1894531 17.755127,74.1894531 C18.4631383,74.1894531 19.0966769,74.3261705 19.6557617,74.5996094 C20.2148465,74.8730482 20.6481918,75.2539038 20.9558105,75.7421875 C21.2634293,76.2304712 21.4172363,76.7748993 21.4172363,77.3754883 L20.5090332,77.3754883 C20.5090332,76.6479456 20.2600123,76.0632346 19.7619629,75.6213379 C19.2639135,75.1794411 18.5949749,74.9584961 17.755127,74.9584961 C16.9396932,74.9584961 16.2902856,75.140379 15.8068848,75.5041504 C15.3234839,75.8679217 15.0817871,76.3427705 15.0817871,76.9287109 C15.0817871,77.4707058 15.2990701,77.9125959 15.7336426,78.2543945 C16.1682151,78.5961931 16.8640089,78.8977038 17.8210449,79.1589355 C18.778081,79.4201673 19.5031714,79.6911607 19.9963379,79.9719238 C20.4895044,80.252687 20.8605945,80.588377 21.1096191,80.9790039 C21.3586438,81.3696309 21.4831543,81.831052 21.4831543,82.3632812 C21.4831543,83.2031292 21.1474643,83.8769506 20.4760742,84.3847656 C19.8046841,84.8925807 18.9196832,85.1464844 17.8210449,85.1464844 C17.069088,85.1464844 16.3793977,85.0122084 15.7519531,84.7436523 C15.1245086,84.4750963 14.6484391,84.0991235 14.3237305,83.6157227 C13.9990218,83.1323218 13.8366699,82.5781281 13.8366699,81.953125 L14.7375488,81.953125 C14.7375488,82.7050819 15.0183077,83.2983377 15.579834,83.7329102 C16.1413602,84.1674826 16.8884231,84.3847656 17.8210449,84.3847656 C18.6511272,84.3847656 19.3176244,84.201662 19.8205566,83.8354492 C20.3234888,83.4692365 20.5749512,82.9834015 20.5749512,82.3779297 Z M26.2878418,85.1464844 C25.6140103,85.1464844 25.0048855,84.9804704 24.4604492,84.6484375 C23.9160129,84.3164046 23.4924332,83.8537627 23.1896973,83.260498 C22.8869614,82.6672334 22.7355957,82.0019568 22.7355957,81.2646484 L22.7355957,80.949707 C22.7355957,80.1879845 22.8832993,79.5019562 23.1787109,78.8916016 C23.4741226,78.2812469 23.8854954,77.8015154 24.4128418,77.4523926 C24.9401882,77.1032697 25.5114715,76.9287109 26.126709,76.9287109 C27.0886279,76.9287109 27.8515597,77.2570768 28.4155273,77.9138184 C28.979495,78.5705599 29.2614746,79.4677677 29.2614746,80.6054688 L29.2614746,81.0961914 L23.6071777,81.0961914 L23.6071777,81.2646484 C23.6071777,82.1630904 23.8647435,82.911374 24.3798828,83.5095215 C24.8950221,84.107669 25.543209,84.4067383 26.3244629,84.4067383 C26.7932152,84.4067383 27.2070295,84.3212899 27.565918,84.1503906 C27.9248065,83.9794913 28.250731,83.7060566 28.5437012,83.3300781 L29.0930176,83.7475586 C28.4484831,84.6801804 27.5134339,85.1464844 26.2878418,85.1464844 Z M26.126709,77.6757812 C25.467526,77.6757812 24.9121116,77.9174781 24.4604492,78.4008789 C24.0087868,78.8842798 23.7341313,79.5336873 23.6364746,80.3491211 L28.3898926,80.3491211 L28.3898926,80.2539062 C28.3654784,79.4921837 28.1481954,78.8720727 27.7380371,78.3935547 C27.3278788,77.9150367 26.7907748,77.6757812 26.126709,77.6757812 Z M31.8029785,77.0751953 L31.8322754,78.4301758 C32.1301284,77.9418921 32.5012185,77.5695814 32.9455566,77.3132324 C33.3898948,77.0568835 33.8806125,76.9287109 34.4177246,76.9287109 C35.2673382,76.9287109 35.8996561,77.1679664 36.3146973,77.6464844 C36.7297384,78.1250024 36.9396972,78.8427687 36.9445801,79.7998047 L36.9445801,85 L36.072998,85 L36.072998,79.7924805 C36.0681152,79.0844691 35.9179702,78.5571306 35.6225586,78.2104492 C35.327147,77.8637678 34.8547396,77.6904297 34.2053223,77.6904297 C33.6633274,77.6904297 33.1835958,77.8601057 32.7661133,78.1994629 C32.3486307,78.5388201 32.0397959,78.9965792 31.8395996,79.5727539 L31.8395996,85 L30.9680176,85 L30.9680176,77.0751953 L31.8029785,77.0751953 Z M43.9538574,82.9858398 C43.9538574,82.5512674 43.7792986,82.2021498 43.4301758,81.9384766 C43.0810529,81.6748034 42.5549352,81.4685066 41.8518066,81.3195801 C41.1486781,81.1706536 40.6030293,80.9997568 40.2148438,80.8068848 C39.8266582,80.6140127 39.5385752,80.3784194 39.3505859,80.1000977 C39.1625967,79.821776 39.0686035,79.4848653 39.0686035,79.0893555 C39.0686035,78.4643523 39.3298314,77.9480001 39.8522949,77.5402832 C40.3747585,77.1325663 41.0436971,76.9287109 41.8591309,76.9287109 C42.7429243,76.9287109 43.4521458,77.1472146 43.9868164,77.5842285 C44.521487,78.0212424 44.7888184,78.5913051 44.7888184,79.2944336 L43.9099121,79.2944336 C43.9099121,78.8305641 43.7158223,78.4448258 43.3276367,78.137207 C42.9394512,77.8295883 42.4499541,77.6757812 41.8591309,77.6757812 C41.2829561,77.6757812 40.8203142,77.8039538 40.4711914,78.0603027 C40.1220686,78.3166517 39.9475098,78.6499003 39.9475098,79.0600586 C39.9475098,79.4555684 40.092772,79.7619618 40.3833008,79.979248 C40.6738296,80.1965343 41.2036094,80.3955069 41.9726562,80.5761719 C42.7417031,80.7568368 43.3178692,80.949706 43.7011719,81.1547852 C44.0844746,81.3598643 44.3688956,81.6064439 44.5544434,81.8945312 C44.7399912,82.1826186 44.8327637,82.5317362 44.8327637,82.9418945 C44.8327637,83.6108432 44.562991,84.1455058 44.0234375,84.5458984 C43.483884,84.9462911 42.7795454,85.1464844 41.9104004,85.1464844 C40.9875442,85.1464844 40.2392607,84.9230979 39.6655273,84.4763184 C39.091794,84.0295388 38.8049316,83.4643589 38.8049316,82.7807617 L39.6838379,82.7807617 C39.7180177,83.2934596 39.93408,83.6926255 40.3320312,83.9782715 C40.7299825,84.2639174 41.2561002,84.4067383 41.9104004,84.4067383 C42.520755,84.4067383 43.0139141,84.2724623 43.3898926,84.0039062 C43.765871,83.7353502 43.9538574,83.3959981 43.9538574,82.9858398 Z M46.3195801,80.9204102 C46.3195801,80.1586876 46.4672837,79.4726593 46.7626953,78.8623047 C47.0581069,78.2519501 47.4755832,77.7771013 48.0151367,77.4377441 C48.5546902,77.098387 49.1662563,76.9287109 49.8498535,76.9287109 C50.9045463,76.9287109 51.7590299,77.2985803 52.4133301,78.0383301 C53.0676302,78.7780799 53.3947754,79.7582947 53.3947754,80.9790039 L53.3947754,81.1621094 C53.3947754,81.9287148 53.2470718,82.6184051 52.9516602,83.2312012 C52.6562485,83.8439972 52.2399929,84.3164046 51.7028809,84.6484375 C51.1657688,84.9804704 50.552982,85.1464844 49.864502,85.1464844 C48.814692,85.1464844 47.9614291,84.776615 47.3046875,84.0368652 C46.6479459,83.2971154 46.3195801,82.3169006 46.3195801,81.0961914 L46.3195801,80.9204102 Z M47.1984863,81.1621094 C47.1984863,82.1093797 47.4438452,82.8869599 47.9345703,83.494873 C48.4252954,84.1027862 49.0685995,84.4067383 49.864502,84.4067383 C50.6555215,84.4067383 51.2963843,84.1027862 51.7871094,83.494873 C52.2778345,82.8869599 52.5231934,82.0849659 52.5231934,81.0888672 L52.5231934,80.9204102 C52.5231934,80.3149384 52.4108898,79.7607447 52.1862793,79.2578125 C51.9616688,78.7548803 51.6467305,78.3654799 51.2414551,78.0895996 C50.8361796,77.8137193 50.3723171,77.6757812 49.8498535,77.6757812 C49.0685996,77.6757812 48.431399,77.9821747 47.9382324,78.5949707 C47.4450659,79.2077667 47.1984863,80.0097607 47.1984863,81.0009766 L47.1984863,81.1621094 Z M58.8659668,77.8222656 C58.680419,77.7880858 58.4826671,77.7709961 58.2727051,77.7709961 C57.7258273,77.7709961 57.2631855,77.9235825 56.8847656,78.2287598 C56.5063458,78.5339371 56.2365731,78.9770479 56.0754395,79.5581055 L56.0754395,85 L55.2038574,85 L55.2038574,77.0751953 L56.060791,77.0751953 L56.0754395,78.3349609 C56.539309,77.3974563 57.2839304,76.9287109 58.3093262,76.9287109 C58.553468,76.9287109 58.7463372,76.9604489 58.8879395,77.0239258 L58.8659668,77.8222656 Z M62.8942871,83.7402344 L65.2087402,77.0751953 L66.1535645,77.0751953 L62.7697754,86.3476562 L62.5939941,86.7578125 C62.1594217,87.7197314 61.4880417,88.2006836 60.579834,88.2006836 C60.369872,88.2006836 60.1452649,88.1665042 59.9060059,88.0981445 L59.8986816,87.3730469 L60.3527832,87.4169922 C60.7824729,87.4169922 61.1303698,87.3107921 61.3964844,87.0983887 C61.662599,86.8859853 61.8884268,86.5209987 62.0739746,86.003418 L62.4621582,84.934082 L59.473877,77.0751953 L60.4333496,77.0751953 L62.8942871,83.7402344 Z M72.4597168,85 L71.5588379,85 L71.5588379,74.3359375 L72.4597168,74.3359375 L72.4597168,85 Z M75.982666,77.0751953 L76.0119629,78.4301758 C76.3098159,77.9418921 76.680906,77.5695814 77.1252441,77.3132324 C77.5695823,77.0568835 78.0603,76.9287109 78.5974121,76.9287109 C79.4470257,76.9287109 80.0793436,77.1679664 80.4943848,77.6464844 C80.9094259,78.1250024 81.1193847,78.8427687 81.1242676,79.7998047 L81.1242676,85 L80.2526855,85 L80.2526855,79.7924805 C80.2478027,79.0844691 80.0976577,78.5571306 79.8022461,78.2104492 C79.5068345,77.8637678 79.0344271,77.6904297 78.3850098,77.6904297 C77.8430149,77.6904297 77.3632833,77.8601057 76.9458008,78.1994629 C76.5283182,78.5388201 76.2194834,78.9965792 76.0192871,79.5727539 L76.0192871,85 L75.1477051,85 L75.1477051,77.0751953 L75.982666,77.0751953 Z M84.017334,85 L84.017334,77.7929688 L82.7062988,77.7929688 L82.7062988,77.0751953 L84.017334,77.0751953 L84.017334,76.1157227 C84.017334,75.3051717 84.2236307,74.6826194 84.6362305,74.2480469 C85.0488302,73.8134744 85.6237756,73.5961914 86.361084,73.5961914 C86.6931169,73.5961914 87.0031724,73.6376949 87.2912598,73.7207031 L87.2253418,74.453125 C86.9812,74.394531 86.7150893,74.3652344 86.427002,74.3652344 C85.9436011,74.3652344 85.5676283,74.5153794 85.2990723,74.8156738 C85.0305162,75.1159683 84.8962402,75.5419894 84.8962402,76.09375 L84.8962402,77.0751953 L86.7858887,77.0751953 L86.7858887,77.7929688 L84.8962402,77.7929688 L84.8962402,85 L84.017334,85 Z M87.869873,80.9204102 C87.869873,80.1586876 88.0175766,79.4726593 88.3129883,78.8623047 C88.6083999,78.2519501 89.0258762,77.7771013 89.5654297,77.4377441 C90.1049832,77.098387 90.7165493,76.9287109 91.4001465,76.9287109 C92.4548393,76.9287109 93.3093229,77.2985803 93.963623,78.0383301 C94.6179232,78.7780799 94.9450684,79.7582947 94.9450684,80.9790039 L94.9450684,81.1621094 C94.9450684,81.9287148 94.7973648,82.6184051 94.5019531,83.2312012 C94.2065415,83.8439972 93.7902859,84.3164046 93.2531738,84.6484375 C92.7160618,84.9804704 92.1032749,85.1464844 91.4147949,85.1464844 C90.364985,85.1464844 89.511722,84.776615 88.8549805,84.0368652 C88.1982389,83.2971154 87.869873,82.3169006 87.869873,81.0961914 L87.869873,80.9204102 Z M88.7487793,81.1621094 C88.7487793,82.1093797 88.9941382,82.8869599 89.4848633,83.494873 C89.9755884,84.1027862 90.6188925,84.4067383 91.4147949,84.4067383 C92.2058145,84.4067383 92.8466772,84.1027862 93.3374023,83.494873 C93.8281275,82.8869599 94.0734863,82.0849659 94.0734863,81.0888672 L94.0734863,80.9204102 C94.0734863,80.3149384 93.9611828,79.7607447 93.7365723,79.2578125 C93.5119618,78.7548803 93.1970235,78.3654799 92.791748,78.0895996 C92.3864726,77.8137193 91.92261,77.6757812 91.4001465,77.6757812 C90.6188926,77.6757812 89.9816919,77.9821747 89.4885254,78.5949707 C88.9953589,79.2077667 88.7487793,80.0097607 88.7487793,81.0009766 L88.7487793,81.1621094 Z M100.41626,77.8222656 C100.230712,77.7880858 100.03296,77.7709961 99.822998,77.7709961 C99.2761203,77.7709961 98.8134785,77.9235825 98.4350586,78.2287598 C98.0566387,78.5339371 97.786866,78.9770479 97.6257324,79.5581055 L97.6257324,85 L96.7541504,85 L96.7541504,77.0751953 L97.611084,77.0751953 L97.6257324,78.3349609 C98.0896019,77.3974563 98.8342234,76.9287109 99.8596191,76.9287109 C100.103761,76.9287109 100.29663,76.9604489 100.438232,77.0239258 L100.41626,77.8222656 Z M102.598877,77.0751953 L102.628174,78.3642578 C102.921144,77.8857398 103.287351,77.5268567 103.726807,77.2875977 C104.166262,77.0483386 104.654538,76.9287109 105.19165,76.9287109 C106.441657,76.9287109 107.235106,77.4414011 107.572021,78.4667969 C107.855226,77.9736303 108.23364,77.5939955 108.707275,77.3278809 C109.180911,77.0617662 109.703366,76.9287109 110.274658,76.9287109 C111.973885,76.9287109 112.840576,77.856436 112.874756,79.7119141 L112.874756,85 L111.99585,85 L111.99585,79.777832 C111.990967,79.0698207 111.83838,78.5449236 111.538086,78.203125 C111.237791,77.8613264 110.748294,77.6904297 110.06958,77.6904297 C109.439694,77.7001954 108.907473,77.9040507 108.4729,78.302002 C108.038328,78.6999532 107.796631,79.1845675 107.747803,79.7558594 L107.747803,85 L106.868896,85 L106.868896,79.7119141 C106.864014,79.0331997 106.704103,78.526613 106.38916,78.1921387 C106.074217,77.8576643 105.589603,77.6904297 104.935303,77.6904297 C104.383542,77.6904297 103.909914,77.8478988 103.514404,78.1628418 C103.118895,78.4777848 102.825929,78.9453094 102.635498,79.5654297 L102.635498,85 L101.756592,85 L101.756592,77.0751953 L102.598877,77.0751953 Z M120.096436,85 C120.008544,84.7509753 119.952393,84.3823267 119.927979,83.894043 C119.62036,84.2944356 119.228518,84.6032704 118.752441,84.8205566 C118.276365,85.0378429 117.772219,85.1464844 117.23999,85.1464844 C116.478268,85.1464844 115.861819,84.9340842 115.390625,84.5092773 C114.919431,84.0844705 114.683838,83.5473665 114.683838,82.8979492 C114.683838,82.126461 115.00488,81.5161155 115.646973,81.0668945 C116.289066,80.6176735 117.183832,80.3930664 118.331299,80.3930664 L119.920654,80.3930664 L119.920654,79.4921875 C119.920654,78.9257784 119.746095,78.4802262 119.396973,78.1555176 C119.04785,77.8308089 118.538822,77.668457 117.869873,77.668457 C117.259518,77.668457 116.754152,77.8247055 116.35376,78.137207 C115.953367,78.4497086 115.753174,78.8256814 115.753174,79.2651367 L114.874268,79.2578125 C114.874268,78.6279265 115.167233,78.0822777 115.753174,77.6208496 C116.339114,77.1594215 117.059322,76.9287109 117.913818,76.9287109 C118.797612,76.9287109 119.494626,77.149656 120.004883,77.5915527 C120.515139,78.0334495 120.777588,78.6498984 120.792236,79.440918 L120.792236,83.190918 C120.792236,83.9575234 120.872802,84.5312481 121.033936,84.9121094 L121.033936,85 L120.096436,85 Z M117.342529,84.3701172 C117.92847,84.3701172 118.452146,84.228517 118.913574,83.9453125 C119.375002,83.662108 119.710692,83.2836938 119.920654,82.8100586 L119.920654,81.0668945 L118.353271,81.0668945 C117.479244,81.0766602 116.795657,81.2365707 116.30249,81.5466309 C115.809324,81.856691 115.562744,82.2827121 115.562744,82.824707 C115.562744,83.2690452 115.727537,83.6376938 116.057129,83.9306641 C116.38672,84.2236343 116.815183,84.3701172 117.342529,84.3701172 Z M124.490967,75.0463867 L124.490967,77.0751953 L126.131592,77.0751953 L126.131592,77.7929688 L124.490967,77.7929688 L124.490967,83.0737305 C124.490967,83.5131858 124.570312,83.840331 124.729004,84.0551758 C124.887696,84.2700206 125.152586,84.3774414 125.523682,84.3774414 C125.670167,84.3774414 125.906981,84.3530276 126.234131,84.3041992 L126.270752,85.0219727 C126.041259,85.1049809 125.728762,85.1464844 125.333252,85.1464844 C124.732663,85.1464844 124.295656,84.9719256 124.022217,84.6228027 C123.748778,84.2736799 123.612061,83.759769 123.612061,83.0810547 L123.612061,77.7929688 L122.154541,77.7929688 L122.154541,77.0751953 L123.612061,77.0751953 L123.612061,75.0463867 L124.490967,75.0463867 Z M128.929443,85 L128.050537,85 L128.050537,77.0751953 L128.929443,77.0751953 L128.929443,85 Z M127.896729,74.7827148 C127.896729,74.6166984 127.950439,74.4763189 128.057861,74.3615723 C128.165284,74.2468256 128.311767,74.1894531 128.497314,74.1894531 C128.682862,74.1894531 128.830566,74.2468256 128.94043,74.3615723 C129.050294,74.4763189 129.105225,74.6166984 129.105225,74.7827148 C129.105225,74.9487313 129.050294,75.0878901 128.94043,75.2001953 C128.830566,75.3125006 128.682862,75.3686523 128.497314,75.3686523 C128.311767,75.3686523 128.165284,75.3125006 128.057861,75.2001953 C127.950439,75.0878901 127.896729,74.9487313 127.896729,74.7827148 Z M130.826416,80.9204102 C130.826416,80.1586876 130.97412,79.4726593 131.269531,78.8623047 C131.564943,78.2519501 131.982419,77.7771013 132.521973,77.4377441 C133.061526,77.098387 133.673092,76.9287109 134.356689,76.9287109 C135.411382,76.9287109 136.265866,77.2985803 136.920166,78.0383301 C137.574466,78.7780799 137.901611,79.7582947 137.901611,80.9790039 L137.901611,81.1621094 C137.901611,81.9287148 137.753908,82.6184051 137.458496,83.2312012 C137.163084,83.8439972 136.746829,84.3164046 136.209717,84.6484375 C135.672605,84.9804704 135.059818,85.1464844 134.371338,85.1464844 C133.321528,85.1464844 132.468265,84.776615 131.811523,84.0368652 C131.154782,83.2971154 130.826416,82.3169006 130.826416,81.0961914 L130.826416,80.9204102 Z M131.705322,81.1621094 C131.705322,82.1093797 131.950681,82.8869599 132.441406,83.494873 C132.932131,84.1027862 133.575435,84.4067383 134.371338,84.4067383 C135.162357,84.4067383 135.80322,84.1027862 136.293945,83.494873 C136.78467,82.8869599 137.030029,82.0849659 137.030029,81.0888672 L137.030029,80.9204102 C137.030029,80.3149384 136.917726,79.7607447 136.693115,79.2578125 C136.468505,78.7548803 136.153566,78.3654799 135.748291,78.0895996 C135.343016,77.8137193 134.879153,77.6757812 134.356689,77.6757812 C133.575436,77.6757812 132.938235,77.9821747 132.445068,78.5949707 C131.951902,79.2077667 131.705322,80.0097607 131.705322,81.0009766 L131.705322,81.1621094 Z M140.545654,77.0751953 L140.574951,78.4301758 C140.872804,77.9418921 141.243894,77.5695814 141.688232,77.3132324 C142.132571,77.0568835 142.623288,76.9287109 143.1604,76.9287109 C144.010014,76.9287109 144.642332,77.1679664 145.057373,77.6464844 C145.472414,78.1250024 145.682373,78.8427687 145.687256,79.7998047 L145.687256,85 L144.815674,85 L144.815674,79.7924805 C144.810791,79.0844691 144.660646,78.5571306 144.365234,78.2104492 C144.069823,77.8637678 143.597415,77.6904297 142.947998,77.6904297 C142.406003,77.6904297 141.926272,77.8601057 141.508789,78.1994629 C141.091307,78.5388201 140.782472,78.9965792 140.582275,79.5727539 L140.582275,85 L139.710693,85 L139.710693,77.0751953 L140.545654,77.0751953 Z" id="Sensory-Information" fill="#000000"></path>
            <rect id="Rectangle-path" stroke="#000000" stroke-width="0.5" fill="#FFFFFF" fill-rule="nonzero" x="220.5" y="38.5" width="160" height="80" rx="12"></rect>
            <path d="M242.720947,82.3779297 C242.720947,81.7871064 242.51343,81.3195818 242.098389,80.9753418 C241.683348,80.6311018 240.924078,80.3039566 239.820557,79.9938965 C238.717035,79.6838363 237.911379,79.345705 237.403564,78.9794922 C236.680905,78.4619115 236.31958,77.7832073 236.31958,76.9433594 C236.31958,76.1279256 236.65527,75.4650904 237.32666,74.954834 C237.99805,74.4445775 238.856196,74.1894531 239.901123,74.1894531 C240.609134,74.1894531 241.242673,74.3261705 241.801758,74.5996094 C242.360843,74.8730482 242.794188,75.2539038 243.101807,75.7421875 C243.409425,76.2304712 243.563232,76.7748993 243.563232,77.3754883 L242.655029,77.3754883 C242.655029,76.6479456 242.406008,76.0632346 241.907959,75.6213379 C241.40991,75.1794411 240.740971,74.9584961 239.901123,74.9584961 C239.085689,74.9584961 238.436282,75.140379 237.952881,75.5041504 C237.46948,75.8679217 237.227783,76.3427705 237.227783,76.9287109 C237.227783,77.4707058 237.445066,77.9125959 237.879639,78.2543945 C238.314211,78.5961931 239.010005,78.8977038 239.967041,79.1589355 C240.924077,79.4201673 241.649167,79.6911607 242.142334,79.9719238 C242.635501,80.252687 243.006591,80.588377 243.255615,80.9790039 C243.50464,81.3696309 243.62915,81.831052 243.62915,82.3632812 C243.62915,83.2031292 243.29346,83.8769506 242.62207,84.3847656 C241.95068,84.8925807 241.065679,85.1464844 239.967041,85.1464844 C239.215084,85.1464844 238.525394,85.0122084 237.897949,84.7436523 C237.270505,84.4750963 236.794435,84.0991235 236.469727,83.6157227 C236.145018,83.1323218 235.982666,82.5781281 235.982666,81.953125 L236.883545,81.953125 C236.883545,82.7050819 237.164304,83.2983377 237.72583,83.7329102 C238.287356,84.1674826 239.034419,84.3847656 239.967041,84.3847656 C240.797123,84.3847656 241.463621,84.201662 241.966553,83.8354492 C242.469485,83.4692365 242.720947,82.9834015 242.720947,82.3779297 Z M246.236572,78.4155273 C246.52466,77.9418922 246.893308,77.5756849 247.342529,77.3168945 C247.79175,77.0581042 248.282468,76.9287109 248.814697,76.9287109 C249.664311,76.9287109 250.296629,77.1679664 250.71167,77.6464844 C251.126711,78.1250024 251.33667,78.8427687 251.341553,79.7998047 L251.341553,85 L250.469971,85 L250.469971,79.7924805 C250.465088,79.0844691 250.314943,78.5571306 250.019531,78.2104492 C249.72412,77.8637678 249.251712,77.6904297 248.602295,77.6904297 C248.0603,77.6904297 247.580568,77.8601057 247.163086,78.1994629 C246.745603,78.5388201 246.436769,78.9965792 246.236572,79.5727539 L246.236572,85 L245.36499,85 L245.36499,73.75 L246.236572,73.75 L246.236572,78.4155273 Z M253.114014,80.9204102 C253.114014,80.1586876 253.261717,79.4726593 253.557129,78.8623047 C253.852541,78.2519501 254.270017,77.7771013 254.80957,77.4377441 C255.349124,77.098387 255.96069,76.9287109 256.644287,76.9287109 C257.69898,76.9287109 258.553464,77.2985803 259.207764,78.0383301 C259.862064,78.7780799 260.189209,79.7582947 260.189209,80.9790039 L260.189209,81.1621094 C260.189209,81.9287148 260.041505,82.6184051 259.746094,83.2312012 C259.450682,83.8439972 259.034427,84.3164046 258.497314,84.6484375 C257.960202,84.9804704 257.347416,85.1464844 256.658936,85.1464844 C255.609126,85.1464844 254.755863,84.776615 254.099121,84.0368652 C253.44238,83.2971154 253.114014,82.3169006 253.114014,81.0961914 L253.114014,80.9204102 Z M253.99292,81.1621094 C253.99292,82.1093797 254.238279,82.8869599 254.729004,83.494873 C255.219729,84.1027862 255.863033,84.4067383 256.658936,84.4067383 C257.449955,84.4067383 258.090818,84.1027862 258.581543,83.494873 C259.072268,82.8869599 259.317627,82.0849659 259.317627,81.0888672 L259.317627,80.9204102 C259.317627,80.3149384 259.205323,79.7607447 258.980713,79.2578125 C258.756102,78.7548803 258.441164,78.3654799 258.035889,78.0895996 C257.630613,77.8137193 257.166751,77.6757812 256.644287,77.6757812 C255.863033,77.6757812 255.225833,77.9821747 254.732666,78.5949707 C254.239499,79.2077667 253.99292,80.0097607 253.99292,81.0009766 L253.99292,81.1621094 Z M265.6604,77.8222656 C265.474853,77.7880858 265.277101,77.7709961 265.067139,77.7709961 C264.520261,77.7709961 264.057619,77.9235825 263.679199,78.2287598 C263.300779,78.5339371 263.031007,78.9770479 262.869873,79.5581055 L262.869873,85 L261.998291,85 L261.998291,77.0751953 L262.855225,77.0751953 L262.869873,78.3349609 C263.333743,77.3974563 264.078364,76.9287109 265.10376,76.9287109 C265.347902,76.9287109 265.540771,76.9604489 265.682373,77.0239258 L265.6604,77.8222656 Z M268.773193,75.0463867 L268.773193,77.0751953 L270.413818,77.0751953 L270.413818,77.7929688 L268.773193,77.7929688 L268.773193,83.0737305 C268.773193,83.5131858 268.852538,83.840331 269.01123,84.0551758 C269.169923,84.2700206 269.434813,84.3774414 269.805908,84.3774414 C269.952393,84.3774414 270.189207,84.3530276 270.516357,84.3041992 L270.552979,85.0219727 C270.323485,85.1049809 270.010988,85.1464844 269.615479,85.1464844 C269.01489,85.1464844 268.577882,84.9719256 268.304443,84.6228027 C268.031004,84.2736799 267.894287,83.759769 267.894287,83.0810547 L267.894287,77.7929688 L266.436768,77.7929688 L266.436768,77.0751953 L267.894287,77.0751953 L267.894287,75.0463867 L268.773193,75.0463867 Z M274.954834,80.6640625 L271.446533,80.6640625 L271.446533,79.9243164 L274.954834,79.9243164 L274.954834,80.6640625 Z M277.884521,75.0463867 L277.884521,77.0751953 L279.525146,77.0751953 L279.525146,77.7929688 L277.884521,77.7929688 L277.884521,83.0737305 C277.884521,83.5131858 277.963866,83.840331 278.122559,84.0551758 C278.281251,84.2700206 278.546141,84.3774414 278.917236,84.3774414 C279.063721,84.3774414 279.300535,84.3530276 279.627686,84.3041992 L279.664307,85.0219727 C279.434813,85.1049809 279.122316,85.1464844 278.726807,85.1464844 C278.126218,85.1464844 277.68921,84.9719256 277.415771,84.6228027 C277.142333,84.2736799 277.005615,83.759769 277.005615,83.0810547 L277.005615,77.7929688 L275.548096,77.7929688 L275.548096,77.0751953 L277.005615,77.0751953 L277.005615,75.0463867 L277.884521,75.0463867 Z M284.4104,85.1464844 C283.736569,85.1464844 283.127444,84.9804704 282.583008,84.6484375 C282.038571,84.3164046 281.614992,83.8537627 281.312256,83.260498 C281.00952,82.6672334 280.858154,82.0019568 280.858154,81.2646484 L280.858154,80.949707 C280.858154,80.1879845 281.005858,79.5019562 281.30127,78.8916016 C281.596681,78.2812469 282.008054,77.8015154 282.5354,77.4523926 C283.062747,77.1032697 283.63403,76.9287109 284.249268,76.9287109 C285.211186,76.9287109 285.974118,77.2570768 286.538086,77.9138184 C287.102054,78.5705599 287.384033,79.4677677 287.384033,80.6054688 L287.384033,81.0961914 L281.729736,81.0961914 L281.729736,81.2646484 C281.729736,82.1630904 281.987302,82.911374 282.502441,83.5095215 C283.017581,84.107669 283.665768,84.4067383 284.447021,84.4067383 C284.915774,84.4067383 285.329588,84.3212899 285.688477,84.1503906 C286.047365,83.9794913 286.37329,83.7060566 286.66626,83.3300781 L287.215576,83.7475586 C286.571042,84.6801804 285.635992,85.1464844 284.4104,85.1464844 Z M284.249268,77.6757812 C283.590085,77.6757812 283.03467,77.9174781 282.583008,78.4008789 C282.131345,78.8842798 281.85669,79.5336873 281.759033,80.3491211 L286.512451,80.3491211 L286.512451,80.2539062 C286.488037,79.4921837 286.270754,78.8720727 285.860596,78.3935547 C285.450437,77.9150367 284.913333,77.6757812 284.249268,77.6757812 Z M292.752686,77.8222656 C292.567138,77.7880858 292.369386,77.7709961 292.159424,77.7709961 C291.612546,77.7709961 291.149904,77.9235825 290.771484,78.2287598 C290.393065,78.5339371 290.123292,78.9770479 289.962158,79.5581055 L289.962158,85 L289.090576,85 L289.090576,77.0751953 L289.94751,77.0751953 L289.962158,78.3349609 C290.426028,77.3974563 291.170649,76.9287109 292.196045,76.9287109 C292.440187,76.9287109 292.633056,76.9604489 292.774658,77.0239258 L292.752686,77.8222656 Z M294.935303,77.0751953 L294.9646,78.3642578 C295.25757,77.8857398 295.623777,77.5268567 296.063232,77.2875977 C296.502688,77.0483386 296.990964,76.9287109 297.528076,76.9287109 C298.778082,76.9287109 299.571532,77.4414011 299.908447,78.4667969 C300.191652,77.9736303 300.570066,77.5939955 301.043701,77.3278809 C301.517336,77.0617662 302.039792,76.9287109 302.611084,76.9287109 C304.310311,76.9287109 305.177002,77.856436 305.211182,79.7119141 L305.211182,85 L304.332275,85 L304.332275,79.777832 C304.327393,79.0698207 304.174806,78.5449236 303.874512,78.203125 C303.574217,77.8613264 303.08472,77.6904297 302.406006,77.6904297 C301.77612,77.7001954 301.243899,77.9040507 300.809326,78.302002 C300.374754,78.6999532 300.133057,79.1845675 300.084229,79.7558594 L300.084229,85 L299.205322,85 L299.205322,79.7119141 C299.200439,79.0331997 299.040529,78.526613 298.725586,78.1921387 C298.410643,77.8576643 297.926029,77.6904297 297.271729,77.6904297 C296.719968,77.6904297 296.24634,77.8478988 295.85083,78.1628418 C295.45532,78.4777848 295.162354,78.9453094 294.971924,79.5654297 L294.971924,85 L294.093018,85 L294.093018,77.0751953 L294.935303,77.0751953 Z M312.476807,74.3359375 L316.409912,83.7475586 L320.357666,74.3359375 L321.558838,74.3359375 L321.558838,85 L320.657959,85 L320.657959,80.3564453 L320.731201,75.5957031 L316.761475,85 L316.065674,85 L312.110596,75.6323242 L312.183838,80.3271484 L312.183838,85 L311.282959,85 L311.282959,74.3359375 L312.476807,74.3359375 Z M327.125244,85.1464844 C326.451413,85.1464844 325.842288,84.9804704 325.297852,84.6484375 C324.753415,84.3164046 324.329835,83.8537627 324.0271,83.260498 C323.724364,82.6672334 323.572998,82.0019568 323.572998,81.2646484 L323.572998,80.949707 C323.572998,80.1879845 323.720702,79.5019562 324.016113,78.8916016 C324.311525,78.2812469 324.722898,77.8015154 325.250244,77.4523926 C325.777591,77.1032697 326.348874,76.9287109 326.964111,76.9287109 C327.92603,76.9287109 328.688962,77.2570768 329.25293,77.9138184 C329.816897,78.5705599 330.098877,79.4677677 330.098877,80.6054688 L330.098877,81.0961914 L324.44458,81.0961914 L324.44458,81.2646484 C324.44458,82.1630904 324.702146,82.911374 325.217285,83.5095215 C325.732424,84.107669 326.380611,84.4067383 327.161865,84.4067383 C327.630618,84.4067383 328.044432,84.3212899 328.40332,84.1503906 C328.762209,83.9794913 329.088133,83.7060566 329.381104,83.3300781 L329.93042,83.7475586 C329.285885,84.6801804 328.350836,85.1464844 327.125244,85.1464844 Z M326.964111,77.6757812 C326.304928,77.6757812 325.749514,77.9174781 325.297852,78.4008789 C324.846189,78.8842798 324.571534,79.5336873 324.473877,80.3491211 L329.227295,80.3491211 L329.227295,80.2539062 C329.202881,79.4921837 328.985598,78.8720727 328.575439,78.3935547 C328.165281,77.9150367 327.628177,77.6757812 326.964111,77.6757812 Z M332.60376,77.0751953 L332.633057,78.3642578 C332.926027,77.8857398 333.292234,77.5268567 333.731689,77.2875977 C334.171145,77.0483386 334.659421,76.9287109 335.196533,76.9287109 C336.446539,76.9287109 337.239989,77.4414011 337.576904,78.4667969 C337.860109,77.9736303 338.238523,77.5939955 338.712158,77.3278809 C339.185793,77.0617662 339.708249,76.9287109 340.279541,76.9287109 C341.978768,76.9287109 342.845459,77.856436 342.879639,79.7119141 L342.879639,85 L342.000732,85 L342.000732,79.777832 C341.99585,79.0698207 341.843263,78.5449236 341.542969,78.203125 C341.242674,77.8613264 340.753177,77.6904297 340.074463,77.6904297 C339.444577,77.7001954 338.912356,77.9040507 338.477783,78.302002 C338.043211,78.6999532 337.801514,79.1845675 337.752686,79.7558594 L337.752686,85 L336.873779,85 L336.873779,79.7119141 C336.868896,79.0331997 336.708986,78.526613 336.394043,78.1921387 C336.0791,77.8576643 335.594486,77.6904297 334.940186,77.6904297 C334.388425,77.6904297 333.914797,77.8478988 333.519287,78.1628418 C333.123777,78.4777848 332.830811,78.9453094 332.640381,79.5654297 L332.640381,85 L331.761475,85 L331.761475,77.0751953 L332.60376,77.0751953 Z M344.615479,80.9204102 C344.615479,80.1586876 344.763182,79.4726593 345.058594,78.8623047 C345.354005,78.2519501 345.771482,77.7771013 346.311035,77.4377441 C346.850589,77.098387 347.462155,76.9287109 348.145752,76.9287109 C349.200445,76.9287109 350.054928,77.2985803 350.709229,78.0383301 C351.363529,78.7780799 351.690674,79.7582947 351.690674,80.9790039 L351.690674,81.1621094 C351.690674,81.9287148 351.54297,82.6184051 351.247559,83.2312012 C350.952147,83.8439972 350.535891,84.3164046 349.998779,84.6484375 C349.461667,84.9804704 348.84888,85.1464844 348.1604,85.1464844 C347.11059,85.1464844 346.257328,84.776615 345.600586,84.0368652 C344.943844,83.2971154 344.615479,82.3169006 344.615479,81.0961914 L344.615479,80.9204102 Z M345.494385,81.1621094 C345.494385,82.1093797 345.739744,82.8869599 346.230469,83.494873 C346.721194,84.1027862 347.364498,84.4067383 348.1604,84.4067383 C348.95142,84.4067383 349.592283,84.1027862 350.083008,83.494873 C350.573733,82.8869599 350.819092,82.0849659 350.819092,81.0888672 L350.819092,80.9204102 C350.819092,80.3149384 350.706788,79.7607447 350.482178,79.2578125 C350.257567,78.7548803 349.942629,78.3654799 349.537354,78.0895996 C349.132078,77.8137193 348.668216,77.6757812 348.145752,77.6757812 C347.364498,77.6757812 346.727297,77.9821747 346.234131,78.5949707 C345.740964,79.2077667 345.494385,80.0097607 345.494385,81.0009766 L345.494385,81.1621094 Z M357.161865,77.8222656 C356.976317,77.7880858 356.778566,77.7709961 356.568604,77.7709961 C356.021726,77.7709961 355.559084,77.9235825 355.180664,78.2287598 C354.802244,78.5339371 354.532472,78.9770479 354.371338,79.5581055 L354.371338,85 L353.499756,85 L353.499756,77.0751953 L354.356689,77.0751953 L354.371338,78.3349609 C354.835207,77.3974563 355.579829,76.9287109 356.605225,76.9287109 C356.849366,76.9287109 357.042236,76.9604489 357.183838,77.0239258 L357.161865,77.8222656 Z M361.190186,83.7402344 L363.504639,77.0751953 L364.449463,77.0751953 L361.065674,86.3476562 L360.889893,86.7578125 C360.45532,87.7197314 359.78394,88.2006836 358.875732,88.2006836 C358.66577,88.2006836 358.441163,88.1665042 358.201904,88.0981445 L358.19458,87.3730469 L358.648682,87.4169922 C359.078371,87.4169922 359.426268,87.3107921 359.692383,87.0983887 C359.958497,86.8859853 360.184325,86.5209987 360.369873,86.003418 L360.758057,84.934082 L357.769775,77.0751953 L358.729248,77.0751953 L361.190186,83.7402344 Z" id="Short-term-Memory" fill="#000000"></path>
            <rect id="Rectangle-path" stroke="#000000" stroke-width="0.5" fill="#FFFFFF" fill-rule="nonzero" x="500.5" y="38.5" width="160" height="80" rx="12"></rect>
            <path d="M519.036865,84.2382812 L524.302979,84.2382812 L524.302979,85 L518.128662,85 L518.128662,74.3359375 L519.036865,74.3359375 L519.036865,84.2382812 Z M525.343018,80.9204102 C525.343018,80.1586876 525.490721,79.4726593 525.786133,78.8623047 C526.081544,78.2519501 526.499021,77.7771013 527.038574,77.4377441 C527.578128,77.098387 528.189694,76.9287109 528.873291,76.9287109 C529.927984,76.9287109 530.782467,77.2985803 531.436768,78.0383301 C532.091068,78.7780799 532.418213,79.7582947 532.418213,80.9790039 L532.418213,81.1621094 C532.418213,81.9287148 532.270509,82.6184051 531.975098,83.2312012 C531.679686,83.8439972 531.26343,84.3164046 530.726318,84.6484375 C530.189206,84.9804704 529.576419,85.1464844 528.887939,85.1464844 C527.83813,85.1464844 526.984867,84.776615 526.328125,84.0368652 C525.671383,83.2971154 525.343018,82.3169006 525.343018,81.0961914 L525.343018,80.9204102 Z M526.221924,81.1621094 C526.221924,82.1093797 526.467283,82.8869599 526.958008,83.494873 C527.448733,84.1027862 528.092037,84.4067383 528.887939,84.4067383 C529.678959,84.4067383 530.319822,84.1027862 530.810547,83.494873 C531.301272,82.8869599 531.546631,82.0849659 531.546631,81.0888672 L531.546631,80.9204102 C531.546631,80.3149384 531.434327,79.7607447 531.209717,79.2578125 C530.985106,78.7548803 530.670168,78.3654799 530.264893,78.0895996 C529.859617,77.8137193 529.395755,77.6757812 528.873291,77.6757812 C528.092037,77.6757812 527.454836,77.9821747 526.96167,78.5949707 C526.468503,79.2077667 526.221924,80.0097607 526.221924,81.0009766 L526.221924,81.1621094 Z M535.062256,77.0751953 L535.091553,78.4301758 C535.389406,77.9418921 535.760496,77.5695814 536.204834,77.3132324 C536.649172,77.0568835 537.13989,76.9287109 537.677002,76.9287109 C538.526616,76.9287109 539.158933,77.1679664 539.573975,77.6464844 C539.989016,78.1250024 540.198975,78.8427687 540.203857,79.7998047 L540.203857,85 L539.332275,85 L539.332275,79.7924805 C539.327393,79.0844691 539.177248,78.5571306 538.881836,78.2104492 C538.586424,77.8637678 538.114017,77.6904297 537.4646,77.6904297 C536.922605,77.6904297 536.442873,77.8601057 536.025391,78.1994629 C535.607908,78.5388201 535.299073,78.9965792 535.098877,79.5727539 L535.098877,85 L534.227295,85 L534.227295,77.0751953 L535.062256,77.0751953 Z M542.115479,80.9643555 C542.115479,79.7241149 542.390134,78.7414587 542.939453,78.0163574 C543.488772,77.2912561 544.234614,76.9287109 545.177002,76.9287109 C546.256109,76.9287109 547.076413,77.3583941 547.637939,78.2177734 L547.681885,77.0751953 L548.502197,77.0751953 L548.502197,84.8388672 C548.502197,85.8593801 548.216556,86.6674775 547.645264,87.2631836 C547.073972,87.8588897 546.300054,88.1567383 545.323486,88.1567383 C544.771726,88.1567383 544.245608,88.0334485 543.745117,87.7868652 C543.244626,87.540282 542.850343,87.2119161 542.562256,86.8017578 L543.052979,86.2744141 C543.673099,87.0361366 544.410396,87.4169922 545.264893,87.4169922 C545.997318,87.4169922 546.568601,87.2009299 546.97876,86.7687988 C547.388918,86.3366678 547.601318,85.7373085 547.615967,84.9707031 L547.615967,83.9746094 C547.054441,84.7558633 546.236578,85.1464844 545.162354,85.1464844 C544.24438,85.1464844 543.507083,84.7802771 542.950439,84.0478516 C542.393796,83.315426 542.115479,82.3266664 542.115479,81.081543 L542.115479,80.9643555 Z M543.001709,81.1181641 C543.001709,82.1289113 543.204344,82.9260225 543.609619,83.5095215 C544.014895,84.0930205 544.586178,84.3847656 545.323486,84.3847656 C546.402593,84.3847656 547.166746,83.901372 547.615967,82.9345703 L547.615967,79.2504883 C547.410888,78.7426732 547.11548,78.3557142 546.729736,78.0895996 C546.343992,77.823485 545.88013,77.6904297 545.338135,77.6904297 C544.600826,77.6904297 544.027102,77.9797334 543.616943,78.5583496 C543.206785,79.1369658 543.001709,79.9902287 543.001709,81.1181641 Z M553.511963,80.6640625 L550.003662,80.6640625 L550.003662,79.9243164 L553.511963,79.9243164 L553.511963,80.6640625 Z M556.44165,75.0463867 L556.44165,77.0751953 L558.082275,77.0751953 L558.082275,77.7929688 L556.44165,77.7929688 L556.44165,83.0737305 C556.44165,83.5131858 556.520995,83.840331 556.679688,84.0551758 C556.83838,84.2700206 557.10327,84.3774414 557.474365,84.3774414 C557.62085,84.3774414 557.857664,84.3530276 558.184814,84.3041992 L558.221436,85.0219727 C557.991942,85.1049809 557.679445,85.1464844 557.283936,85.1464844 C556.683347,85.1464844 556.246339,84.9719256 555.9729,84.6228027 C555.699462,84.2736799 555.562744,83.759769 555.562744,83.0810547 L555.562744,77.7929688 L554.105225,77.7929688 L554.105225,77.0751953 L555.562744,77.0751953 L555.562744,75.0463867 L556.44165,75.0463867 Z M562.967529,85.1464844 C562.293698,85.1464844 561.684573,84.9804704 561.140137,84.6484375 C560.5957,84.3164046 560.172121,83.8537627 559.869385,83.260498 C559.566649,82.6672334 559.415283,82.0019568 559.415283,81.2646484 L559.415283,80.949707 C559.415283,80.1879845 559.562987,79.5019562 559.858398,78.8916016 C560.15381,78.2812469 560.565183,77.8015154 561.092529,77.4523926 C561.619876,77.1032697 562.191159,76.9287109 562.806396,76.9287109 C563.768315,76.9287109 564.531247,77.2570768 565.095215,77.9138184 C565.659183,78.5705599 565.941162,79.4677677 565.941162,80.6054688 L565.941162,81.0961914 L560.286865,81.0961914 L560.286865,81.2646484 C560.286865,82.1630904 560.544431,82.911374 561.05957,83.5095215 C561.57471,84.107669 562.222896,84.4067383 563.00415,84.4067383 C563.472903,84.4067383 563.886717,84.3212899 564.245605,84.1503906 C564.604494,83.9794913 564.930418,83.7060566 565.223389,83.3300781 L565.772705,83.7475586 C565.128171,84.6801804 564.193121,85.1464844 562.967529,85.1464844 Z M562.806396,77.6757812 C562.147214,77.6757812 561.591799,77.9174781 561.140137,78.4008789 C560.688474,78.8842798 560.413819,79.5336873 560.316162,80.3491211 L565.06958,80.3491211 L565.06958,80.2539062 C565.045166,79.4921837 564.827883,78.8720727 564.417725,78.3935547 C564.007566,77.9150367 563.470462,77.6757812 562.806396,77.6757812 Z M571.309814,77.8222656 C571.124267,77.7880858 570.926515,77.7709961 570.716553,77.7709961 C570.169675,77.7709961 569.707033,77.9235825 569.328613,78.2287598 C568.950193,78.5339371 568.680421,78.9770479 568.519287,79.5581055 L568.519287,85 L567.647705,85 L567.647705,77.0751953 L568.504639,77.0751953 L568.519287,78.3349609 C568.983157,77.3974563 569.727778,76.9287109 570.753174,76.9287109 C570.997316,76.9287109 571.190185,76.9604489 571.331787,77.0239258 L571.309814,77.8222656 Z M573.492432,77.0751953 L573.521729,78.3642578 C573.814699,77.8857398 574.180906,77.5268567 574.620361,77.2875977 C575.059817,77.0483386 575.548093,76.9287109 576.085205,76.9287109 C577.335211,76.9287109 578.12866,77.4414011 578.465576,78.4667969 C578.748781,77.9736303 579.127195,77.5939955 579.60083,77.3278809 C580.074465,77.0617662 580.596921,76.9287109 581.168213,76.9287109 C582.86744,76.9287109 583.734131,77.856436 583.768311,79.7119141 L583.768311,85 L582.889404,85 L582.889404,79.777832 C582.884521,79.0698207 582.731935,78.5449236 582.431641,78.203125 C582.131346,77.8613264 581.641849,77.6904297 580.963135,77.6904297 C580.333249,77.7001954 579.801028,77.9040507 579.366455,78.302002 C578.931883,78.6999532 578.690186,79.1845675 578.641357,79.7558594 L578.641357,85 L577.762451,85 L577.762451,79.7119141 C577.757568,79.0331997 577.597658,78.526613 577.282715,78.1921387 C576.967772,77.8576643 576.483158,77.6904297 575.828857,77.6904297 C575.277097,77.6904297 574.803469,77.8478988 574.407959,78.1628418 C574.012449,78.4777848 573.719483,78.9453094 573.529053,79.5654297 L573.529053,85 L572.650146,85 L572.650146,77.0751953 L573.492432,77.0751953 Z M591.033936,74.3359375 L594.967041,83.7475586 L598.914795,74.3359375 L600.115967,74.3359375 L600.115967,85 L599.215088,85 L599.215088,80.3564453 L599.28833,75.5957031 L595.318604,85 L594.622803,85 L590.667725,75.6323242 L590.740967,80.3271484 L590.740967,85 L589.840088,85 L589.840088,74.3359375 L591.033936,74.3359375 Z M605.682373,85.1464844 C605.008542,85.1464844 604.399417,84.9804704 603.85498,84.6484375 C603.310544,84.3164046 602.886964,83.8537627 602.584229,83.260498 C602.281493,82.6672334 602.130127,82.0019568 602.130127,81.2646484 L602.130127,80.949707 C602.130127,80.1879845 602.277831,79.5019562 602.573242,78.8916016 C602.868654,78.2812469 603.280027,77.8015154 603.807373,77.4523926 C604.334719,77.1032697 604.906003,76.9287109 605.52124,76.9287109 C606.483159,76.9287109 607.246091,77.2570768 607.810059,77.9138184 C608.374026,78.5705599 608.656006,79.4677677 608.656006,80.6054688 L608.656006,81.0961914 L603.001709,81.0961914 L603.001709,81.2646484 C603.001709,82.1630904 603.259275,82.911374 603.774414,83.5095215 C604.289553,84.107669 604.93774,84.4067383 605.718994,84.4067383 C606.187746,84.4067383 606.601561,84.3212899 606.960449,84.1503906 C607.319338,83.9794913 607.645262,83.7060566 607.938232,83.3300781 L608.487549,83.7475586 C607.843014,84.6801804 606.907965,85.1464844 605.682373,85.1464844 Z M605.52124,77.6757812 C604.862057,77.6757812 604.306643,77.9174781 603.85498,78.4008789 C603.403318,78.8842798 603.128663,79.5336873 603.031006,80.3491211 L607.784424,80.3491211 L607.784424,80.2539062 C607.76001,79.4921837 607.542727,78.8720727 607.132568,78.3935547 C606.72241,77.9150367 606.185306,77.6757812 605.52124,77.6757812 Z M611.160889,77.0751953 L611.190186,78.3642578 C611.483156,77.8857398 611.849363,77.5268567 612.288818,77.2875977 C612.728274,77.0483386 613.21655,76.9287109 613.753662,76.9287109 C615.003668,76.9287109 615.797117,77.4414011 616.134033,78.4667969 C616.417238,77.9736303 616.795652,77.5939955 617.269287,77.3278809 C617.742922,77.0617662 618.265378,76.9287109 618.83667,76.9287109 C620.535897,76.9287109 621.402588,77.856436 621.436768,79.7119141 L621.436768,85 L620.557861,85 L620.557861,79.777832 C620.552978,79.0698207 620.400392,78.5449236 620.100098,78.203125 C619.799803,77.8613264 619.310306,77.6904297 618.631592,77.6904297 C618.001706,77.7001954 617.469485,77.9040507 617.034912,78.302002 C616.60034,78.6999532 616.358643,79.1845675 616.309814,79.7558594 L616.309814,85 L615.430908,85 L615.430908,79.7119141 C615.426025,79.0331997 615.266115,78.526613 614.951172,78.1921387 C614.636229,77.8576643 614.151615,77.6904297 613.497314,77.6904297 C612.945554,77.6904297 612.471926,77.8478988 612.076416,78.1628418 C611.680906,78.4777848 611.38794,78.9453094 611.19751,79.5654297 L611.19751,85 L610.318604,85 L610.318604,77.0751953 L611.160889,77.0751953 Z M623.172607,80.9204102 C623.172607,80.1586876 623.320311,79.4726593 623.615723,78.8623047 C623.911134,78.2519501 624.328611,77.7771013 624.868164,77.4377441 C625.407718,77.098387 626.019284,76.9287109 626.702881,76.9287109 C627.757574,76.9287109 628.612057,77.2985803 629.266357,78.0383301 C629.920658,78.7780799 630.247803,79.7582947 630.247803,80.9790039 L630.247803,81.1621094 C630.247803,81.9287148 630.100099,82.6184051 629.804688,83.2312012 C629.509276,83.8439972 629.09302,84.3164046 628.555908,84.6484375 C628.018796,84.9804704 627.406009,85.1464844 626.717529,85.1464844 C625.667719,85.1464844 624.814456,84.776615 624.157715,84.0368652 C623.500973,83.2971154 623.172607,82.3169006 623.172607,81.0961914 L623.172607,80.9204102 Z M624.051514,81.1621094 C624.051514,82.1093797 624.296873,82.8869599 624.787598,83.494873 C625.278323,84.1027862 625.921627,84.4067383 626.717529,84.4067383 C627.508549,84.4067383 628.149412,84.1027862 628.640137,83.494873 C629.130862,82.8869599 629.376221,82.0849659 629.376221,81.0888672 L629.376221,80.9204102 C629.376221,80.3149384 629.263917,79.7607447 629.039307,79.2578125 C628.814696,78.7548803 628.499758,78.3654799 628.094482,78.0895996 C627.689207,77.8137193 627.225344,77.6757812 626.702881,77.6757812 C625.921627,77.6757812 625.284426,77.9821747 624.79126,78.5949707 C624.298093,79.2077667 624.051514,80.0097607 624.051514,81.0009766 L624.051514,81.1621094 Z M635.718994,77.8222656 C635.533446,77.7880858 635.335694,77.7709961 635.125732,77.7709961 C634.578855,77.7709961 634.116213,77.9235825 633.737793,78.2287598 C633.359373,78.5339371 633.0896,78.9770479 632.928467,79.5581055 L632.928467,85 L632.056885,85 L632.056885,77.0751953 L632.913818,77.0751953 L632.928467,78.3349609 C633.392336,77.3974563 634.136958,76.9287109 635.162354,76.9287109 C635.406495,76.9287109 635.599365,76.9604489 635.740967,77.0239258 L635.718994,77.8222656 Z M639.747314,83.7402344 L642.061768,77.0751953 L643.006592,77.0751953 L639.622803,86.3476562 L639.447021,86.7578125 C639.012449,87.7197314 638.341069,88.2006836 637.432861,88.2006836 C637.222899,88.2006836 636.998292,88.1665042 636.759033,88.0981445 L636.751709,87.3730469 L637.205811,87.4169922 C637.6355,87.4169922 637.983397,87.3107921 638.249512,87.0983887 C638.515626,86.8859853 638.741454,86.5209987 638.927002,86.003418 L639.315186,84.934082 L636.326904,77.0751953 L637.286377,77.0751953 L639.747314,83.7402344 Z" id="Long-term-Memory" fill="#000000"></path>
            <path d="M160.83,79.17 L214.47,79.17" id="Shape" stroke="#000000"></path>
            <polygon id="Shape" stroke="#000000" fill="#000000" fill-rule="nonzero" points="219.72 79.17 212.72 82.67 214.47 79.17 212.72 75.67"></polygon>
            <path d="M380.83,79.17 L494.47,79.17" id="Shape" stroke="#000000" stroke-width="0.5"></path>
            <polygon id="Shape" stroke="#000000" fill="#000000" fill-rule="nonzero" points="499.72 79.17 492.72 82.67 494.47 79.17 492.72 75.67"></polygon>
            <path d="M440.5,78.5 C440.5,151.833333 425.5,185.166667 395.5,178.5 C365.5,171.833333 335.45,153.55 305.35,123.65" id="Shape" stroke="#000000" stroke-width="0.5"></path>
            <polygon id="Shape" stroke="#000000" fill="#000000" fill-rule="nonzero" points="301.63 119.95 309.06 122.4 305.35 123.65 304.13 127.37"></polygon>
            <path d="M410.5,68.5 L460.5,18.5" id="Shape" stroke="#000000" stroke-width="0.5"></path>
            <path d="M440.5,158.5 L500.5,158.5" id="Shape" stroke="#000000" stroke-width="0.5"></path>
            <path d="M429.898926,8.67480469 C429.776855,9.79785718 429.375248,10.6572236 428.694092,11.2529297 C428.012936,11.8486358 427.105963,12.1464844 425.973145,12.1464844 C425.182125,12.1464844 424.482669,11.9487324 423.874756,11.5532227 C423.266843,11.1577129 422.796877,10.5974157 422.464844,9.87231445 C422.132811,9.14721317 421.964355,8.31836404 421.959473,7.38574219 L421.959473,6.00146484 C421.959473,5.05419448 422.125487,4.21435913 422.45752,3.48193359 C422.789552,2.74950806 423.266843,2.18432816 423.889404,1.78637695 C424.511966,1.38842574 425.228512,1.18945312 426.039062,1.18945312 C427.181646,1.18945312 428.083737,1.49828793 428.745361,2.1159668 C429.406986,2.73364567 429.791503,3.58690862 429.898926,4.67578125 L428.990723,4.67578125 C428.766112,2.86424875 427.782235,1.95849609 426.039062,1.95849609 C425.072261,1.95849609 424.302005,2.31982061 423.728271,3.04248047 C423.154538,3.76514033 422.867676,4.7636655 422.867676,6.03808594 L422.867676,7.34179688 C422.867676,8.57227178 423.147214,9.55370728 423.706299,10.2861328 C424.265384,11.0185583 425.020991,11.3847656 425.973145,11.3847656 C426.915532,11.3847656 427.625974,11.1589378 428.104492,10.7072754 C428.58301,10.255613 428.878417,9.57812952 428.990723,8.67480469 L429.898926,8.67480469 Z M431.400391,7.92041016 C431.400391,7.1586876 431.548094,6.4726593 431.843506,5.86230469 C432.138917,5.25195007 432.556394,4.77710131 433.095947,4.43774414 C433.635501,4.09838698 434.247067,3.92871094 434.930664,3.92871094 C435.985357,3.92871094 436.83984,4.29858029 437.494141,5.03833008 C438.148441,5.77807987 438.475586,6.75829468 438.475586,7.97900391 L438.475586,8.16210938 C438.475586,8.92871477 438.327882,9.61840514 438.032471,10.2312012 C437.737059,10.8439972 437.320803,11.3164046 436.783691,11.6484375 C436.246579,11.9804704 435.633793,12.1464844 434.945312,12.1464844 C433.895503,12.1464844 433.04224,11.776615 432.385498,11.0368652 C431.728756,10.2971154 431.400391,9.31690063 431.400391,8.09619141 L431.400391,7.92041016 Z M432.279297,8.16210938 C432.279297,9.10937974 432.524656,9.88695985 433.015381,10.494873 C433.506106,11.1027862 434.14941,11.4067383 434.945312,11.4067383 C435.736332,11.4067383 436.377195,11.1027862 436.86792,10.494873 C437.358645,9.88695985 437.604004,9.08496592 437.604004,8.08886719 L437.604004,7.92041016 C437.604004,7.31493838 437.4917,6.7607447 437.26709,6.2578125 C437.042479,5.7548803 436.727541,5.3654799 436.322266,5.08959961 C435.91699,4.81371932 435.453128,4.67578125 434.930664,4.67578125 C434.14941,4.67578125 433.512209,4.98217467 433.019043,5.5949707 C432.525876,6.20776674 432.279297,7.00976067 432.279297,8.00097656 L432.279297,8.16210938 Z M441.119629,4.07519531 L441.148926,5.43017578 C441.446779,4.94189209 441.817869,4.56958136 442.262207,4.31323242 C442.706545,4.05688348 443.197263,3.92871094 443.734375,3.92871094 C444.583989,3.92871094 445.216307,4.16796636 445.631348,4.64648438 C446.046389,5.12500239 446.256348,5.84276865 446.26123,6.79980469 L446.26123,12 L445.389648,12 L445.389648,6.79248047 C445.384766,6.08446912 445.234621,5.55713064 444.939209,5.21044922 C444.643797,4.8637678 444.17139,4.69042969 443.521973,4.69042969 C442.979978,4.69042969 442.500246,4.86010573 442.082764,5.19946289 C441.665281,5.53882006 441.356446,5.99657915 441.15625,6.57275391 L441.15625,12 L440.284668,12 L440.284668,4.07519531 L441.119629,4.07519531 Z M453.270508,9.98583984 C453.270508,9.55126736 453.095949,9.20214976 452.746826,8.93847656 C452.397703,8.67480337 451.871586,8.4685066 451.168457,8.31958008 C450.465329,8.17065355 449.91968,7.99975682 449.531494,7.80688477 C449.143309,7.61401271 448.855226,7.37841936 448.667236,7.10009766 C448.479247,6.82177595 448.385254,6.48486526 448.385254,6.08935547 C448.385254,5.46435234 448.646482,4.94800009 449.168945,4.5402832 C449.691409,4.13256632 450.360347,3.92871094 451.175781,3.92871094 C452.059575,3.92871094 452.768796,4.14721461 453.303467,4.58422852 C453.838137,5.02124242 454.105469,5.59130508 454.105469,6.29443359 L453.226562,6.29443359 C453.226562,5.83056409 453.032473,5.44482576 452.644287,5.13720703 C452.256102,4.82958831 451.766605,4.67578125 451.175781,4.67578125 C450.599606,4.67578125 450.136965,4.8039538 449.787842,5.06030273 C449.438719,5.31665167 449.26416,5.64990029 449.26416,6.06005859 C449.26416,6.45556838 449.409422,6.7619618 449.699951,6.97924805 C449.99048,7.19653429 450.52026,7.39550691 451.289307,7.57617188 C452.058353,7.75683684 452.63452,7.94970601 453.017822,8.15478516 C453.401125,8.35986431 453.685546,8.60644387 453.871094,8.89453125 C454.056642,9.18261863 454.149414,9.53173623 454.149414,9.94189453 C454.149414,10.6108432 453.879641,11.1455058 453.340088,11.5458984 C452.800534,11.9462911 452.096196,12.1464844 451.227051,12.1464844 C450.304195,12.1464844 449.555911,11.9230979 448.982178,11.4763184 C448.408444,11.0295388 448.121582,10.4643589 448.121582,9.78076172 L449.000488,9.78076172 C449.034668,10.2934596 449.25073,10.6926255 449.648682,10.9782715 C450.046633,11.2639174 450.572751,11.4067383 451.227051,11.4067383 C451.837405,11.4067383 452.330565,11.2724623 452.706543,11.0039062 C453.082521,10.7353502 453.270508,10.3959981 453.270508,9.98583984 Z M455.63623,7.92041016 C455.63623,7.1586876 455.783934,6.4726593 456.079346,5.86230469 C456.374757,5.25195007 456.792234,4.77710131 457.331787,4.43774414 C457.871341,4.09838698 458.482907,3.92871094 459.166504,3.92871094 C460.221197,3.92871094 461.07568,4.29858029 461.72998,5.03833008 C462.384281,5.77807987 462.711426,6.75829468 462.711426,7.97900391 L462.711426,8.16210938 C462.711426,8.92871477 462.563722,9.61840514 462.268311,10.2312012 C461.972899,10.8439972 461.556643,11.3164046 461.019531,11.6484375 C460.482419,11.9804704 459.869632,12.1464844 459.181152,12.1464844 C458.131342,12.1464844 457.278079,11.776615 456.621338,11.0368652 C455.964596,10.2971154 455.63623,9.31690063 455.63623,8.09619141 L455.63623,7.92041016 Z M456.515137,8.16210938 C456.515137,9.10937974 456.760496,9.88695985 457.251221,10.494873 C457.741946,11.1027862 458.38525,11.4067383 459.181152,11.4067383 C459.972172,11.4067383 460.613035,11.1027862 461.10376,10.494873 C461.594485,9.88695985 461.839844,9.08496592 461.839844,8.08886719 L461.839844,7.92041016 C461.839844,7.31493838 461.72754,6.7607447 461.50293,6.2578125 C461.278319,5.7548803 460.963381,5.3654799 460.558105,5.08959961 C460.15283,4.81371932 459.688967,4.67578125 459.166504,4.67578125 C458.38525,4.67578125 457.748049,4.98217467 457.254883,5.5949707 C456.761716,6.20776674 456.515137,7.00976067 456.515137,8.00097656 L456.515137,8.16210938 Z M465.501953,12 L464.623047,12 L464.623047,0.75 L465.501953,0.75 L465.501953,12 Z M468.86377,12 L467.984863,12 L467.984863,4.07519531 L468.86377,4.07519531 L468.86377,12 Z M467.831055,1.78271484 C467.831055,1.61669839 467.884765,1.47631893 467.992188,1.36157227 C468.09961,1.2468256 468.246093,1.18945312 468.431641,1.18945312 C468.617188,1.18945312 468.764892,1.2468256 468.874756,1.36157227 C468.98462,1.47631893 469.039551,1.61669839 469.039551,1.78271484 C469.039551,1.9487313 468.98462,2.08789006 468.874756,2.20019531 C468.764892,2.31250056 468.617188,2.36865234 468.431641,2.36865234 C468.246093,2.36865234 468.09961,2.31250056 467.992188,2.20019531 C467.884765,2.08789006 467.831055,1.9487313 467.831055,1.78271484 Z M470.892578,7.96435547 C470.892578,6.73388057 471.167234,5.75366576 471.716553,5.02368164 C472.265872,4.29369752 473.011714,3.92871094 473.954102,3.92871094 C475.023443,3.92871094 475.838864,4.35107 476.400391,5.19580078 L476.400391,0.75 L477.271973,0.75 L477.271973,12 L476.45166,12 L476.415039,10.9453125 C475.853513,11.7460978 475.028326,12.1464844 473.939453,12.1464844 C473.026363,12.1464844 472.290286,11.7790564 471.731201,11.0441895 C471.172116,10.3093225 470.892578,9.31690078 470.892578,8.06689453 L470.892578,7.96435547 Z M471.778809,8.11816406 C471.778809,9.1289113 471.981443,9.92602247 472.386719,10.5095215 C472.791994,11.0930205 473.363278,11.3847656 474.100586,11.3847656 C475.179693,11.3847656 475.946287,10.9086962 476.400391,9.95654297 L476.400391,6.23583984 C475.946287,5.20556125 475.184576,4.69042969 474.115234,4.69042969 C473.377926,4.69042969 472.804201,4.97973344 472.394043,5.55834961 C471.983885,6.13696578 471.778809,6.99022874 471.778809,8.11816406 Z M484.581543,12 C484.493652,11.7509753 484.4375,11.3823267 484.413086,10.894043 C484.105467,11.2944356 483.713625,11.6032704 483.237549,11.8205566 C482.761472,12.0378429 482.257327,12.1464844 481.725098,12.1464844 C480.963375,12.1464844 480.346926,11.9340842 479.875732,11.5092773 C479.404539,11.0844705 479.168945,10.5473665 479.168945,9.89794922 C479.168945,9.12646099 479.489987,8.51611553 480.13208,8.06689453 C480.774173,7.61767354 481.66894,7.39306641 482.816406,7.39306641 L484.405762,7.39306641 L484.405762,6.4921875 C484.405762,5.92577842 484.231203,5.48022623 483.88208,5.15551758 C483.532957,4.83080892 483.023929,4.66845703 482.35498,4.66845703 C481.744626,4.66845703 481.23926,4.82470547 480.838867,5.13720703 C480.438475,5.44970859 480.238281,5.8256814 480.238281,6.26513672 L479.359375,6.2578125 C479.359375,5.62792654 479.652341,5.0822777 480.238281,4.62084961 C480.824222,4.15942152 481.544429,3.92871094 482.398926,3.92871094 C483.282719,3.92871094 483.979734,4.14965599 484.48999,4.59155273 C485.000247,5.03344948 485.262695,5.64989839 485.277344,6.44091797 L485.277344,10.190918 C485.277344,10.9575234 485.357909,11.5312481 485.519043,11.9121094 L485.519043,12 L484.581543,12 Z M481.827637,11.3701172 C482.413577,11.3701172 482.937254,11.228517 483.398682,10.9453125 C483.86011,10.662108 484.1958,10.2836938 484.405762,9.81005859 L484.405762,8.06689453 L482.838379,8.06689453 C481.964351,8.07666021 481.280764,8.23657072 480.787598,8.54663086 C480.294431,8.856691 480.047852,9.28271213 480.047852,9.82470703 C480.047852,10.2690452 480.212645,10.6376938 480.542236,10.9306641 C480.871828,11.2236343 481.30029,11.3701172 481.827637,11.3701172 Z M488.976074,2.04638672 L488.976074,4.07519531 L490.616699,4.07519531 L490.616699,4.79296875 L488.976074,4.79296875 L488.976074,10.0737305 C488.976074,10.5131858 489.055419,10.840331 489.214111,11.0551758 C489.372804,11.2700206 489.637693,11.3774414 490.008789,11.3774414 C490.155274,11.3774414 490.392088,11.3530276 490.719238,11.3041992 L490.755859,12.0219727 C490.526366,12.1049809 490.213869,12.1464844 489.818359,12.1464844 C489.21777,12.1464844 488.780763,11.9719256 488.507324,11.6228027 C488.233885,11.2736799 488.097168,10.759769 488.097168,10.0810547 L488.097168,4.79296875 L486.639648,4.79296875 L486.639648,4.07519531 L488.097168,4.07519531 L488.097168,2.04638672 L488.976074,2.04638672 Z M493.414551,12 L492.535645,12 L492.535645,4.07519531 L493.414551,4.07519531 L493.414551,12 Z M492.381836,1.78271484 C492.381836,1.61669839 492.435546,1.47631893 492.542969,1.36157227 C492.650391,1.2468256 492.796874,1.18945312 492.982422,1.18945312 C493.16797,1.18945312 493.315673,1.2468256 493.425537,1.36157227 C493.535401,1.47631893 493.590332,1.61669839 493.590332,1.78271484 C493.590332,1.9487313 493.535401,2.08789006 493.425537,2.20019531 C493.315673,2.31250056 493.16797,2.36865234 492.982422,2.36865234 C492.796874,2.36865234 492.650391,2.31250056 492.542969,2.20019531 C492.435546,2.08789006 492.381836,1.9487313 492.381836,1.78271484 Z M495.311523,7.92041016 C495.311523,7.1586876 495.459227,6.4726593 495.754639,5.86230469 C496.05005,5.25195007 496.467527,4.77710131 497.00708,4.43774414 C497.546634,4.09838698 498.1582,3.92871094 498.841797,3.92871094 C499.89649,3.92871094 500.750973,4.29858029 501.405273,5.03833008 C502.059574,5.77807987 502.386719,6.75829468 502.386719,7.97900391 L502.386719,8.16210938 C502.386719,8.92871477 502.239015,9.61840514 501.943604,10.2312012 C501.648192,10.8439972 501.231936,11.3164046 500.694824,11.6484375 C500.157712,11.9804704 499.544925,12.1464844 498.856445,12.1464844 C497.806635,12.1464844 496.953372,11.776615 496.296631,11.0368652 C495.639889,10.2971154 495.311523,9.31690063 495.311523,8.09619141 L495.311523,7.92041016 Z M496.19043,8.16210938 C496.19043,9.10937974 496.435789,9.88695985 496.926514,10.494873 C497.417239,11.1027862 498.060543,11.4067383 498.856445,11.4067383 C499.647465,11.4067383 500.288328,11.1027862 500.779053,10.494873 C501.269778,9.88695985 501.515137,9.08496592 501.515137,8.08886719 L501.515137,7.92041016 C501.515137,7.31493838 501.402833,6.7607447 501.178223,6.2578125 C500.953612,5.7548803 500.638674,5.3654799 500.233398,5.08959961 C499.828123,4.81371932 499.36426,4.67578125 498.841797,4.67578125 C498.060543,4.67578125 497.423342,4.98217467 496.930176,5.5949707 C496.437009,6.20776674 496.19043,7.00976067 496.19043,8.00097656 L496.19043,8.16210938 Z M505.030762,4.07519531 L505.060059,5.43017578 C505.357912,4.94189209 505.729002,4.56958136 506.17334,4.31323242 C506.617678,4.05688348 507.108396,3.92871094 507.645508,3.92871094 C508.495121,3.92871094 509.127439,4.16796636 509.54248,4.64648438 C509.957522,5.12500239 510.16748,5.84276865 510.172363,6.79980469 L510.172363,12 L509.300781,12 L509.300781,6.79248047 C509.295898,6.08446912 509.145753,5.55713064 508.850342,5.21044922 C508.55493,4.8637678 508.082523,4.69042969 507.433105,4.69042969 C506.891111,4.69042969 506.411379,4.86010573 505.993896,5.19946289 C505.576414,5.53882006 505.267579,5.99657915 505.067383,6.57275391 L505.067383,12 L504.195801,12 L504.195801,4.07519531 L505.030762,4.07519531 Z" id="Consolidation" fill="#000000"></path>
            <path d="M511.332031,159.561523 L508.233887,159.561523 L508.233887,164 L507.325684,164 L507.325684,153.335938 L510.790039,153.335938 C511.92774,153.335938 512.816403,153.611814 513.456055,154.163574 C514.095706,154.715335 514.415527,155.486811 514.415527,156.478027 C514.415527,157.161625 514.215334,157.764646 513.814941,158.287109 C513.414549,158.809573 512.877445,159.170897 512.203613,159.371094 L514.869629,163.904785 L514.869629,164 L513.910156,164 L511.332031,159.561523 Z M508.233887,158.79248 L510.995117,158.79248 C511.751957,158.79248 512.359861,158.577639 512.818848,158.147949 C513.277834,157.71826 513.507324,157.161625 513.507324,156.478027 C513.507324,155.72607 513.268069,155.14258 512.789551,154.727539 C512.311033,154.312498 511.639653,154.10498 510.775391,154.10498 L508.233887,154.10498 L508.233887,158.79248 Z M519.73291,164.146484 C519.059079,164.146484 518.449954,163.98047 517.905518,163.648438 C517.361081,163.316405 516.937502,162.853763 516.634766,162.260498 C516.33203,161.667233 516.180664,161.001957 516.180664,160.264648 L516.180664,159.949707 C516.180664,159.187984 516.328368,158.501956 516.623779,157.891602 C516.919191,157.281247 517.330564,156.801515 517.85791,156.452393 C518.385257,156.10327 518.95654,155.928711 519.571777,155.928711 C520.533696,155.928711 521.296628,156.257077 521.860596,156.913818 C522.424563,157.57056 522.706543,158.467768 522.706543,159.605469 L522.706543,160.096191 L517.052246,160.096191 L517.052246,160.264648 C517.052246,161.16309 517.309812,161.911374 517.824951,162.509521 C518.34009,163.107669 518.988277,163.406738 519.769531,163.406738 C520.238284,163.406738 520.652098,163.32129 521.010986,163.150391 C521.369875,162.979491 521.695799,162.706057 521.98877,162.330078 L522.538086,162.747559 C521.893551,163.68018 520.958502,164.146484 519.73291,164.146484 Z M519.571777,156.675781 C518.912594,156.675781 518.35718,156.917478 517.905518,157.400879 C517.453855,157.88428 517.1792,158.533687 517.081543,159.349121 L521.834961,159.349121 L521.834961,159.253906 C521.810547,158.492184 521.593264,157.872073 521.183105,157.393555 C520.772947,156.915037 520.235843,156.675781 519.571777,156.675781 Z M525.284668,157.415527 C525.572755,156.941892 525.941404,156.575685 526.390625,156.316895 C526.839846,156.058104 527.330564,155.928711 527.862793,155.928711 C528.712407,155.928711 529.344724,156.167966 529.759766,156.646484 C530.174807,157.125002 530.384766,157.842769 530.389648,158.799805 L530.389648,164 L529.518066,164 L529.518066,158.79248 C529.513184,158.084469 529.363039,157.557131 529.067627,157.210449 C528.772215,156.863768 528.299808,156.69043 527.650391,156.69043 C527.108396,156.69043 526.628664,156.860106 526.211182,157.199463 C525.793699,157.53882 525.484864,157.996579 525.284668,158.572754 L525.284668,164 L524.413086,164 L524.413086,152.75 L525.284668,152.75 L525.284668,157.415527 Z M535.714355,164.146484 C535.040524,164.146484 534.431399,163.98047 533.886963,163.648438 C533.342527,163.316405 532.918947,162.853763 532.616211,162.260498 C532.313475,161.667233 532.162109,161.001957 532.162109,160.264648 L532.162109,159.949707 C532.162109,159.187984 532.309813,158.501956 532.605225,157.891602 C532.900636,157.281247 533.312009,156.801515 533.839355,156.452393 C534.366702,156.10327 534.937985,155.928711 535.553223,155.928711 C536.515142,155.928711 537.278073,156.257077 537.842041,156.913818 C538.406009,157.57056 538.687988,158.467768 538.687988,159.605469 L538.687988,160.096191 L533.033691,160.096191 L533.033691,160.264648 C533.033691,161.16309 533.291257,161.911374 533.806396,162.509521 C534.321536,163.107669 534.969723,163.406738 535.750977,163.406738 C536.219729,163.406738 536.633543,163.32129 536.992432,163.150391 C537.35132,162.979491 537.677245,162.706057 537.970215,162.330078 L538.519531,162.747559 C537.874997,163.68018 536.939948,164.146484 535.714355,164.146484 Z M535.553223,156.675781 C534.89404,156.675781 534.338625,156.917478 533.886963,157.400879 C533.4353,157.88428 533.160645,158.533687 533.062988,159.349121 L537.816406,159.349121 L537.816406,159.253906 C537.791992,158.492184 537.574709,157.872073 537.164551,157.393555 C536.754392,156.915037 536.217288,156.675781 535.553223,156.675781 Z M545.396973,164 C545.309082,163.750975 545.25293,163.382327 545.228516,162.894043 C544.920897,163.294436 544.529055,163.60327 544.052979,163.820557 C543.576902,164.037843 543.072757,164.146484 542.540527,164.146484 C541.778805,164.146484 541.162356,163.934084 540.691162,163.509277 C540.219968,163.084471 539.984375,162.547367 539.984375,161.897949 C539.984375,161.126461 540.305417,160.516116 540.94751,160.066895 C541.589603,159.617674 542.484369,159.393066 543.631836,159.393066 L545.221191,159.393066 L545.221191,158.492188 C545.221191,157.925778 545.046633,157.480226 544.69751,157.155518 C544.348387,156.830809 543.839359,156.668457 543.17041,156.668457 C542.560056,156.668457 542.05469,156.824705 541.654297,157.137207 C541.253904,157.449709 541.053711,157.825681 541.053711,158.265137 L540.174805,158.257812 C540.174805,157.627927 540.467771,157.082278 541.053711,156.62085 C541.639651,156.159422 542.359859,155.928711 543.214355,155.928711 C544.098149,155.928711 544.795163,156.149656 545.30542,156.591553 C545.815676,157.033449 546.078125,157.649898 546.092773,158.440918 L546.092773,162.190918 C546.092773,162.957523 546.173339,163.531248 546.334473,163.912109 L546.334473,164 L545.396973,164 Z M542.643066,163.370117 C543.229007,163.370117 543.752683,163.228517 544.214111,162.945312 C544.675539,162.662108 545.011229,162.283694 545.221191,161.810059 L545.221191,160.066895 L543.653809,160.066895 C542.779781,160.07666 542.096194,160.236571 541.603027,160.546631 C541.109861,160.856691 540.863281,161.282712 540.863281,161.824707 C540.863281,162.269045 541.028075,162.637694 541.357666,162.930664 C541.687258,163.223634 542.11572,163.370117 542.643066,163.370117 Z M552.091309,156.822266 C551.905761,156.788086 551.708009,156.770996 551.498047,156.770996 C550.951169,156.770996 550.488527,156.923582 550.110107,157.22876 C549.731688,157.533937 549.461915,157.977048 549.300781,158.558105 L549.300781,164 L548.429199,164 L548.429199,156.075195 L549.286133,156.075195 L549.300781,157.334961 C549.764651,156.397456 550.509272,155.928711 551.534668,155.928711 C551.77881,155.928711 551.971679,155.960449 552.113281,156.023926 L552.091309,156.822266 Z M558.22168,161.98584 C558.22168,161.551267 558.047121,161.20215 557.697998,160.938477 C557.348875,160.674803 556.822757,160.468507 556.119629,160.31958 C555.4165,160.170654 554.870852,159.999757 554.482666,159.806885 C554.09448,159.614013 553.806397,159.378419 553.618408,159.100098 C553.430419,158.821776 553.336426,158.484865 553.336426,158.089355 C553.336426,157.464352 553.597654,156.948 554.120117,156.540283 C554.642581,156.132566 555.311519,155.928711 556.126953,155.928711 C557.010747,155.928711 557.719968,156.147215 558.254639,156.584229 C558.789309,157.021242 559.056641,157.591305 559.056641,158.294434 L558.177734,158.294434 C558.177734,157.830564 557.983645,157.444826 557.595459,157.137207 C557.207273,156.829588 556.717776,156.675781 556.126953,156.675781 C555.550778,156.675781 555.088137,156.803954 554.739014,157.060303 C554.389891,157.316652 554.215332,157.6499 554.215332,158.060059 C554.215332,158.455568 554.360594,158.761962 554.651123,158.979248 C554.941652,159.196534 555.471432,159.395507 556.240479,159.576172 C557.009525,159.756837 557.585691,159.949706 557.968994,160.154785 C558.352297,160.359864 558.636718,160.606444 558.822266,160.894531 C559.007813,161.182619 559.100586,161.531736 559.100586,161.941895 C559.100586,162.610843 558.830813,163.145506 558.29126,163.545898 C557.751706,163.946291 557.047368,164.146484 556.178223,164.146484 C555.255366,164.146484 554.507083,163.923098 553.93335,163.476318 C553.359616,163.029539 553.072754,162.464359 553.072754,161.780762 L553.95166,161.780762 C553.98584,162.29346 554.201902,162.692626 554.599854,162.978271 C554.997805,163.263917 555.523923,163.406738 556.178223,163.406738 C556.788577,163.406738 557.281736,163.272462 557.657715,163.003906 C558.033693,162.73535 558.22168,162.395998 558.22168,161.98584 Z M566.073242,164 C565.985351,163.750975 565.929199,163.382327 565.904785,162.894043 C565.597166,163.294436 565.205325,163.60327 564.729248,163.820557 C564.253171,164.037843 563.749026,164.146484 563.216797,164.146484 C562.455074,164.146484 561.838625,163.934084 561.367432,163.509277 C560.896238,163.084471 560.660645,162.547367 560.660645,161.897949 C560.660645,161.126461 560.981686,160.516116 561.623779,160.066895 C562.265872,159.617674 563.160639,159.393066 564.308105,159.393066 L565.897461,159.393066 L565.897461,158.492188 C565.897461,157.925778 565.722902,157.480226 565.373779,157.155518 C565.024656,156.830809 564.515628,156.668457 563.84668,156.668457 C563.236325,156.668457 562.730959,156.824705 562.330566,157.137207 C561.930174,157.449709 561.72998,157.825681 561.72998,158.265137 L560.851074,158.257812 C560.851074,157.627927 561.14404,157.082278 561.72998,156.62085 C562.315921,156.159422 563.036129,155.928711 563.890625,155.928711 C564.774418,155.928711 565.471433,156.149656 565.981689,156.591553 C566.491946,157.033449 566.754394,157.649898 566.769043,158.440918 L566.769043,162.190918 C566.769043,162.957523 566.849609,163.531248 567.010742,163.912109 L567.010742,164 L566.073242,164 Z M563.319336,163.370117 C563.905276,163.370117 564.428953,163.228517 564.890381,162.945312 C565.351809,162.662108 565.687499,162.283694 565.897461,161.810059 L565.897461,160.066895 L564.330078,160.066895 C563.45605,160.07666 562.772463,160.236571 562.279297,160.546631 C561.78613,160.856691 561.539551,161.282712 561.539551,161.824707 C561.539551,162.269045 561.704344,162.637694 562.033936,162.930664 C562.363527,163.223634 562.79199,163.370117 563.319336,163.370117 Z M570.086914,164 L569.208008,164 L569.208008,152.75 L570.086914,152.75 L570.086914,164 Z" id="Rehearsal" fill="#000000"></path>
        </g>
    </g>
</svg>